mutatormath-Khula.ufo
<glyph name="quotedbl.deva" format="1">
  <advance width="808.5"/>
  <unicode hex="0022"/>
  <outline>
    <contour>
      <point x="331.5" y="1316.0" type="line"/>
      <point x="298.0" y="841.0" type="line"/>
      <point x="147.5" y="841.0" type="line"/>
      <point x="114.5" y="1316.0" type="line"/>
    </contour>
    <contour>
      <point x="694.0" y="1316.0" type="line"/>
      <point x="660.5" y="841.0" type="line"/>
      <point x="509.5" y="841.0" type="line"/>
      <point x="476.5" y="1316.0" type="line"/>
    </contour>
  </outline>
</glyph>
<glyph name="numbersign.deva" format="1">
  <advance width="1205.5"/>
  <unicode hex="0023"/>
  <outline>
    <contour>
      <point x="904.0" y="783.5" type="line"/>
      <point x="856.5" y="528.5" type="line"/>
      <point x="1102.0" y="528.5" type="line"/>
      <point x="1102.0" y="379.0" type="line"/>
      <point x="827.5" y="379.0" type="line"/>
      <point x="755.5" y="0.0" type="line"/>
      <point x="594.5" y="0.0" type="line"/>
      <point x="666.5" y="379.0" type="line"/>
      <point x="429.0" y="379.0" type="line"/>
      <point x="358.5" y="0.0" type="line"/>
      <point x="199.0" y="0.0" type="line"/>
      <point x="270.0" y="379.0" type="line"/>
      <point x="41.0" y="379.0" type="line"/>
      <point x="41.0" y="528.5" type="line"/>
      <point x="299.5" y="528.5" type="line"/>
      <point x="347.5" y="783.5" type="line"/>
      <point x="107.0" y="783.5" type="line"/>
      <point x="107.0" y="936.5" type="line"/>
      <point x="376.0" y="936.5" type="line"/>
      <point x="447.0" y="1316.0" type="line"/>
      <point x="608.5" y="1316.0" type="line"/>
      <point x="535.0" y="936.5" type="line"/>
      <point x="774.0" y="936.5" type="line"/>
      <point x="845.5" y="1316.0" type="line"/>
      <point x="1005.5" y="1316.0" type="line"/>
      <point x="933.0" y="936.5" type="line"/>
      <point x="1164.0" y="936.5" type="line"/>
      <point x="1164.0" y="783.5" type="line"/>
    </contour>
    <contour>
      <point x="458.0" y="528.5" type="line"/>
      <point x="696.0" y="528.5" type="line"/>
      <point x="745.0" y="783.5" type="line"/>
      <point x="506.5" y="783.5" type="line"/>
    </contour>
  </outline>
</glyph>
<glyph name="percent.deva" format="1">
  <advance width="1618.0"/>
  <unicode hex="0025"/>
  <outline>
    <contour>
      <point x="247.0" y="921.5" type="curve" smooth="yes"/>
      <point x="247.0" y="740.5"/>
      <point x="284.0" y="656.0"/>
      <point x="365.0" y="656.0" type="curve" smooth="yes"/>
      <point x="445.5" y="656.0"/>
      <point x="485.5" y="739.5"/>
      <point x="485.5" y="921.5" type="curve" smooth="yes"/>
      <point x="485.5" y="1100.5"/>
      <point x="444.0" y="1185.0"/>
      <point x="365.0" y="1185.0" type="curve" smooth="yes"/>
      <point x="283.5" y="1185.0"/>
      <point x="247.0" y="1099.5"/>
    </contour>
    <contour>
      <point x="665.5" y="923.0" type="curve" smooth="yes"/>
      <point x="665.5" y="655.5"/>
      <point x="557.5" y="508.0"/>
      <point x="363.0" y="508.0" type="curve" smooth="yes"/>
      <point x="232.0" y="508.0"/>
      <point x="143.0" y="602.0"/>
      <point x="112.5" y="771.5" type="curve" smooth="yes"/>
      <point x="82.5" y="943.0"/>
      <point x="111.0" y="1065.5"/>
      <point x="195.0" y="1129.0" type="curve" smooth="yes"/>
      <point x="278.5" y="1261.0"/>
      <point x="388.0" y="1259.0"/>
    </contour>
    <contour>
      <point x="1162.5" y="855.0" type="curve" smooth="yes"/>
      <point x="1162.5" y="744.5"/>
      <point x="823.5" y="30.5"/>
      <point x="881.0" y="30.5" type="curve" smooth="yes"/>
      <point x="939.0" y="30.5"/>
      <point x="834.5" y="86.0"/>
      <point x="834.5" y="197.0" type="curve" smooth="yes"/>
      <point x="834.5" y="307.5"/>
      <point x="1170.5" y="1021.0"/>
      <point x="1112.5" y="1021.0" type="curve" smooth="yes"/>
      <point x="1055.0" y="1021.0"/>
      <point x="1162.5" y="967.0"/>
    </contour>
    <contour>
      <point x="1345.5" y="395.0" type="curve" smooth="yes"/>
      <point x="1345.5" y="190.0"/>
      <point x="1311.5" y="90.0"/>
      <point x="1249.5" y="90.0" type="curve" smooth="yes"/>
      <point x="1193.5" y="90.0"/>
      <point x="1155.0" y="204.5"/>
      <point x="1155.0" y="395.0" type="curve" smooth="yes"/>
      <point x="1155.0" y="590.5"/>
      <point x="1192.0" y="698.0"/>
      <point x="1249.5" y="698.0" type="curve" smooth="yes"/>
      <point x="1308.0" y="698.0"/>
      <point x="1345.5" y="593.0"/>
    </contour>
    <contour>
      <point x="1432.5" y="858.0" type="curve"/>
      <point x="1432.5" y="726.0"/>
      <point x="1005.5" y="-7.0"/>
      <point x="896.0" y="-7.0" type="curve"/>
      <point x="844.5" y="-7.0"/>
      <point x="760.5" y="11.5"/>
      <point x="730.0" y="49.0" type="curve"/>
      <point x="700.0" y="86.5"/>
      <point x="1050.0" y="794.5"/>
      <point x="1050.0" y="858.0" type="curve"/>
      <point x="1050.0" y="990.0"/>
      <point x="1154.5" y="1063.5"/>
    </contour>
  </outline>
</glyph>
<glyph name="parenleft.deva" format="1">
  <advance width="581.0"/>
  <unicode hex="0028"/>
  <outline>
    <contour>
      <point x="70.5" y="514.5" type="curve" smooth="yes"/>
      <point x="70.5" y="847.0"/>
      <point x="160.5" y="1130.5"/>
      <point x="332.0" y="1334.5" type="curve"/>
      <point x="529.0" y="1334.5" type="line"/>
      <point x="403.0" y="1172.5"/>
      <point x="324.5" y="969.0"/>
      <point x="304.0" y="744.5" type="curve" smooth="yes"/>
      <point x="283.5" y="528.5"/>
      <point x="319.0" y="319.5"/>
      <point x="410.5" y="117.0" type="curve"/>
      <point x="410.5" y="38.5"/>
      <point x="370.5" y="-35.5"/>
      <point x="390.0" y="-106.0" type="curve"/>
      <point x="321.5" y="-74.5"/>
      <point x="303.5" y="3.5"/>
    </contour>
  </outline>
</glyph>
<glyph name="parenright.deva" format="1">
  <advance width="581.0"/>
  <unicode hex="0029"/>
  <outline>
    <contour>
      <point x="511.5" y="514.5" type="curve" smooth="yes"/>
      <point x="511.5" y="186.5"/>
      <point x="420.0" y="-94.5"/>
      <point x="250.0" y="-292.0" type="curve"/>
      <point x="54.0" y="-292.0" type="line"/>
      <point x="183.0" y="-119.0"/>
      <point x="257.5" y="75.5"/>
      <point x="277.5" y="291.5" type="curve" smooth="yes"/>
      <point x="297.5" y="516.5"/>
      <point x="258.5" y="733.5"/>
      <point x="170.0" y="921.0" type="curve"/>
      <point x="170.0" y="1079.5"/>
      <point x="181.0" y="1226.0"/>
      <point x="103.0" y="1334.5" type="curve"/>
      <point x="191.0" y="1229.0"/>
      <point x="385.0" y="1087.0"/>
    </contour>
  </outline>
</glyph>
<glyph name="asterisk.deva" format="1">
  <advance width="1002.5"/>
  <unicode hex="002A"/>
  <outline>
    <contour>
      <point x="600.0" y="1400.0" type="line"/>
      <point x="566.5" y="1060.0" type="line"/>
      <point x="908.5" y="1151.5" type="line"/>
      <point x="934.5" y="960.5" type="line"/>
      <point x="615.5" y="933.0" type="line"/>
      <point x="820.0" y="655.0" type="line"/>
      <point x="647.0" y="561.5" type="line"/>
      <point x="496.5" y="859.0" type="line"/>
      <point x="360.5" y="562.0" type="line"/>
      <point x="182.0" y="655.0" type="line"/>
      <point x="383.5" y="933.0" type="line"/>
      <point x="67.0" y="962.5" type="line"/>
      <point x="96.0" y="1151.5" type="line"/>
      <point x="433.0" y="1060.0" type="line"/>
      <point x="397.5" y="1400.0" type="line"/>
    </contour>
  </outline>
</glyph>
<glyph name="plus.deva" format="1">
  <advance width="1047.5"/>
  <unicode hex="002B"/>
  <outline>
    <contour>
      <point x="481.0" y="608.5" type="line"/>
      <point x="509.0" y="608.5" type="line"/>
      <point x="509.0" y="692.0" type="line"/>
      <point x="481.0" y="692.0" type="line"/>
      <point x="481.0" y="663.0" type="line"/>
      <point x="565.5" y="663.0" type="line"/>
      <point x="565.5" y="692.0" type="line"/>
      <point x="538.0" y="692.0" type="line"/>
      <point x="538.0" y="608.5" type="line"/>
      <point x="565.5" y="608.5" type="line"/>
      <point x="565.5" y="641.0" type="line"/>
      <point x="481.0" y="641.0" type="line"/>
    </contour>
  </outline>
</glyph>
<glyph name="comma.deva" format="1">
  <advance width="483.0"/>
  <unicode hex="002C"/>
  <outline>
    <contour>
      <point x="356.5" y="241.5" type="curve"/>
      <point x="368.5" y="221.5" type="line"/>
      <point x="316.5" y="27.5"/>
      <point x="264.0" y="-128.5"/>
      <point x="211.0" y="-247.5" type="curve"/>
      <point x="56.0" y="-247.5" type="line"/>
      <point x="87.5" y="-123.5"/>
      <point x="113.0" y="-1.5"/>
      <point x="131.5" y="118.0" type="curve"/>
      <point x="140.5" y="169.5"/>
      <point x="199.0" y="210.5"/>
    </contour>
  </outline>
</glyph>
<glyph name="period.deva" format="1">
  <advance width="485.5"/>
  <unicode hex="002E"/>
  <outline>
    <contour>
      <point x="111.5" y="109.5" type="curve" smooth="yes"/>
      <point x="111.5" y="194.5"/>
      <point x="157.0" y="240.0"/>
      <point x="243.5" y="240.0" type="curve" smooth="yes"/>
      <point x="327.5" y="240.0"/>
      <point x="373.0" y="194.5"/>
      <point x="373.0" y="109.5" type="curve" smooth="yes"/>
      <point x="373.0" y="26.0"/>
      <point x="325.5" y="-20.5"/>
      <point x="243.5" y="-20.5" type="curve" smooth="yes"/>
      <point x="160.0" y="-20.5"/>
      <point x="111.5" y="25.5"/>
    </contour>
  </outline>
</glyph>
<glyph name="zero.deva" format="1">
  <advance width="1066.0"/>
  <unicode hex="0030"/>
  <outline>
    <contour>
      <point x="982.0" y="658.5" type="curve" smooth="yes"/>
      <point x="982.0" y="195.5"/>
      <point x="835.0" y="-18.0"/>
      <point x="532.0" y="-18.0" type="curve" smooth="yes"/>
      <point x="237.0" y="-18.0"/>
      <point x="84.0" y="211.0"/>
      <point x="84.0" y="658.5" type="curve" smooth="yes"/>
      <point x="84.0" y="1122.0"/>
      <point x="229.5" y="1335.5"/>
      <point x="532.0" y="1335.5" type="curve" smooth="yes"/>
      <point x="827.0" y="1335.5"/>
      <point x="982.0" y="1106.0"/>
    </contour>
    <contour>
      <point x="309.5" y="658.5" type="curve" smooth="yes"/>
      <point x="309.5" y="380.0"/>
      <point x="367.0" y="234.0"/>
      <point x="485.0" y="206.0" type="curve" smooth="yes"/>
      <point x="608.0" y="178.0"/>
      <point x="673.0" y="265.5"/>
      <point x="695.0" y="463.0" type="curve" smooth="yes"/>
      <point x="717.5" y="657.5"/>
      <point x="683.5" y="774.5"/>
      <point x="579.0" y="803.0" type="curve" smooth="yes"/>
      <point x="474.5" y="832.0"/>
      <point x="431.0" y="780.5"/>
    </contour>
  </outline>
</glyph>
<glyph name="one.deva" format="1">
  <advance width="1066.0"/>
  <unicode hex="0031"/>
  <outline>
    <contour>
      <point x="731.0" y="0.0" type="line"/>
      <point x="506.5" y="0.0" type="line"/>
      <point x="506.5" y="827.5" type="line"/>
      <point x="506.5" y="913.0"/>
      <point x="509.0" y="997.0"/>
      <point x="514.0" y="1079.0" type="curve"/>
      <point x="503.0" y="1065.5"/>
      <point x="475.0" y="1038.0"/>
      <point x="458.5" y="1023.5" type="curve"/>
      <point x="454.0" y="1019.5"/>
      <point x="333.0" y="921.5"/>
      <point x="245.0" y="853.0" type="curve"/>
      <point x="127.5" y="998.0" type="line"/>
      <point x="531.5" y="1316.0" type="line"/>
      <point x="731.0" y="1316.0" type="line"/>
    </contour>
  </outline>
</glyph>
<glyph name="four.deva" format="1">
  <advance width="1066.0"/>
  <unicode hex="0034"/>
  <outline>
    <contour>
      <point x="1039.5" y="295.5" type="line"/>
      <point x="853.5" y="295.5" type="line"/>
      <point x="853.5" y="0.0" type="line"/>
      <point x="635.5" y="0.0" type="line"/>
      <point x="635.5" y="295.5" type="line"/>
      <point x="35.0" y="295.5" type="line"/>
      <point x="35.0" y="456.0" type="line"/>
      <point x="635.0" y="1319.5" type="line"/>
      <point x="853.5" y="1319.5" type="line"/>
      <point x="853.5" y="466.5" type="line"/>
      <point x="1039.5" y="466.5" type="line"/>
    </contour>
    <contour>
      <point x="635.5" y="466.5" type="curve"/>
      <point x="635.5" y="731.0" type="line"/>
      <point x="635.5" y="836.0"/>
      <point x="638.0" y="931.5"/>
      <point x="643.5" y="1017.5" type="curve"/>
      <point x="644.5" y="1042.0"/>
      <point x="642.0" y="1055.0"/>
      <point x="642.5" y="1056.5" type="curve"/>
      <point x="636.5" y="1045.0"/>
      <point x="613.0" y="1017.0"/>
      <point x="582.0" y="971.5" type="curve"/>
      <point x="572.0" y="948.0"/>
      <point x="328.5" y="595.0"/>
      <point x="315.5" y="575.0" type="curve"/>
      <point x="315.5" y="575.0"/>
      <point x="527.0" y="466.5"/>
    </contour>
  </outline>
</glyph>
<glyph name="nine.deva" format="1">
  <advance width="1066.0"/>
  <unicode hex="0039"/>
  <outline>
    <contour>
      <point x="976.0" y="736.0" type="curve"/>
      <point x="977.0" y="346.5"/>
      <point x="841.5" y="124.0"/>
      <point x="602.5" y="68.5" type="curve"/>
      <point x="515.5" y="11.0"/>
      <point x="398.5" y="-14.0"/>
      <point x="249.5" y="-6.5" type="curve"/>
      <point x="209.5" y="-6.5"/>
      <point x="179.0" y="34.0"/>
      <point x="158.0" y="37.0" type="curve"/>
      <point x="171.0" y="32.5"/>
      <point x="186.5" y="170.5"/>
      <point x="204.5" y="168.0" type="curve"/>
      <point x="248.5" y="161.0"/>
      <point x="288.0" y="157.5"/>
      <point x="323.5" y="157.5" type="curve" smooth="yes"/>
      <point x="598.5" y="157.5"/>
      <point x="755.5" y="317.0"/>
      <point x="771.0" y="636.0" type="curve"/>
      <point x="760.5" y="636.0" type="line"/>
      <point x="705.0" y="556.5"/>
      <point x="630.0" y="509.0"/>
      <point x="552.5" y="499.5" type="curve" smooth="yes"/>
      <point x="408.0" y="480.0"/>
      <point x="305.0" y="539.5"/>
      <point x="255.5" y="663.5" type="curve" smooth="yes"/>
      <point x="198.5" y="729.5"/>
      <point x="172.5" y="802.0"/>
      <point x="178.0" y="880.5" type="curve" smooth="yes"/>
      <point x="183.5" y="959.0"/>
      <point x="216.0" y="1032.0"/>
      <point x="275.5" y="1099.0" type="curve"/>
      <point x="405.0" y="1174.5"/>
      <point x="511.5" y="1120.5"/>
    </contour>
    <contour>
      <point x="513.5" y="1151.0" type="curve" smooth="yes"/>
      <point x="426.5" y="1151.0"/>
      <point x="362.5" y="1108.0"/>
      <point x="334.0" y="1014.0" type="curve" smooth="yes"/>
      <point x="306.0" y="933.0"/>
      <point x="312.5" y="858.0"/>
      <point x="356.0" y="802.5" type="curve" smooth="yes"/>
      <point x="375.5" y="698.0"/>
      <point x="446.0" y="650.0"/>
      <point x="558.0" y="664.0" type="curve"/>
      <point x="662.5" y="675.0"/>
      <point x="752.0" y="768.5"/>
      <point x="750.0" y="857.5" type="curve"/>
      <point x="750.0" y="919.0"/>
      <point x="736.5" y="975.0"/>
      <point x="709.0" y="1024.5" type="curve" smooth="yes"/>
      <point x="667.5" y="1105.5"/>
      <point x="599.5" y="1151.0"/>
    </contour>
  </outline>
</glyph>
<glyph name="colon.deva" format="1">
  <advance width="485.5"/>
  <unicode hex="003A"/>
  <outline>
    <contour>
      <point x="111.5" y="109.5" type="curve" smooth="yes"/>
      <point x="111.5" y="194.5"/>
      <point x="157.0" y="240.0"/>
      <point x="243.5" y="240.0" type="curve" smooth="yes"/>
      <point x="327.5" y="240.0"/>
      <point x="373.0" y="194.5"/>
      <point x="373.0" y="109.5" type="curve" smooth="yes"/>
      <point x="373.0" y="26.0"/>
      <point x="325.5" y="-20.5"/>
      <point x="243.5" y="-20.5" type="curve" smooth="yes"/>
      <point x="160.0" y="-20.5"/>
      <point x="111.5" y="25.5"/>
    </contour>
    <contour>
      <point x="111.5" y="867.0" type="curve" smooth="yes"/>
      <point x="111.5" y="951.0"/>
      <point x="157.5" y="997.0"/>
      <point x="243.5" y="997.0" type="curve" smooth="yes"/>
      <point x="327.5" y="997.0"/>
      <point x="373.0" y="951.0"/>
      <point x="373.0" y="867.0" type="curve" smooth="yes"/>
      <point x="373.0" y="781.0"/>
      <point x="322.0" y="736.5"/>
      <point x="243.5" y="736.5" type="curve" smooth="yes"/>
      <point x="161.5" y="736.5"/>
      <point x="111.5" y="781.0"/>
    </contour>
  </outline>
</glyph>
<glyph name="semicolon.deva" format="1">
  <advance width="492.5"/>
  <unicode hex="003B"/>
  <outline>
    <contour>
      <point x="360.5" y="241.5" type="line"/>
      <point x="372.0" y="221.5" type="line"/>
      <point x="320.0" y="27.5"/>
      <point x="267.5" y="-128.5"/>
      <point x="214.5" y="-247.5" type="curve"/>
      <point x="59.5" y="-247.5" type="line"/>
      <point x="76.5" y="-176.5"/>
      <point x="95.0" y="-93.0"/>
      <point x="113.5" y="3.0" type="curve" smooth="yes"/>
      <point x="132.5" y="99.0"/>
      <point x="145.5" y="178.0"/>
      <point x="153.5" y="241.5" type="curve"/>
    </contour>
    <contour>
      <point x="114.5" y="867.0" type="curve" smooth="yes"/>
      <point x="114.5" y="951.0"/>
      <point x="159.0" y="997.0"/>
      <point x="245.5" y="997.0" type="curve" smooth="yes"/>
      <point x="330.0" y="997.0"/>
      <point x="375.5" y="950.5"/>
      <point x="375.5" y="867.0" type="curve" smooth="yes"/>
      <point x="375.5" y="781.0"/>
      <point x="325.5" y="736.5"/>
      <point x="245.5" y="736.5" type="curve" smooth="yes"/>
      <point x="163.5" y="736.5"/>
      <point x="114.5" y="780.5"/>
    </contour>
  </outline>
</glyph>
<glyph name="equal.deva" format="1">
  <advance width="1047.5"/>
  <unicode hex="003D"/>
  <outline>
    <contour>
      <point x="82.5" y="764.5" type="line"/>
      <point x="82.5" y="922.5" type="line"/>
      <point x="965.5" y="922.5" type="line"/>
      <point x="965.5" y="764.5" type="line"/>
    </contour>
    <contour>
      <point x="82.5" y="375.5" type="line"/>
      <point x="82.5" y="534.5" type="line"/>
      <point x="965.5" y="534.5" type="line"/>
      <point x="965.5" y="375.5" type="line"/>
    </contour>
  </outline>
</glyph>
<glyph name="at" format="1">
  <advance width="1643.0"/>
  <unicode hex="0040"/>
  <outline>
    <contour>
      <point x="1555.5" y="666.0" type="curve"/>
      <point x="1555.5" y="555.0"/>
      <point x="1534.5" y="461.0"/>
      <point x="1492.5" y="383.0" type="curve" smooth="yes"/>
      <point x="1437.0" y="269.0"/>
      <point x="1346.0" y="204.5"/>
      <point x="1233.5" y="204.5" type="curve" smooth="yes"/>
      <point x="1132.5" y="204.5"/>
      <point x="1057.5" y="258.5"/>
      <point x="1030.5" y="348.5" type="curve"/>
      <point x="1022.0" y="348.5" type="line"/>
      <point x="964.0" y="253.0"/>
      <point x="874.5" y="204.5"/>
      <point x="764.0" y="204.5" type="curve" smooth="yes"/>
      <point x="565.5" y="204.5"/>
      <point x="454.0" y="332.5"/>
      <point x="454.0" y="552.0" type="curve" smooth="yes"/>
      <point x="452.0" y="739.5"/>
      <point x="563.5" y="878.0"/>
      <point x="738.5" y="914.5" type="curve" smooth="yes"/>
      <point x="799.5" y="953.0"/>
      <point x="873.0" y="970.0"/>
      <point x="960.0" y="965.0" type="curve" smooth="yes"/>
      <point x="1031.0" y="960.0"/>
      <point x="1100.5" y="947.5"/>
      <point x="1169.5" y="926.5" type="curve"/>
      <point x="1150.0" y="528.0" type="line"/>
      <point x="1149.0" y="472.0" type="line"/>
      <point x="1149.0" y="384.0"/>
      <point x="1176.0" y="339.5"/>
      <point x="1239.5" y="339.5" type="curve" smooth="yes"/>
      <point x="1286.0" y="339.5"/>
      <point x="1324.0" y="370.0"/>
      <point x="1353.0" y="430.5" type="curve" smooth="yes"/>
      <point x="1382.5" y="491.5"/>
      <point x="1397.5" y="570.0"/>
      <point x="1397.5" y="666.5" type="curve"/>
      <point x="1400.0" y="912.0"/>
      <point x="1259.0" y="1085.0"/>
      <point x="1048.5" y="1121.5" type="curve"/>
      <point x="801.5" y="1163.5"/>
      <point x="602.0" y="1033.0"/>
      <point x="530.0" y="820.5" type="curve"/>
      <point x="359.0" y="725.5"/>
      <point x="274.5" y="534.5"/>
      <point x="326.5" y="303.5" type="curve" smooth="yes"/>
      <point x="377.0" y="174.5"/>
      <point x="469.5" y="89.5"/>
      <point x="604.0" y="48.0" type="curve" smooth="yes"/>
      <point x="674.5" y="6.5"/>
      <point x="763.5" y="-11.5"/>
      <point x="870.0" y="-6.0" type="curve" smooth="yes"/>
      <point x="968.0" y="-0.5"/>
      <point x="1087.5" y="25.5"/>
      <point x="1205.5" y="68.5" type="curve"/>
      <point x="1205.5" y="-79.0" type="line"/>
      <point x="1077.5" y="-131.5"/>
      <point x="940.5" y="-158.0"/>
      <point x="794.5" y="-158.0" type="curve" smooth="yes"/>
      <point x="573.5" y="-158.0"/>
      <point x="400.0" y="-97.5"/>
      <point x="275.0" y="23.0" type="curve" smooth="yes"/>
      <point x="150.0" y="144.5"/>
      <point x="88.0" y="312.5"/>
      <point x="88.0" y="527.0" type="curve" smooth="yes"/>
      <point x="88.0" y="679.5"/>
      <point x="121.0" y="816.5"/>
      <point x="188.0" y="938.0" type="curve" smooth="yes"/>
      <point x="255.0" y="1060.0"/>
      <point x="348.0" y="1153.5"/>
      <point x="468.0" y="1220.0" type="curve" smooth="yes"/>
      <point x="588.0" y="1286.5"/>
      <point x="724.0" y="1320.0"/>
      <point x="875.5" y="1320.0" type="curve"/>
      <point x="1140.0" y="1322.5"/>
      <point x="1337.5" y="1176.0"/>
    </contour>
    <contour>
      <point x="627.0" y="554.0" type="curve" smooth="yes"/>
      <point x="627.0" y="408.0"/>
      <point x="682.5" y="339.5"/>
      <point x="790.0" y="339.5" type="curve" smooth="yes"/>
      <point x="889.5" y="339.5"/>
      <point x="947.0" y="400.5"/>
      <point x="963.0" y="522.5" type="curve" smooth="yes"/>
      <point x="974.0" y="541.0"/>
      <point x="988.5" y="705.5"/>
      <point x="992.0" y="753.0" type="curve"/>
      <point x="968.5" y="761.0"/>
      <point x="944.0" y="835.0"/>
      <point x="909.5" y="835.0" type="curve" smooth="yes"/>
      <point x="853.0" y="836.5"/>
      <point x="807.0" y="822.0"/>
      <point x="772.0" y="791.5" type="curve" smooth="yes"/>
      <point x="681.0" y="761.0"/>
      <point x="627.0" y="677.5"/>
    </contour>
  </outline>
</glyph>
<glyph name="A" format="1">
  <advance width="1222.0"/>
  <unicode hex="0041"/>
  <outline>
    <contour>
      <point x="884.5" y="232.0" type="line"/>
      <point x="585.0" y="355.5" type="line"/>
      <point x="279.5" y="123.5" type="line"/>
      <point x="195.5" y="0.0" type="line"/>
      <point x="264.5" y="660.5" type="line"/>
      <point x="508.5" y="1321.0" type="line"/>
      <point x="1005.0" y="660.5" type="line"/>
      <point x="1170.5" y="0.0" type="line"/>
    </contour>
    <contour>
      <point x="565.0" y="542.5" type="curve"/>
      <point x="771.5" y="650.5" type="line"/>
      <point x="765.0" y="674.5"/>
      <point x="667.5" y="942.5"/>
      <point x="658.0" y="980.5" type="curve"/>
      <point x="641.0" y="1037.5"/>
      <point x="626.0" y="1090.5"/>
      <point x="612.5" y="1140.0" type="curve"/>
      <point x="602.0" y="1096.0"/>
      <point x="587.5" y="1045.0"/>
      <point x="570.0" y="986.5" type="curve" smooth="yes"/>
      <point x="562.0" y="951.5"/>
      <point x="452.5" y="646.0"/>
    </contour>
  </outline>
</glyph>
<glyph name="B" format="1">
  <advance width="1199.0"/>
  <unicode hex="0042"/>
  <outline>
    <contour>
      <point x="164.0" y="1316.0" type="curve"/>
      <point x="574.0" y="1316.0" type="line"/>
      <point x="915.0" y="1316.0"/>
      <point x="1074.5" y="1209.0"/>
      <point x="1074.5" y="985.5" type="curve" smooth="yes"/>
      <point x="1074.5" y="872.0"/>
      <point x="1017.5" y="787.0"/>
      <point x="909.0" y="747.0" type="curve"/>
      <point x="890.5" y="721.0"/>
      <point x="865.5" y="701.0"/>
      <point x="834.5" y="693.5" type="curve"/>
      <point x="940.0" y="678.0"/>
      <point x="987.5" y="624.0"/>
      <point x="987.5" y="533.5" type="curve" smooth="yes"/>
      <point x="1069.5" y="390.5"/>
      <point x="1020.5" y="273.0"/>
      <point x="872.5" y="192.5" type="curve" smooth="yes"/>
      <point x="872.5" y="133.0"/>
      <point x="648.5" y="86.0"/>
      <point x="603.5" y="51.5" type="curve"/>
      <point x="558.5" y="17.0"/>
      <point x="497.5" y="658.0"/>
    </contour>
    <contour>
      <point x="388.0" y="770.5" type="line"/>
      <point x="586.5" y="770.5" type="line"/>
      <point x="760.5" y="770.5"/>
      <point x="843.5" y="831.0"/>
      <point x="843.5" y="960.5" type="curve" smooth="yes"/>
      <point x="843.5" y="1085.0"/>
      <point x="752.0" y="1141.0"/>
      <point x="571.0" y="1141.0" type="curve" smooth="yes"/>
      <point x="388.0" y="1141.0" type="line"/>
    </contour>
    <contour>
      <point x="388.0" y="600.0" type="line"/>
      <point x="388.0" y="177.5" type="line"/>
      <point x="605.5" y="177.5" type="line"/>
      <point x="782.5" y="177.5"/>
      <point x="871.0" y="250.5"/>
      <point x="871.0" y="396.5" type="curve" smooth="yes"/>
      <point x="871.0" y="531.0"/>
      <point x="776.5" y="600.0"/>
      <point x="592.0" y="600.0" type="curve" smooth="yes"/>
    </contour>
  </outline>
</glyph>
<glyph name="D" format="1">
  <advance width="1327.0"/>
  <unicode hex="0044"/>
  <outline>
    <contour>
      <point x="1222.0" y="678.0" type="curve" smooth="yes"/>
      <point x="1222.0" y="347.5"/>
      <point x="1074.0" y="148.5"/>
      <point x="789.0" y="89.0" type="curve" smooth="yes"/>
      <point x="728.5" y="29.5"/>
      <point x="486.5" y="0.0"/>
      <point x="377.0" y="0.0" type="curve"/>
      <point x="164.0" y="658.0" type="line"/>
      <point x="342.0" y="1316.0" type="line"/>
      <point x="552.0" y="1316.0"/>
      <point x="891.5" y="1203.5"/>
    </contour>
    <contour>
      <point x="987.5" y="670.0" type="curve" smooth="yes"/>
      <point x="987.5" y="978.5"/>
      <point x="843.5" y="1132.0"/>
      <point x="560.5" y="1132.0" type="curve" smooth="yes"/>
      <point x="388.0" y="1132.0" type="line"/>
      <point x="388.0" y="186.5" type="line"/>
      <point x="536.5" y="186.5" type="line"/>
      <point x="841.0" y="186.5"/>
      <point x="987.5" y="346.0"/>
    </contour>
  </outline>
</glyph>
<glyph name="F" format="1">
  <advance width="959.5"/>
  <unicode hex="0046"/>
  <outline>
    <contour>
      <point x="385.0" y="0.0" type="line"/>
      <point x="164.0" y="0.0" type="line"/>
      <point x="164.0" y="1316.0" type="line"/>
      <point x="913.5" y="1316.0" type="line"/>
      <point x="913.5" y="1130.5" type="line"/>
      <point x="385.0" y="1130.5" type="line"/>
      <point x="385.0" y="726.0" type="line"/>
      <point x="879.0" y="726.0" type="line"/>
      <point x="879.0" y="541.0" type="line"/>
      <point x="385.0" y="541.0" type="line"/>
    </contour>
  </outline>
</glyph>
<glyph name="H" format="1">
  <advance width="1369.0"/>
  <unicode hex="0048"/>
  <outline>
    <contour>
      <point x="1204.5" y="0.0" type="line"/>
      <point x="980.0" y="0.0" type="line"/>
      <point x="980.0" y="591.5" type="line"/>
      <point x="388.5" y="591.5" type="line"/>
      <point x="388.5" y="0.0" type="line"/>
      <point x="164.0" y="0.0" type="line"/>
      <point x="164.0" y="1316.0" type="line"/>
      <point x="388.5" y="1316.0" type="line"/>
      <point x="388.5" y="780.0" type="line"/>
      <point x="980.0" y="780.0" type="line"/>
      <point x="980.0" y="1316.0" type="line"/>
      <point x="1204.5" y="1316.0" type="line"/>
    </contour>
  </outline>
</glyph>
<glyph name="J" format="1">
  <advance width="552.0"/>
  <unicode hex="004A"/>
  <outline>
    <contour>
      <point x="4.5" y="-372.5" type="curve" smooth="yes"/>
      <point x="-55.5" y="-372.5"/>
      <point x="-109.5" y="-365.5"/>
      <point x="-156.0" y="-351.0" type="curve"/>
      <point x="-156.0" y="-173.5" type="line"/>
      <point x="-113.0" y="-183.0"/>
      <point x="-69.5" y="-192.0"/>
      <point x="-23.0" y="-192.0" type="curve" smooth="yes"/>
      <point x="79.0" y="-192.0"/>
      <point x="136.0" y="-143.5"/>
      <point x="148.5" y="-46.5" type="curve" smooth="yes"/>
      <point x="161.0" y="-29.0"/>
      <point x="167.5" y="664.0"/>
      <point x="167.5" y="707.0" type="curve"/>
      <point x="213.5" y="1316.0" type="line"/>
      <point x="392.5" y="658.0" type="line"/>
      <point x="392.5" y="547.5"/>
      <point x="341.0" y="-101.5"/>
    </contour>
  </outline>
</glyph>
<glyph name="K" format="1">
  <advance width="1168.5"/>
  <unicode hex="004B"/>
  <outline>
    <contour>
      <point x="1168.5" y="0.0" type="line"/>
      <point x="911.5" y="0.0" type="line"/>
      <point x="529.5" y="599.0" type="line"/>
      <point x="388.5" y="490.0" type="line"/>
      <point x="388.5" y="0.0" type="line"/>
      <point x="164.0" y="0.0" type="line"/>
      <point x="164.0" y="1316.0" type="line"/>
      <point x="388.5" y="1316.0" type="line"/>
      <point x="388.5" y="688.0" type="line"/>
      <point x="397.5" y="705.5"/>
      <point x="488.5" y="807.0"/>
      <point x="516.0" y="845.5" type="curve"/>
      <point x="912.5" y="1316.0" type="line"/>
      <point x="1165.0" y="1316.0" type="line"/>
      <point x="688.0" y="743.0" type="line"/>
    </contour>
  </outline>
</glyph>
<glyph name="L" format="1">
  <advance width="1009.5"/>
  <unicode hex="004C"/>
  <outline>
    <contour>
      <point x="164.0" y="0.0" type="line"/>
      <point x="164.0" y="1316.0" type="line"/>
      <point x="388.0" y="1316.0" type="line"/>
      <point x="388.0" y="186.5" type="line"/>
      <point x="954.5" y="186.5" type="line"/>
      <point x="954.5" y="0.0" type="line"/>
    </contour>
  </outline>
</glyph>
<glyph name="M" format="1">
  <advance width="1686.0"/>
  <unicode hex="004D"/>
  <outline>
    <contour>
      <point x="740.0" y="0.0" type="curve"/>
      <point x="360.0" y="1081.5" type="line"/>
      <point x="352.5" y="1081.5" type="line"/>
      <point x="361.5" y="963.5"/>
      <point x="365.5" y="862.5"/>
      <point x="365.5" y="778.5" type="curve" smooth="yes"/>
      <point x="365.5" y="0.0" type="line"/>
      <point x="164.0" y="0.0" type="line"/>
      <point x="164.0" y="1316.0" type="line"/>
      <point x="472.0" y="1316.0" type="line"/>
      <point x="842.5" y="270.0" type="line"/>
      <point x="848.5" y="270.0" type="line"/>
      <point x="1216.0" y="1316.0" type="line"/>
      <point x="1523.0" y="1316.0" type="line"/>
      <point x="1523.0" y="0.0" type="line"/>
      <point x="1313.0" y="0.0" type="line"/>
      <point x="1313.0" y="787.0" type="line"/>
      <point x="1313.0" y="837.0"/>
      <point x="1315.0" y="889.5"/>
      <point x="1319.0" y="945.0" type="curve"/>
      <point x="1319.5" y="963.5"/>
      <point x="1318.0" y="1008.0"/>
      <point x="1321.5" y="1079.5" type="curve"/>
      <point x="1071.0" y="473.0" type="line"/>
      <point x="1071.0" y="473.0"/>
      <point x="909.5" y="0.0"/>
    </contour>
  </outline>
</glyph>
<glyph name="N" format="1">
  <advance width="1433.0"/>
  <unicode hex="004E"/>
  <outline>
    <contour>
      <point x="1269.0" y="0.0" type="line"/>
      <point x="989.5" y="0.0" type="line"/>
      <point x="359.5" y="1047.5" type="line"/>
      <point x="352.0" y="1047.5" type="line"/>
      <point x="361.0" y="905.0"/>
      <point x="365.5" y="797.0"/>
      <point x="365.5" y="723.0" type="curve" smooth="yes"/>
      <point x="365.5" y="0.0" type="line"/>
      <point x="164.0" y="0.0" type="line"/>
      <point x="164.0" y="1316.0" type="line"/>
      <point x="442.5" y="1316.0" type="line"/>
      <point x="1071.0" y="275.0" type="line"/>
      <point x="1076.5" y="275.0" type="line"/>
      <point x="1069.5" y="395.5"/>
      <point x="1066.0" y="500.0"/>
      <point x="1066.0" y="589.0" type="curve" smooth="yes"/>
      <point x="1066.0" y="1316.0" type="line"/>
      <point x="1269.0" y="1316.0" type="line"/>
    </contour>
  </outline>
</glyph>
<glyph name="T" format="1">
  <advance width="1027.5"/>
  <unicode hex="0054"/>
  <outline>
    <contour>
      <point x="626.0" y="0.0" type="line"/>
      <point x="401.5" y="0.0" type="line"/>
      <point x="401.5" y="1127.0" type="line"/>
      <point x="27.5" y="1127.0" type="line"/>
      <point x="27.5" y="1316.0" type="line"/>
      <point x="1000.0" y="1316.0" type="line"/>
      <point x="1000.0" y="1127.0" type="line"/>
      <point x="626.0" y="1127.0" type="line"/>
    </contour>
  </outline>
</glyph>
<glyph name="V" format="1">
  <advance width="1171.5"/>
  <unicode hex="0056"/>
  <outline>
    <contour>
      <point x="922.5" y="1316.0" type="curve"/>
      <point x="1171.5" y="1316.0" type="line"/>
      <point x="709.5" y="0.0" type="line"/>
      <point x="459.5" y="0.0" type="line"/>
      <point x="0.0" y="1316.0" type="line"/>
      <point x="249.0" y="1316.0" type="line"/>
      <point x="504.0" y="534.5" type="line"/>
      <point x="548.0" y="393.0"/>
      <point x="575.0" y="291.0"/>
      <point x="585.5" y="227.5" type="curve"/>
      <point x="593.5" y="271.0"/>
      <point x="609.5" y="332.0"/>
      <point x="633.5" y="411.0" type="curve" smooth="yes"/>
      <point x="640.0" y="442.5"/>
      <point x="826.5" y="962.5"/>
    </contour>
  </outline>
</glyph>
<glyph name="W" format="1">
  <advance width="1779.5"/>
  <unicode hex="0057"/>
  <outline>
    <contour>
      <point x="1399.0" y="0.0" type="curve"/>
      <point x="1151.0" y="0.0" type="line"/>
      <point x="943.5" y="794.0" type="line"/>
      <point x="928.5" y="847.5"/>
      <point x="914.5" y="906.0"/>
      <point x="902.0" y="968.0" type="curve"/>
      <point x="891.0" y="977.5"/>
      <point x="879.5" y="977.5"/>
      <point x="867.5" y="967.5" type="curve" smooth="yes"/>
      <point x="856.5" y="914.5"/>
      <point x="804.5" y="717.0"/>
      <point x="711.0" y="375.0" type="curve"/>
      <point x="705.5" y="346.0"/>
      <point x="662.0" y="319.5"/>
      <point x="656.5" y="295.0" type="curve"/>
      <point x="410.0" y="658.0" type="line"/>
      <point x="248.0" y="658.0" type="line"/>
      <point x="200.5" y="892.0" type="line"/>
      <point x="218.0" y="823.0"/>
      <point x="402.5" y="779.0"/>
      <point x="410.5" y="731.0" type="curve"/>
      <point x="418.0" y="771.5"/>
      <point x="504.5" y="503.5"/>
      <point x="528.0" y="586.5" type="curve" smooth="yes"/>
      <point x="544.0" y="513.5"/>
      <point x="667.5" y="855.0"/>
      <point x="673.5" y="812.0" type="curve"/>
      <point x="677.5" y="842.5"/>
      <point x="735.0" y="884.0"/>
      <point x="745.0" y="936.5" type="curve"/>
      <point x="755.0" y="989.0"/>
      <point x="896.5" y="574.5"/>
      <point x="905.5" y="609.0" type="curve"/>
      <point x="921.0" y="556.0"/>
      <point x="990.0" y="762.5"/>
      <point x="996.5" y="730.0" type="curve"/>
      <point x="1000.5" y="751.5"/>
      <point x="1170.0" y="774.5"/>
      <point x="1176.0" y="799.0" type="curve" smooth="yes"/>
      <point x="1182.0" y="823.5"/>
      <point x="1285.0" y="746.5"/>
      <point x="1371.5" y="1067.0" type="curve"/>
      <point x="1381.0" y="1027.0"/>
      <point x="1436.5" y="981.0"/>
      <point x="1446.5" y="928.5" type="curve"/>
      <point x="1456.5" y="876.5"/>
      <point x="1281.5" y="179.5"/>
    </contour>
  </outline>
</glyph>
<glyph name="X" format="1">
  <advance width="1162.5"/>
  <unicode hex="0058"/>
  <outline>
    <contour>
      <point x="1159.5" y="0.0" type="line"/>
      <point x="901.0" y="0.0" type="line"/>
      <point x="579.0" y="512.5" type="line"/>
      <point x="254.0" y="0.0" type="line"/>
      <point x="2.0" y="0.0" type="line"/>
      <point x="441.5" y="679.5" type="line"/>
      <point x="35.0" y="1316.0" type="line"/>
      <point x="284.0" y="1316.0" type="line"/>
      <point x="580.0" y="830.5" type="line"/>
      <point x="875.0" y="1316.0" type="line"/>
      <point x="1127.0" y="1316.0" type="line"/>
      <point x="715.0" y="666.5" type="line"/>
    </contour>
  </outline>
</glyph>
<glyph name="Z" format="1">
  <advance width="1094.0"/>
  <unicode hex="005A"/>
  <outline>
    <contour>
      <point x="1034.0" y="0.0" type="line"/>
      <point x="64.5" y="0.0" type="line"/>
      <point x="64.5" y="144.0" type="line"/>
      <point x="734.5" y="1129.0" type="line"/>
      <point x="88.5" y="1129.0" type="line"/>
      <point x="88.5" y="1316.0" type="line"/>
      <point x="1016.5" y="1316.0" type="line"/>
      <point x="1016.5" y="1172.0" type="line"/>
      <point x="345.5" y="186.5" type="line"/>
      <point x="1034.0" y="186.5" type="line"/>
    </contour>
  </outline>
</glyph>
<glyph name="bracketleft.deva" format="1">
  <advance width="593.0"/>
  <unicode hex="005B"/>
  <outline>
    <contour>
      <point x="548.0" y="-301.0" type="line"/>
      <point x="131.0" y="-301.0" type="line"/>
      <point x="131.0" y="1334.5" type="line"/>
      <point x="548.0" y="1334.5" type="line"/>
      <point x="548.0" y="1177.5" type="line"/>
      <point x="318.0" y="1177.5" type="line"/>
      <point x="318.0" y="-143.5" type="line"/>
      <point x="548.0" y="-143.5" type="line"/>
    </contour>
  </outline>
</glyph>
<glyph name="bracketright.deva" format="1">
  <advance width="593.0"/>
  <unicode hex="005D"/>
  <outline>
    <contour>
      <point x="44.0" y="-143.5" type="line"/>
      <point x="274.5" y="-143.5" type="line"/>
      <point x="274.5" y="1177.5" type="line"/>
      <point x="44.0" y="1177.5" type="line"/>
      <point x="44.0" y="1334.5" type="line"/>
      <point x="461.5" y="1334.5" type="line"/>
      <point x="461.5" y="-301.0" type="line"/>
      <point x="44.0" y="-301.0" type="line"/>
    </contour>
  </outline>
</glyph>
<glyph name="asciicircum.deva" format="1">
  <advance width="1009.5"/>
  <unicode hex="005E"/>
  <outline>
    <contour>
      <point x="32.5" y="478.5" type="curve"/>
      <point x="440.0" y="1323.5" type="line"/>
      <point x="547.0" y="1323.5" type="line"/>
      <point x="982.5" y="478.5" type="line"/>
      <point x="804.5" y="478.5" type="line"/>
      <point x="496.5" y="1094.0" type="line"/>
      <point x="262.0" y="607.0" type="line"/>
      <point x="262.0" y="607.0"/>
      <point x="161.0" y="478.5"/>
    </contour>
  </outline>
</glyph>
<glyph name="underscore.deva" format="1">
  <advance width="840.0"/>
  <unicode hex="005F"/>
  <outline>
    <contour>
      <point x="843.0" y="-290.0" type="line"/>
      <point x="-4.0" y="-290.0" type="line"/>
      <point x="-4.0" y="-143.0" type="line"/>
      <point x="843.0" y="-143.0" type="line"/>
    </contour>
  </outline>
</glyph>
<glyph name="grave" format="1">
  <advance width="1083.5"/>
  <unicode hex="0060"/>
  <outline>
    <contour>
      <point x="662.0" y="1241.0" type="line"/>
      <point x="641.5" y="1254.0"/>
      <point x="580.0" y="1275.0"/>
      <point x="539.5" y="1303.0" type="curve"/>
      <point x="471.0" y="1355.5"/>
      <point x="408.0" y="1406.5"/>
      <point x="352.0" y="1456.0" type="curve"/>
      <point x="324.5" y="1484.0"/>
      <point x="306.0" y="1514.5"/>
      <point x="296.0" y="1528.5" type="curve"/>
      <point x="489.5" y="1536.0" type="line"/>
      <point x="505.0" y="1515.0"/>
      <point x="598.5" y="1480.5"/>
      <point x="644.0" y="1431.5" type="curve"/>
      <point x="652.0" y="1417.0"/>
      <point x="693.5" y="1366.0"/>
      <point x="715.0" y="1337.5" type="curve" smooth="yes"/>
      <point x="737.0" y="1309.5"/>
      <point x="758.0" y="1271.0"/>
      <point x="779.0" y="1248.0" type="curve"/>
    </contour>
  </outline>
</glyph>
<glyph name="f" format="1">
  <advance width="657.0"/>
  <unicode hex="0066"/>
  <outline>
    <contour>
      <point x="635.5" y="828.5" type="curve"/>
      <point x="412.0" y="828.5" type="line"/>
      <point x="412.0" y="0.0" type="line"/>
      <point x="191.5" y="0.0" type="line"/>
      <point x="191.5" y="828.5" type="line"/>
      <point x="33.0" y="828.5" type="line"/>
      <point x="33.0" y="941.0" type="line"/>
      <point x="195.5" y="1000.5" type="line"/>
      <point x="195.5" y="1047.0" type="line"/>
      <point x="195.5" y="1234.5"/>
      <point x="250.0" y="1336.5"/>
      <point x="377.5" y="1366.0" type="curve" smooth="yes"/>
      <point x="432.0" y="1395.5"/>
      <point x="503.0" y="1406.0"/>
      <point x="590.5" y="1398.0" type="curve"/>
      <point x="614.0" y="1398.0"/>
      <point x="626.0" y="1357.5"/>
      <point x="646.5" y="1354.0" type="curve"/>
      <point x="643.5" y="1358.0"/>
      <point x="644.0" y="1355.5"/>
      <point x="648.0" y="1346.5" type="curve" smooth="yes"/>
      <point x="578.0" y="1346.5"/>
      <point x="514.5" y="1194.0"/>
      <point x="514.5" y="1101.5" type="curve" smooth="yes"/>
      <point x="493.0" y="1107.5"/>
      <point x="471.5" y="1065.0"/>
      <point x="451.0" y="1065.0" type="curve"/>
      <point x="423.5" y="1065.0"/>
      <point x="527.0" y="1049.0"/>
      <point x="527.0" y="1012.5" type="curve"/>
      <point x="527.0" y="1012.5"/>
      <point x="527.0" y="960.5"/>
    </contour>
  </outline>
</glyph>
<glyph name="g" format="1">
  <advance width="1040.5"/>
  <unicode hex="0067"/>
  <outline>
    <contour>
      <point x="1005.5" y="999.0" type="curve"/>
      <point x="1005.5" y="883.0" type="line"/>
      <point x="834.0" y="851.0" type="line"/>
      <point x="870.5" y="800.0"/>
      <point x="889.0" y="743.0"/>
      <point x="889.0" y="679.5" type="curve" smooth="yes"/>
      <point x="889.0" y="522.5"/>
      <point x="796.5" y="421.0"/>
      <point x="611.5" y="391.5" type="curve" smooth="yes"/>
      <point x="561.0" y="362.0"/>
      <point x="504.0" y="348.5"/>
      <point x="440.5" y="351.0" type="curve" smooth="yes"/>
      <point x="413.5" y="343.5"/>
      <point x="396.0" y="337.0"/>
      <point x="387.0" y="332.0" type="curve"/>
      <point x="351.5" y="296.0"/>
      <point x="363.5" y="260.0"/>
      <point x="409.0" y="232.0" type="curve" smooth="yes"/>
      <point x="409.0" y="200.5"/>
      <point x="516.0" y="187.0"/>
      <point x="571.5" y="187.0" type="curve" smooth="yes"/>
      <point x="686.0" y="187.0"/>
      <point x="828.5" y="139.0"/>
      <point x="828.5" y="42.5" type="curve"/>
      <point x="935.0" y="-19.5"/>
      <point x="966.5" y="-111.0"/>
      <point x="913.5" y="-229.5" type="curve" smooth="yes"/>
      <point x="860.5" y="-367.5"/>
      <point x="699.5" y="-443.0"/>
      <point x="448.5" y="-443.0" type="curve" smooth="yes"/>
      <point x="181.5" y="-443.0"/>
      <point x="29.0" y="-343.0"/>
      <point x="29.0" y="-168.0" type="curve" smooth="yes"/>
      <point x="29.0" y="-39.5"/>
      <point x="112.0" y="45.5"/>
      <point x="259.0" y="79.5" type="curve"/>
      <point x="214.0" y="98.0"/>
      <point x="180.5" y="133.5"/>
      <point x="169.0" y="178.0" type="curve" smooth="yes"/>
      <point x="157.5" y="225.0"/>
      <point x="173.0" y="268.5"/>
      <point x="215.0" y="308.0" type="curve"/>
      <point x="157.5" y="347.5"/>
      <point x="129.0" y="414.5"/>
      <point x="137.5" y="491.0" type="curve" smooth="yes"/>
      <point x="146.0" y="552.5"/>
      <point x="180.0" y="606.0"/>
      <point x="238.5" y="652.0" type="curve" smooth="yes"/>
      <point x="216.0" y="705.0"/>
      <point x="226.5" y="770.5"/>
      <point x="279.0" y="842.5" type="curve" smooth="yes"/>
      <point x="311.5" y="953.0"/>
      <point x="414.5" y="1014.5"/>
      <point x="572.5" y="1008.0" type="curve"/>
      <point x="582.0" y="1008.0"/>
      <point x="754.5" y="1007.0"/>
    </contour>
    <contour>
      <point x="225.0" y="-146.5" type="curve" smooth="yes"/>
      <point x="225.0" y="-242.0"/>
      <point x="309.0" y="-295.0"/>
      <point x="461.0" y="-295.0" type="curve" smooth="yes"/>
      <point x="632.0" y="-295.0"/>
      <point x="730.5" y="-248.5"/>
      <point x="756.0" y="-156.5" type="curve" smooth="yes"/>
      <point x="781.5" y="-86.5"/>
      <point x="756.5" y="-48.0"/>
      <point x="666.5" y="-31.5" type="curve" smooth="yes"/>
      <point x="666.5" y="-4.0"/>
      <point x="554.0" y="5.5"/>
      <point x="496.0" y="5.5" type="curve"/>
      <point x="406.5" y="5.5"/>
      <point x="292.5" y="-30.0"/>
    </contour>
    <contour>
      <point x="318.0" y="679.5" type="curve" smooth="yes"/>
      <point x="318.0" y="551.5"/>
      <point x="385.0" y="482.0"/>
      <point x="499.0" y="482.0" type="curve" smooth="yes"/>
      <point x="614.0" y="482.0"/>
      <point x="677.5" y="550.5"/>
      <point x="677.5" y="680.5" type="curve" smooth="yes"/>
      <point x="677.5" y="816.5"/>
      <point x="613.0" y="884.5"/>
      <point x="498.0" y="884.5" type="curve" smooth="yes"/>
      <point x="383.5" y="884.5"/>
      <point x="318.0" y="811.5"/>
    </contour>
  </outline>
</glyph>
<glyph name="h" format="1">
  <advance width="1161.0"/>
  <unicode hex="0068"/>
  <outline>
    <contour>
      <point x="804.5" y="0.0" type="curve"/>
      <point x="804.5" y="595.0" type="line"/>
      <point x="804.5" y="762.0"/>
      <point x="744.5" y="838.5"/>
      <point x="616.5" y="838.5" type="curve" smooth="yes"/>
      <point x="442.0" y="838.5"/>
      <point x="363.0" y="738.5"/>
      <point x="363.0" y="494.0" type="curve" smooth="yes"/>
      <point x="363.0" y="0.0" type="line"/>
      <point x="142.5" y="0.0" type="line"/>
      <point x="142.5" y="1400.0" type="line"/>
      <point x="363.0" y="1400.0" type="line"/>
      <point x="363.0" y="1078.0" type="line"/>
      <point x="363.0" y="1033.0"/>
      <point x="358.0" y="919.5"/>
      <point x="353.5" y="862.0" type="curve"/>
      <point x="365.0" y="862.0" type="line"/>
      <point x="435.5" y="973.0"/>
      <point x="534.5" y="1017.5"/>
      <point x="678.5" y="1017.5" type="curve" smooth="yes"/>
      <point x="846.5" y="1017.5"/>
      <point x="946.5" y="941.5"/>
      <point x="978.0" y="789.5" type="curve" smooth="yes"/>
      <point x="1009.5" y="757.0"/>
      <point x="1025.5" y="391.0"/>
      <point x="1025.5" y="331.5" type="curve"/>
      <point x="1025.5" y="331.5"/>
      <point x="981.5" y="0.0"/>
    </contour>
  </outline>
</glyph>
<glyph name="i" format="1">
  <advance width="508.0"/>
  <unicode hex="0069"/>
  <outline>
    <contour>
      <point x="364.0" y="0.0" type="line"/>
      <point x="143.5" y="0.0" type="line"/>
      <point x="143.5" y="999.0" type="line"/>
      <point x="364.0" y="999.0" type="line"/>
    </contour>
    <contour>
      <point x="132.5" y="1261.5" type="curve" smooth="yes"/>
      <point x="132.5" y="1343.5"/>
      <point x="169.5" y="1383.0"/>
      <point x="254.5" y="1383.0" type="curve" smooth="yes"/>
      <point x="338.5" y="1383.0"/>
      <point x="378.0" y="1341.0"/>
      <point x="378.0" y="1261.5" type="curve" smooth="yes"/>
      <point x="378.0" y="1183.5"/>
      <point x="335.5" y="1141.0"/>
      <point x="254.5" y="1141.0" type="curve" smooth="yes"/>
      <point x="173.0" y="1141.0"/>
      <point x="132.5" y="1181.0"/>
    </contour>
  </outline>
</glyph>
<glyph name="j" format="1">
  <advance width="507.5"/>
  <unicode hex="006A"/>
  <outline>
    <contour>
      <point x="64.0" y="-443.0" type="curve" smooth="yes"/>
      <point x="25.5" y="-443.0"/>
      <point x="-11.0" y="-438.0"/>
      <point x="-46.0" y="-428.0" type="curve"/>
      <point x="-64.5" y="-425.5"/>
      <point x="-79.5" y="-384.5"/>
      <point x="-91.0" y="-381.5" type="curve"/>
      <point x="-70.5" y="-387.5"/>
      <point x="-51.0" y="-253.5"/>
      <point x="-33.0" y="-253.5" type="curve" smooth="yes"/>
      <point x="32.0" y="-259.0"/>
      <point x="72.5" y="-235.0"/>
      <point x="89.0" y="-182.5" type="curve" smooth="yes"/>
      <point x="124.5" y="-182.5"/>
      <point x="142.5" y="433.5"/>
      <point x="142.5" y="484.5" type="curve"/>
      <point x="187.0" y="999.0" type="line"/>
      <point x="363.0" y="415.0" type="line"/>
      <point x="363.0" y="334.5"/>
      <point x="323.5" y="-263.0"/>
    </contour>
    <contour>
      <point x="131.5" y="1261.5" type="curve" smooth="yes"/>
      <point x="131.5" y="1343.5"/>
      <point x="169.0" y="1383.0"/>
      <point x="253.5" y="1383.0" type="curve" smooth="yes"/>
      <point x="337.5" y="1383.0"/>
      <point x="377.0" y="1341.0"/>
      <point x="377.0" y="1261.5" type="curve" smooth="yes"/>
      <point x="377.0" y="1183.5"/>
      <point x="334.5" y="1141.0"/>
      <point x="253.5" y="1141.0" type="curve" smooth="yes"/>
      <point x="172.0" y="1141.0"/>
      <point x="131.5" y="1181.0"/>
    </contour>
  </outline>
</glyph>
<glyph name="k" format="1">
  <advance width="1053.5"/>
  <unicode hex="006B"/>
  <outline>
    <contour>
      <point x="357.0" y="501.0" type="curve"/>
      <point x="378.0" y="535.0"/>
      <point x="646.0" y="836.0"/>
      <point x="661.0" y="855.0" type="curve"/>
      <point x="829.5" y="999.0" type="line"/>
      <point x="832.5" y="790.5" type="line"/>
      <point x="865.5" y="293.0" type="line"/>
      <point x="1000.0" y="0.0" type="line"/>
      <point x="613.0" y="247.0" type="line"/>
      <point x="421.0" y="356.5" type="line"/>
      <point x="364.0" y="139.0" type="line"/>
      <point x="319.5" y="0.0" type="line"/>
      <point x="142.5" y="700.0" type="line"/>
      <point x="187.0" y="1400.0" type="line"/>
      <point x="364.0" y="1049.0" type="line"/>
      <point x="361.0" y="639.5" type="line"/>
      <point x="361.0" y="592.0"/>
      <point x="359.5" y="546.0"/>
    </contour>
  </outline>
</glyph>
<glyph name="m" format="1">
  <advance width="1735.0"/>
  <unicode hex="006D"/>
  <outline>
    <contour>
      <point x="1379.5" y="0.0" type="line"/>
      <point x="1379.5" y="598.0" type="line"/>
      <point x="1379.5" y="763.0"/>
      <point x="1325.0" y="838.5"/>
      <point x="1207.0" y="838.5" type="curve" smooth="yes"/>
      <point x="1053.0" y="838.5"/>
      <point x="982.0" y="741.0"/>
      <point x="982.0" y="524.0" type="curve" smooth="yes"/>
      <point x="982.0" y="0.0" type="line"/>
      <point x="760.0" y="0.0" type="line"/>
      <point x="760.0" y="611.5" type="line"/>
      <point x="760.0" y="763.5"/>
      <point x="705.0" y="838.5"/>
      <point x="589.5" y="838.5" type="curve" smooth="yes"/>
      <point x="431.5" y="838.5"/>
      <point x="363.0" y="736.5"/>
      <point x="363.0" y="493.0" type="curve" smooth="yes"/>
      <point x="363.0" y="0.0" type="line"/>
      <point x="142.5" y="0.0" type="line"/>
      <point x="142.5" y="999.0" type="line"/>
      <point x="312.5" y="999.0" type="line"/>
      <point x="343.5" y="869.0" type="line"/>
      <point x="357.0" y="869.0" type="line"/>
      <point x="410.0" y="964.0"/>
      <point x="517.5" y="1017.5"/>
      <point x="643.0" y="1017.5" type="curve" smooth="yes"/>
      <point x="793.5" y="1017.5"/>
      <point x="895.0" y="966.0"/>
      <point x="946.5" y="863.5" type="curve"/>
      <point x="962.0" y="863.5" type="line"/>
      <point x="1022.5" y="961.5"/>
      <point x="1132.5" y="1017.5"/>
      <point x="1263.0" y="1017.5" type="curve" smooth="yes"/>
      <point x="1489.5" y="1017.5"/>
      <point x="1599.5" y="901.5"/>
      <point x="1599.5" y="651.5" type="curve" smooth="yes"/>
      <point x="1599.5" y="0.0" type="line"/>
    </contour>
  </outline>
</glyph>
<glyph name="n" format="1">
  <advance width="1161.0"/>
  <unicode hex="006E"/>
  <outline>
    <contour>
      <point x="805.5" y="0.0" type="curve"/>
      <point x="805.5" y="595.0" type="line"/>
      <point x="805.5" y="761.5"/>
      <point x="746.5" y="838.5"/>
      <point x="616.5" y="838.5" type="curve" smooth="yes"/>
      <point x="470.5" y="838.5"/>
      <point x="396.5" y="771.0"/>
      <point x="383.0" y="615.0" type="curve" smooth="yes"/>
      <point x="369.5" y="591.5"/>
      <point x="363.0" y="280.5"/>
      <point x="363.0" y="223.0" type="curve"/>
      <point x="318.5" y="0.0" type="line"/>
      <point x="142.5" y="489.0" type="line"/>
      <point x="180.0" y="999.0" type="line"/>
      <point x="321.5" y="932.0" type="line"/>
      <point x="346.5" y="869.0" type="line"/>
      <point x="378.0" y="920.0"/>
      <point x="445.0" y="945.5"/>
      <point x="526.5" y="945.5" type="curve" smooth="yes"/>
      <point x="667.5" y="993.5"/>
      <point x="777.5" y="958.0"/>
      <point x="847.0" y="839.0" type="curve" smooth="yes"/>
      <point x="959.5" y="839.0"/>
      <point x="1025.5" y="450.0"/>
      <point x="1025.5" y="331.5" type="curve"/>
      <point x="1025.5" y="331.5"/>
      <point x="981.5" y="0.0"/>
    </contour>
  </outline>
</glyph>
<glyph name="r" format="1">
  <advance width="791.0"/>
  <unicode hex="0072"/>
  <outline>
    <contour>
      <point x="643.0" y="1017.5" type="curve" smooth="yes"/>
      <point x="679.0" y="1017.5"/>
      <point x="716.0" y="1014.0"/>
      <point x="753.0" y="1007.5" type="curve"/>
      <point x="754.5" y="963.0" type="line"/>
      <point x="734.0" y="968.0"/>
      <point x="697.5" y="804.5"/>
      <point x="675.5" y="804.5" type="curve" smooth="yes"/>
      <point x="619.5" y="808.0"/>
      <point x="565.0" y="792.5"/>
      <point x="513.0" y="757.0" type="curve" smooth="yes"/>
      <point x="410.0" y="721.5"/>
      <point x="363.0" y="640.5"/>
      <point x="363.0" y="520.5" type="curve" smooth="yes"/>
      <point x="363.0" y="0.0" type="line"/>
      <point x="142.5" y="0.0" type="line"/>
      <point x="142.5" y="999.0" type="line"/>
      <point x="311.0" y="999.0" type="line"/>
      <point x="343.0" y="829.5" type="line"/>
      <point x="355.0" y="829.5" type="line"/>
      <point x="389.5" y="892.5"/>
      <point x="431.5" y="939.5"/>
      <point x="480.5" y="970.5" type="curve" smooth="yes"/>
      <point x="530.0" y="1001.5"/>
      <point x="584.0" y="1017.5"/>
    </contour>
  </outline>
</glyph>
<glyph name="s" format="1">
  <advance width="921.0"/>
  <unicode hex="0073"/>
  <outline>
    <contour>
      <point x="839.5" y="284.0" type="curve" smooth="yes"/>
      <point x="839.5" y="86.5"/>
      <point x="694.0" y="-18.0"/>
      <point x="432.0" y="-18.0" type="curve" smooth="yes"/>
      <point x="329.0" y="-18.0"/>
      <point x="244.5" y="-6.0"/>
      <point x="178.0" y="18.0" type="curve"/>
      <point x="150.0" y="22.0"/>
      <point x="121.5" y="78.0"/>
      <point x="92.5" y="89.0" type="curve"/>
      <point x="141.5" y="64.5"/>
      <point x="193.5" y="192.5"/>
      <point x="248.0" y="192.5" type="curve" smooth="yes"/>
      <point x="372.0" y="180.5"/>
      <point x="452.5" y="205.0"/>
      <point x="485.0" y="251.0" type="curve" smooth="yes"/>
      <point x="517.5" y="268.0"/>
      <point x="537.0" y="285.0"/>
      <point x="542.5" y="301.5" type="curve" smooth="yes"/>
      <point x="560.5" y="318.5"/>
      <point x="547.0" y="343.5"/>
      <point x="501.5" y="377.0" type="curve" smooth="yes"/>
      <point x="452.5" y="403.5"/>
      <point x="412.5" y="427.0"/>
      <point x="382.0" y="446.5" type="curve"/>
      <point x="332.0" y="479.5"/>
      <point x="281.0" y="523.0"/>
      <point x="229.5" y="590.0" type="curve" smooth="yes"/>
      <point x="183.0" y="682.0"/>
      <point x="214.5" y="749.5"/>
      <point x="306.5" y="774.0" type="curve" smooth="yes"/>
      <point x="340.5" y="798.5"/>
      <point x="381.5" y="819.5"/>
      <point x="429.0" y="837.5" type="curve"/>
      <point x="429.0" y="885.0"/>
      <point x="430.5" y="881.0"/>
      <point x="467.0" y="907.5" type="curve"/>
      <point x="455.5" y="953.5"/>
      <point x="463.0" y="977.0"/>
      <point x="488.5" y="977.0" type="curve" smooth="yes"/>
      <point x="476.0" y="977.0"/>
      <point x="481.5" y="934.0"/>
      <point x="545.5" y="859.0" type="curve" smooth="yes"/>
      <point x="545.5" y="833.5"/>
      <point x="506.5" y="699.5"/>
      <point x="524.5" y="684.0" type="curve" smooth="yes"/>
      <point x="519.5" y="679.0"/>
      <point x="530.5" y="671.0"/>
      <point x="557.0" y="660.0" type="curve" smooth="yes"/>
      <point x="575.0" y="651.5"/>
      <point x="585.5" y="640.5"/>
      <point x="589.0" y="628.0" type="curve" smooth="yes"/>
      <point x="601.0" y="602.5"/>
      <point x="606.5" y="564.0"/>
    </contour>
  </outline>
</glyph>
<glyph name="t" format="1">
  <advance width="732.5"/>
  <unicode hex="0074"/>
  <outline>
    <contour>
      <point x="521.5" y="160.5" type="curve" smooth="yes"/>
      <point x="573.5" y="160.5"/>
      <point x="626.5" y="169.0"/>
      <point x="680.5" y="185.5" type="curve"/>
      <point x="680.5" y="21.5" type="line"/>
      <point x="635.5" y="3.5"/>
      <point x="587.5" y="-7.0"/>
      <point x="537.5" y="-11.5" type="curve" smooth="yes"/>
      <point x="430.0" y="-16.0"/>
      <point x="364.5" y="27.0"/>
      <point x="336.0" y="125.5" type="curve" smooth="yes"/>
      <point x="218.0" y="125.5"/>
      <point x="169.0" y="498.5"/>
      <point x="169.0" y="618.5" type="curve"/>
      <point x="96.5" y="828.5" type="line"/>
      <point x="35.0" y="854.5" type="line"/>
      <point x="107.5" y="946.5" type="line"/>
      <point x="208.0" y="1112.5" type="line"/>
      <point x="276.5" y="1219.5" type="line"/>
      <point x="392.0" y="1101.0" type="line"/>
      <point x="535.5" y="999.0" type="line"/>
      <point x="660.5" y="960.5" type="line"/>
      <point x="517.0" y="828.5" type="line"/>
      <point x="392.0" y="519.0" type="line"/>
      <point x="392.0" y="443.5"/>
      <point x="417.5" y="210.0"/>
    </contour>
  </outline>
</glyph>
<glyph name="u" format="1">
  <advance width="1161.0"/>
  <unicode hex="0075"/>
  <outline>
    <contour>
      <point x="544.5" y="489.0" type="curve"/>
      <point x="522.5" y="236.0" type="line"/>
      <point x="522.5" y="137.5"/>
      <point x="552.0" y="95.0"/>
      <point x="639.5" y="95.0" type="curve" smooth="yes"/>
      <point x="726.0" y="48.5"/>
      <point x="725.5" y="77.5"/>
      <point x="655.0" y="210.0" type="curve" smooth="yes"/>
      <point x="543.0" y="210.0"/>
      <point x="477.5" y="548.0"/>
      <point x="477.5" y="666.5" type="curve"/>
      <point x="521.5" y="999.0" type="line"/>
      <point x="697.5" y="510.0" type="line"/>
      <point x="660.0" y="231.5" type="line"/>
      <point x="660.0" y="165.0"/>
      <point x="669.0" y="197.5"/>
      <point x="712.5" y="197.5" type="curve"/>
      <point x="743.0" y="197.5"/>
      <point x="761.5" y="209.5"/>
      <point x="774.0" y="233.0" type="curve"/>
      <point x="755.5" y="206.0"/>
      <point x="705.5" y="221.0"/>
      <point x="624.0" y="277.5" type="curve" smooth="yes"/>
      <point x="512.5" y="277.5"/>
      <point x="457.0" y="560.5"/>
      <point x="457.0" y="679.5" type="curve" smooth="yes"/>
      <point x="633.0" y="999.0" type="line"/>
      <point x="633.0" y="999.0"/>
      <point x="677.0" y="489.0"/>
    </contour>
  </outline>
</glyph>
<glyph name="v" format="1">
  <advance width="986.0"/>
  <unicode hex="0076"/>
  <outline>
    <contour>
      <point x="383.5" y="0.0" type="line"/>
      <point x="0.0" y="999.0" type="line"/>
      <point x="229.5" y="999.0" type="line"/>
      <point x="442.5" y="365.0" type="line"/>
      <point x="460.0" y="317.0"/>
      <point x="479.5" y="253.0"/>
      <point x="488.0" y="201.5" type="curve"/>
      <point x="494.0" y="201.5" type="line"/>
      <point x="506.5" y="257.5"/>
      <point x="522.0" y="312.0"/>
      <point x="540.0" y="365.0" type="curve"/>
      <point x="757.0" y="999.0" type="line"/>
      <point x="986.0" y="999.0" type="line"/>
      <point x="602.5" y="0.0" type="line"/>
    </contour>
  </outline>
</glyph>
<glyph name="w" format="1">
  <advance width="1505.5"/>
  <unicode hex="0077"/>
  <outline>
    <contour>
      <point x="972.5" y="0.0" type="curve"/>
      <point x="808.0" y="570.0" type="line"/>
      <point x="801.0" y="592.5"/>
      <point x="778.5" y="698.5"/>
      <point x="768.0" y="741.5" type="curve"/>
      <point x="756.0" y="800.5" type="line"/>
      <point x="743.5" y="767.0" type="line"/>
      <point x="729.0" y="683.0"/>
      <point x="699.0" y="564.5"/>
      <point x="694.0" y="542.5" type="curve"/>
      <point x="533.0" y="0.0" type="line"/>
      <point x="304.5" y="0.0" type="line"/>
      <point x="25.0" y="999.0" type="line"/>
      <point x="246.0" y="999.0" type="line"/>
      <point x="366.0" y="519.5" type="line"/>
      <point x="397.5" y="382.5"/>
      <point x="417.0" y="275.0"/>
      <point x="425.0" y="197.5" type="curve"/>
      <point x="430.0" y="197.5" type="line"/>
      <point x="448.5" y="295.0"/>
      <point x="470.0" y="394.0"/>
      <point x="494.0" y="495.0" type="curve"/>
      <point x="641.5" y="999.0" type="line"/>
      <point x="876.5" y="999.0" type="line"/>
      <point x="1015.5" y="493.0" type="line"/>
      <point x="1051.0" y="356.0"/>
      <point x="1073.0" y="258.0"/>
      <point x="1081.0" y="198.0" type="curve"/>
      <point x="1087.0" y="198.0" type="line"/>
      <point x="1091.0" y="240.5"/>
      <point x="1106.0" y="321.5"/>
      <point x="1131.5" y="440.5" type="curve"/>
      <point x="1136.0" y="474.5"/>
      <point x="1215.0" y="782.5"/>
      <point x="1220.5" y="803.0" type="curve"/>
      <point x="1310.5" y="999.0" type="line"/>
      <point x="1347.0" y="510.0" type="line"/>
      <point x="1347.0" y="510.0"/>
      <point x="1160.5" y="0.0"/>
    </contour>
  </outline>
</glyph>
<glyph name="x" format="1">
  <advance width="1039.5"/>
  <unicode hex="0078"/>
  <outline>
    <contour>
      <point x="370.5" y="511.5" type="line"/>
      <point x="44.5" y="999.0" type="line"/>
      <point x="296.0" y="999.0" type="line"/>
      <point x="518.5" y="649.5" type="line"/>
      <point x="742.5" y="999.0" type="line"/>
      <point x="991.5" y="999.0" type="line"/>
      <point x="664.0" y="511.5" type="line"/>
      <point x="1010.0" y="0.0" type="line"/>
      <point x="758.5" y="0.0" type="line"/>
      <point x="518.5" y="373.0" type="line"/>
      <point x="278.5" y="0.0" type="line"/>
      <point x="29.0" y="0.0" type="line"/>
    </contour>
  </outline>
</glyph>
<glyph name="y" format="1">
  <advance width="985.0"/>
  <unicode hex="0079"/>
  <outline>
    <contour>
      <point x="-1.0" y="999.0" type="line"/>
      <point x="230.5" y="999.0" type="line"/>
      <point x="420.5" y="432.0" type="line"/>
      <point x="456.0" y="332.0"/>
      <point x="478.5" y="257.0"/>
      <point x="488.5" y="206.0" type="curve"/>
      <point x="495.0" y="206.0" type="line"/>
      <point x="510.0" y="265.0"/>
      <point x="534.0" y="341.5"/>
      <point x="567.5" y="434.0" type="curve"/>
      <point x="759.5" y="999.0" type="line"/>
      <point x="985.0" y="999.0" type="line"/>
      <point x="564.5" y="-111.5" type="line"/>
      <point x="521.0" y="-227.0"/>
      <point x="474.0" y="-306.5"/>
      <point x="424.5" y="-351.0" type="curve" smooth="yes"/>
      <point x="363.0" y="-412.0"/>
      <point x="283.0" y="-443.0"/>
      <point x="177.0" y="-443.0" type="curve" smooth="yes"/>
      <point x="136.5" y="-443.0"/>
      <point x="93.5" y="-437.5"/>
      <point x="48.0" y="-426.0" type="curve"/>
      <point x="48.0" y="-249.0" type="line"/>
      <point x="81.0" y="-257.0"/>
      <point x="118.0" y="-261.5"/>
      <point x="158.5" y="-261.5" type="curve" smooth="yes"/>
      <point x="204.5" y="-261.5"/>
      <point x="241.0" y="-244.5"/>
      <point x="271.0" y="-208.0" type="curve" smooth="yes"/>
      <point x="292.5" y="-187.0"/>
      <point x="314.0" y="-154.5"/>
      <point x="335.0" y="-110.5" type="curve" smooth="yes"/>
      <point x="356.0" y="-67.0"/>
      <point x="373.5" y="-27.5"/>
      <point x="387.0" y="7.0" type="curve"/>
    </contour>
  </outline>
</glyph>
<glyph name="z" format="1">
  <advance width="892.0"/>
  <unicode hex="007A"/>
  <outline>
    <contour>
      <point x="830.0" y="0.0" type="line"/>
      <point x="59.0" y="0.0" type="line"/>
      <point x="59.0" y="129.0" type="line"/>
      <point x="560.0" y="825.0" type="line"/>
      <point x="92.0" y="825.0" type="line"/>
      <point x="92.0" y="999.0" type="line"/>
      <point x="819.0" y="999.0" type="line"/>
      <point x="819.0" y="862.0" type="line"/>
      <point x="325.0" y="174.0" type="line"/>
      <point x="830.0" y="174.0" type="line"/>
    </contour>
  </outline>
</glyph>
<glyph name="braceleft.deva" format="1">
  <advance width="724.5"/>
  <unicode hex="007B"/>
  <outline>
    <contour>
      <point x="202.5" y="311.5" type="curve"/>
      <point x="271.0" y="250.0"/>
      <point x="345.0" y="248.5"/>
      <point x="431.0" y="295.0" type="curve"/>
      <point x="431.0" y="368.5" type="line"/>
      <point x="372.5" y="410.0"/>
      <point x="338.0" y="453.0"/>
      <point x="328.0" y="496.0" type="curve" smooth="yes"/>
      <point x="333.0" y="560.0"/>
      <point x="383.0" y="612.5"/>
      <point x="500.5" y="659.5" type="curve" smooth="yes"/>
      <point x="500.5" y="685.5" type="line"/>
      <point x="474.0" y="746.0"/>
      <point x="421.0" y="775.5"/>
      <point x="342.5" y="773.0" type="curve"/>
      <point x="324.0" y="767.0"/>
      <point x="311.5" y="790.0"/>
      <point x="311.5" y="767.5" type="curve"/>
      <point x="385.0" y="769.0"/>
      <point x="415.0" y="675.5"/>
      <point x="415.0" y="735.0" type="curve" smooth="yes"/>
      <point x="415.0" y="667.5"/>
      <point x="383.0" y="790.5"/>
      <point x="307.0" y="779.0" type="curve"/>
      <point x="307.0" y="868.5"/>
      <point x="361.0" y="909.5"/>
      <point x="469.0" y="911.5" type="curve"/>
      <point x="545.5" y="899.5"/>
      <point x="577.0" y="824.5"/>
      <point x="577.0" y="760.0" type="curve"/>
      <point x="494.5" y="756.5"/>
      <point x="459.0" y="601.5"/>
      <point x="459.0" y="539.0" type="curve" smooth="yes"/>
      <point x="459.0" y="527.5"/>
      <point x="462.0" y="381.0"/>
      <point x="468.5" y="374.5" type="curve"/>
      <point x="481.0" y="283.0"/>
      <point x="473.0" y="242.5"/>
      <point x="461.0" y="228.5" type="curve"/>
      <point x="461.0" y="99.0" type="line"/>
      <point x="460.0" y="87.0"/>
      <point x="439.5" y="56.5"/>
      <point x="406.5" y="-8.0" type="curve" smooth="yes"/>
      <point x="373.5" y="1.5"/>
      <point x="349.5" y="-127.5"/>
    </contour>
  </outline>
</glyph>
<glyph name="braceright.deva" format="1">
  <advance width="724.5"/>
  <unicode hex="007D"/>
  <outline>
    <contour>
      <point x="521.5" y="320.5" type="curve"/>
      <point x="455.5" y="394.5"/>
      <point x="437.0" y="401.5"/>
      <point x="495.0" y="365.5" type="curve"/>
      <point x="495.0" y="258.0" type="line"/>
      <point x="437.0" y="228.0"/>
      <point x="404.0" y="231.5"/>
      <point x="389.5" y="289.0" type="curve" smooth="yes"/>
      <point x="360.0" y="247.0"/>
      <point x="298.0" y="365.5"/>
      <point x="180.0" y="365.5" type="curve"/>
      <point x="180.0" y="427.5"/>
      <point x="145.5" y="584.5"/>
      <point x="62.0" y="588.0" type="curve"/>
      <point x="127.5" y="590.0"/>
      <point x="147.5" y="645.0"/>
      <point x="147.5" y="676.5" type="curve"/>
      <point x="251.5" y="676.5"/>
      <point x="309.5" y="753.0"/>
      <point x="309.5" y="663.0" type="curve" smooth="yes"/>
      <point x="309.5" y="727.5"/>
      <point x="341.0" y="604.5"/>
      <point x="417.5" y="616.5" type="curve"/>
      <point x="417.5" y="556.5"/>
      <point x="448.5" y="533.5"/>
      <point x="521.0" y="532.0" type="curve"/>
      <point x="445.0" y="543.5"/>
      <point x="413.0" y="542.0"/>
      <point x="413.0" y="609.5" type="curve"/>
      <point x="344.0" y="608.5"/>
      <point x="309.5" y="699.0"/>
      <point x="309.5" y="637.5" type="curve" smooth="yes"/>
      <point x="309.5" y="649.0"/>
      <point x="306.5" y="506.5"/>
      <point x="300.5" y="513.0" type="curve"/>
      <point x="295.0" y="473.0"/>
      <point x="275.0" y="443.0"/>
      <point x="240.5" y="423.5" type="curve" smooth="yes"/>
      <point x="207.0" y="404.5"/>
      <point x="147.5" y="395.0"/>
      <point x="62.0" y="396.0" type="curve"/>
      <point x="62.0" y="562.5" type="line"/>
      <point x="205.5" y="564.0"/>
      <point x="285.0" y="588.5"/>
      <point x="318.0" y="641.0" type="curve" smooth="yes"/>
      <point x="351.0" y="631.5"/>
      <point x="375.0" y="761.0"/>
    </contour>
  </outline>
</glyph>
<glyph name="asciitilde.deva" format="1">
  <advance width="1047.5"/>
  <unicode hex="007E"/>
  <outline>
    <contour>
      <point x="287.5" y="626.0" type="curve" smooth="yes"/>
      <point x="224.5" y="626.0"/>
      <point x="152.5" y="590.0"/>
      <point x="82.5" y="517.5" type="curve"/>
      <point x="82.5" y="686.5" type="line"/>
      <point x="146.0" y="752.0"/>
      <point x="220.5" y="784.5"/>
      <point x="306.0" y="784.5" type="curve" smooth="yes"/>
      <point x="344.5" y="784.5"/>
      <point x="381.0" y="780.5"/>
      <point x="416.0" y="772.5" type="curve" smooth="yes"/>
      <point x="451.0" y="764.5"/>
      <point x="496.5" y="748.5"/>
      <point x="553.5" y="724.5" type="curve"/>
      <point x="630.5" y="690.5"/>
      <point x="699.0" y="673.5"/>
      <point x="760.0" y="673.5" type="curve" smooth="yes"/>
      <point x="823.5" y="673.5"/>
      <point x="893.5" y="712.0"/>
      <point x="964.5" y="784.0" type="curve"/>
      <point x="964.5" y="614.5" type="line"/>
      <point x="904.5" y="552.5"/>
      <point x="832.0" y="514.5"/>
      <point x="740.5" y="514.5" type="curve" smooth="yes"/>
      <point x="684.5" y="514.5"/>
      <point x="624.0" y="527.5"/>
      <point x="558.5" y="553.5" type="curve" smooth="yes"/>
      <point x="503.0" y="575.0"/>
      <point x="448.0" y="591.0"/>
    </contour>
  </outline>
</glyph>
<glyph name="multiply.deva" format="1">
  <advance width="1047.5"/>
  <unicode hex="00D7"/>
  <outline>
    <contour>
      <point x="437.0" y="676.5" type="line"/>
      <point x="501.5" y="980.5" type="line"/>
      <point x="609.5" y="1039.5" type="line"/>
      <point x="547.5" y="736.5" type="line"/>
      <point x="853.5" y="672.5" type="line"/>
      <point x="912.0" y="564.5" type="line"/>
      <point x="606.0" y="625.0" type="line"/>
      <point x="544.5" y="319.0" type="line"/>
      <point x="436.0" y="261.0" type="line"/>
      <point x="494.5" y="567.0" type="line"/>
      <point x="190.0" y="629.0" type="line"/>
      <point x="134.5" y="739.0" type="line"/>
    </contour>
  </outline>
</glyph>
<glyph name="divide.deva" format="1">
  <advance width="1047.5"/>
  <unicode hex="00F7"/>
  <outline>
    <contour>
      <point x="82.5" y="571.5" type="line"/>
      <point x="82.5" y="729.0" type="line"/>
      <point x="964.5" y="729.0" type="line"/>
      <point x="964.5" y="571.5" type="line"/>
    </contour>
    <contour>
      <point x="417.0" y="633.0" type="curve" smooth="yes"/>
      <point x="417.0" y="712.5"/>
      <point x="453.0" y="754.5"/>
      <point x="523.0" y="754.5" type="curve" smooth="yes"/>
      <point x="593.0" y="754.5"/>
      <point x="630.0" y="712.5"/>
      <point x="630.0" y="633.0" type="curve" smooth="yes"/>
      <point x="630.0" y="554.5"/>
      <point x="585.5" y="512.5"/>
      <point x="523.0" y="512.5" type="curve" smooth="yes"/>
      <point x="460.0" y="512.5"/>
      <point x="417.0" y="553.0"/>
    </contour>
    <contour>
      <point x="417.0" y="667.5" type="curve" smooth="yes"/>
      <point x="417.0" y="746.5"/>
      <point x="453.0" y="788.0"/>
      <point x="523.0" y="788.0" type="curve" smooth="yes"/>
      <point x="593.0" y="788.0"/>
      <point x="630.0" y="746.5"/>
      <point x="630.0" y="667.5" type="curve" smooth="yes"/>
      <point x="630.0" y="587.5"/>
      <point x="585.5" y="546.5"/>
      <point x="523.0" y="546.5" type="curve" smooth="yes"/>
      <point x="460.0" y="546.5"/>
      <point x="417.0" y="586.0"/>
    </contour>
  </outline>
</glyph>
<glyph name="anusvaradeva" format="1">
  <unicode hex="0902"/>
  <outline>
    <contour>
      <point x="-330.0" y="1681.5" type="curve" smooth="yes"/>
      <point x="-246.5" y="1681.5"/>
      <point x="-208.5" y="1627.0"/>
      <point x="-208.5" y="1563.5" type="curve" smooth="yes"/>
      <point x="-208.5" y="1500.5"/>
      <point x="-246.5" y="1444.5"/>
      <point x="-330.0" y="1444.5" type="curve" smooth="yes"/>
      <point x="-410.0" y="1444.5"/>
      <point x="-451.0" y="1498.5"/>
      <point x="-451.0" y="1563.5" type="curve" smooth="yes"/>
      <point x="-451.0" y="1627.5"/>
      <point x="-411.0" y="1681.5"/>
    </contour>
    <contour>
      <point x="49.0" y="8.0" type="move" name="x12"/>
    </contour>
    <contour>
      <point x="-424.0" y="1282.0" type="move" name="_mark0"/>
    </contour>
  </outline>
</glyph>
<glyph name="ideva" format="1">
  <advance width="1056.0"/>
  <unicode hex="0907"/>
  <outline>
    <contour>
      <point x="523.0" y="147.0" type="curve" smooth="yes"/>
      <point x="811.5" y="-162.5" type="line"/>
      <point x="662.0" y="-249.0" type="line"/>
      <point x="337.0" y="110.5" type="line"/>
      <point x="469.0" y="42.0" type="line"/>
      <point x="222.5" y="44.0"/>
      <point x="135.5" y="137.0"/>
      <point x="135.5" y="200.0" type="curve" smooth="yes"/>
      <point x="135.5" y="260.0"/>
      <point x="182.0" y="312.5"/>
      <point x="261.5" y="312.5" type="curve" smooth="yes"/>
      <point x="343.5" y="312.5"/>
      <point x="419.5" y="258.0"/>
    </contour>
    <contour>
      <point x="626.0" y="1157.0" type="line"/>
      <point x="853.5" y="1157.0" type="line"/>
      <point x="853.5" y="794.0" type="line"/>
      <point x="466.0" y="794.0" type="line"/>
      <point x="343.0" y="794.0"/>
      <point x="305.5" y="748.0"/>
      <point x="306.0" y="686.5" type="curve" smooth="yes"/>
      <point x="306.5" y="632.0"/>
      <point x="344.5" y="594.0"/>
      <point x="429.5" y="560.0" type="curve"/>
      <point x="338.5" y="568.5" type="line"/>
      <point x="434.5" y="608.5"/>
      <point x="516.0" y="630.5"/>
      <point x="623.0" y="630.5" type="curve" smooth="yes"/>
      <point x="809.5" y="630.5"/>
      <point x="940.0" y="510.0"/>
      <point x="940.0" y="337.5" type="curve" smooth="yes"/>
      <point x="940.0" y="158.5"/>
      <point x="769.5" y="45.5"/>
      <point x="484.0" y="45.5" type="curve"/>
      <point x="452.5" y="203.0" type="line"/>
      <point x="634.5" y="203.0"/>
      <point x="753.0" y="270.0"/>
      <point x="753.0" y="349.5" type="curve" smooth="yes"/>
      <point x="753.0" y="421.0"/>
      <point x="700.0" y="461.0"/>
      <point x="610.5" y="461.0" type="curve" smooth="yes"/>
      <point x="533.5" y="461.0"/>
      <point x="467.0" y="442.5"/>
      <point x="390.5" y="408.0" type="curve"/>
      <point x="383.0" y="408.0" type="line"/>
      <point x="176.5" y="504.5"/>
      <point x="108.0" y="603.5"/>
      <point x="108.0" y="724.5" type="curve" smooth="yes"/>
      <point x="108.0" y="849.0"/>
      <point x="197.5" y="948.5"/>
      <point x="421.0" y="948.5" type="curve" smooth="yes"/>
      <point x="680.0" y="948.5" type="line"/>
      <point x="626.0" y="895.0" type="line"/>
    </contour>
    <contour>
      <point x="1074.5" y="1127.0" type="line"/>
      <point x="-19.0" y="1127.0" type="line"/>
      <point x="-19.0" y="1284.0" type="line"/>
      <point x="1074.5" y="1284.0" type="line"/>
    </contour>
    <contour>
      <point x="666.5" y="1282.0" type="move" name="mark0"/>
    </contour>
    <contour>
      <point x="21.5" y="8.0" type="move" name="x51"/>
    </contour>
  </outline>
</glyph>
<glyph name="rvocalicdeva" format="1">
  <advance width="1609.5"/>
  <unicode hex="090B"/>
  <outline>
    <contour>
      <point x="900.0" y="705.0" type="line"/>
      <point x="938.0" y="674.0"/>
      <point x="975.0" y="661.0"/>
      <point x="1039.0" y="661.0" type="curve" smooth="yes"/>
      <point x="1105.5" y="661.0"/>
      <point x="1190.0" y="675.0"/>
      <point x="1268.0" y="734.0" type="curve"/>
      <point x="1200.0" y="664.0" type="line"/>
      <point x="1167.5" y="711.5"/>
      <point x="1152.0" y="742.5"/>
      <point x="1152.0" y="779.0" type="curve" smooth="yes"/>
      <point x="1152.0" y="827.0"/>
      <point x="1190.5" y="874.0"/>
      <point x="1274.5" y="874.0" type="curve" smooth="yes"/>
      <point x="1394.0" y="874.0"/>
      <point x="1493.5" y="815.0"/>
      <point x="1493.5" y="737.5" type="curve" smooth="yes"/>
      <point x="1493.5" y="621.5"/>
      <point x="1319.0" y="487.5"/>
      <point x="1056.0" y="487.5" type="curve" smooth="yes"/>
      <point x="974.5" y="487.5"/>
      <point x="899.5" y="495.5"/>
      <point x="820.5" y="533.0" type="curve"/>
    </contour>
    <contour>
      <point x="1235.5" y="585.0" type="curve"/>
      <point x="1392.5" y="667.0" type="line"/>
      <point x="1479.5" y="548.0"/>
      <point x="1525.5" y="445.0"/>
      <point x="1525.5" y="337.5" type="curve" smooth="yes"/>
      <point x="1525.5" y="206.0"/>
      <point x="1447.5" y="90.0"/>
      <point x="1232.5" y="57.5" type="curve"/>
      <point x="1130.5" y="208.5" type="line"/>
      <point x="1278.5" y="238.5"/>
      <point x="1338.0" y="295.5"/>
      <point x="1338.0" y="378.0" type="curve" smooth="yes"/>
      <point x="1338.0" y="440.0"/>
      <point x="1309.5" y="493.0"/>
    </contour>
    <contour>
      <point x="-22.0" y="1127.0" type="line"/>
      <point x="-22.0" y="1284.0" type="line"/>
      <point x="1634.5" y="1284.0" type="line"/>
      <point x="1634.5" y="1127.0" type="line"/>
    </contour>
    <contour>
      <point x="869.0" y="444.0" type="line"/>
      <point x="267.5" y="141.0" type="line"/>
      <point x="161.0" y="303.5" type="line"/>
      <point x="766.5" y="598.0" type="line"/>
    </contour>
    <contour>
      <point x="65.0" y="824.5" type="line"/>
      <point x="149.0" y="860.0"/>
      <point x="250.5" y="886.5"/>
      <point x="344.0" y="886.5" type="curve" smooth="yes"/>
      <point x="462.0" y="886.5"/>
      <point x="587.5" y="833.0"/>
      <point x="781.0" y="708.5" type="curve"/>
      <point x="781.0" y="502.5" type="line"/>
      <point x="582.0" y="639.5"/>
      <point x="464.0" y="697.0"/>
      <point x="370.5" y="697.0" type="curve" smooth="yes"/>
      <point x="294.0" y="697.0"/>
      <point x="197.0" y="670.5"/>
      <point x="122.5" y="635.0" type="curve"/>
    </contour>
    <contour>
      <point x="735.5" y="1161.0" type="line"/>
      <point x="963.0" y="1161.0" type="line"/>
      <point x="963.0" y="0.0" type="line"/>
      <point x="735.5" y="0.0" type="line"/>
    </contour>
    <contour>
      <point x="861.0" y="1263.0" type="move" name="mark0"/>
    </contour>
  </outline>
</glyph>
<glyph name="lvocalicdeva" format="1">
  <advance width="1483.0"/>
  <unicode hex="090C"/>
  <outline>
    <contour>
      <point x="903.0" y="642.0" type="curve"/>
      <point x="771.5" y="526.5" type="line"/>
      <point x="680.5" y="655.5"/>
      <point x="598.0" y="714.0"/>
      <point x="480.5" y="714.0" type="curve" smooth="yes"/>
      <point x="372.0" y="714.0"/>
      <point x="300.5" y="630.0"/>
      <point x="300.5" y="527.5" type="curve" smooth="yes"/>
      <point x="300.5" y="413.5"/>
      <point x="357.5" y="312.0"/>
      <point x="527.5" y="164.0" type="curve"/>
      <point x="371.5" y="75.5" type="line"/>
      <point x="178.5" y="241.0"/>
      <point x="85.5" y="413.5"/>
      <point x="85.5" y="576.5" type="curve" smooth="yes"/>
      <point x="85.5" y="760.5"/>
      <point x="212.0" y="906.5"/>
      <point x="434.5" y="906.5" type="curve" smooth="yes"/>
      <point x="628.5" y="906.5"/>
      <point x="770.0" y="799.5"/>
    </contour>
    <contour>
      <point x="1497.0" y="1127.0" type="line"/>
      <point x="-31.5" y="1127.0" type="line"/>
      <point x="-31.5" y="1284.0" type="line"/>
      <point x="1497.0" y="1284.0" type="line"/>
    </contour>
    <contour>
      <point x="979.5" y="1161.0" type="line"/>
      <point x="1207.0" y="1161.0" type="line"/>
      <point x="1207.0" y="790.0" type="line"/>
      <point x="979.5" y="790.0" type="line"/>
    </contour>
    <contour>
      <point x="1224.0" y="343.0" type="curve"/>
      <point x="1128.0" y="264.5" type="line"/>
      <point x="1194.0" y="345.0"/>
      <point x="1227.5" y="439.5"/>
      <point x="1227.5" y="527.5" type="curve" smooth="yes"/>
      <point x="1227.5" y="612.0"/>
      <point x="1170.5" y="673.5"/>
      <point x="1074.5" y="673.5" type="curve" smooth="yes"/>
      <point x="956.0" y="673.5"/>
      <point x="854.5" y="558.0"/>
      <point x="805.5" y="349.0" type="curve"/>
      <point x="613.0" y="418.5" type="line"/>
      <point x="670.5" y="663.0"/>
      <point x="802.5" y="862.5"/>
      <point x="1060.5" y="864.5" type="curve" smooth="yes"/>
      <point x="1276.0" y="866.0"/>
      <point x="1425.0" y="705.0"/>
      <point x="1425.0" y="508.5" type="curve" smooth="yes"/>
      <point x="1425.0" y="411.5"/>
      <point x="1389.5" y="309.5"/>
      <point x="1334.0" y="221.5" type="curve"/>
      <point x="1184.0" y="221.0"/>
      <point x="1125.5" y="162.0"/>
      <point x="1125.5" y="99.0" type="curve" smooth="yes"/>
      <point x="1125.5" y="38.0"/>
      <point x="1170.5" y="-2.5"/>
      <point x="1261.5" y="-2.5" type="curve" smooth="yes"/>
      <point x="1318.5" y="-2.5"/>
      <point x="1365.0" y="9.5"/>
      <point x="1440.0" y="42.5" type="curve"/>
      <point x="1466.5" y="-106.5" type="line"/>
      <point x="1389.5" y="-136.5"/>
      <point x="1328.5" y="-146.5"/>
      <point x="1251.5" y="-146.5" type="curve" smooth="yes"/>
      <point x="1063.5" y="-146.5"/>
      <point x="937.0" y="-40.5"/>
      <point x="937.0" y="95.0" type="curve" smooth="yes"/>
      <point x="937.0" y="226.0"/>
      <point x="1041.0" y="326.5"/>
    </contour>
    <contour>
      <point x="1046.5" y="1263.0" type="move" name="mark0"/>
    </contour>
  </outline>
</glyph>
<glyph name="khadeva" format="1">
  <advance width="1748.5"/>
  <unicode hex="0916"/>
  <outline>
    <contour>
      <point x="1340.0" y="677.0" type="curve"/>
      <point x="1340.0" y="436.5" type="line"/>
      <point x="1274.5" y="395.0"/>
      <point x="1198.0" y="368.5"/>
      <point x="1107.0" y="368.5" type="curve" smooth="yes"/>
      <point x="903.5" y="368.5"/>
      <point x="750.5" y="521.0"/>
      <point x="750.5" y="699.5" type="curve" smooth="yes"/>
      <point x="750.5" y="846.0"/>
      <point x="859.5" y="961.5"/>
      <point x="1064.5" y="961.5" type="curve" smooth="yes"/>
      <point x="1176.5" y="961.5"/>
      <point x="1274.0" y="934.5"/>
      <point x="1351.0" y="888.5" type="curve"/>
      <point x="1351.0" y="740.5" type="line"/>
      <point x="1278.0" y="783.5"/>
      <point x="1187.0" y="806.0"/>
      <point x="1107.5" y="806.0" type="curve" smooth="yes"/>
      <point x="990.0" y="806.0"/>
      <point x="934.5" y="735.5"/>
      <point x="934.5" y="669.5" type="curve" smooth="yes"/>
      <point x="934.5" y="595.5"/>
      <point x="999.5" y="532.5"/>
      <point x="1082.0" y="532.5" type="curve" smooth="yes"/>
      <point x="1175.0" y="532.5"/>
      <point x="1268.0" y="586.0"/>
    </contour>
    <contour>
      <point x="248.0" y="679.5" type="line"/>
      <point x="414.0" y="738.5"/>
      <point x="457.5" y="820.5"/>
      <point x="457.5" y="968.5" type="curve" smooth="yes"/>
      <point x="457.5" y="1187.0" type="line"/>
      <point x="685.0" y="1187.0" type="line"/>
      <point x="685.0" y="953.5" type="line"/>
      <point x="685.0" y="761.0"/>
      <point x="632.0" y="595.0"/>
      <point x="378.0" y="483.5" type="curve"/>
    </contour>
    <contour>
      <point x="-17.0" y="1127.0" type="line"/>
      <point x="-17.0" y="1284.0" type="line"/>
      <point x="1762.5" y="1284.0" type="line"/>
      <point x="1762.5" y="1127.0" type="line"/>
    </contour>
    <contour>
      <point x="334.0" y="625.0" type="line"/>
      <point x="502.5" y="305.5"/>
      <point x="757.5" y="190.0"/>
      <point x="1006.5" y="190.0" type="curve" smooth="yes"/>
      <point x="1175.0" y="190.0"/>
      <point x="1287.0" y="219.5"/>
      <point x="1416.5" y="298.5" type="curve"/>
      <point x="1475.0" y="125.5" type="line"/>
      <point x="1353.0" y="65.0"/>
      <point x="1223.5" y="29.5"/>
      <point x="1004.0" y="29.5" type="curve" smooth="yes"/>
      <point x="789.0" y="29.5"/>
      <point x="523.5" y="109.5"/>
      <point x="345.5" y="287.5" type="curve" smooth="yes"/>
      <point x="176.5" y="456.5"/>
      <point x="63.5" y="664.0"/>
      <point x="63.5" y="735.0" type="curve" smooth="yes"/>
      <point x="63.5" y="788.5"/>
      <point x="106.5" y="830.5"/>
      <point x="161.5" y="830.5" type="curve" smooth="yes"/>
      <point x="219.5" y="830.5"/>
      <point x="257.0" y="794.5"/>
      <point x="306.0" y="724.0" type="curve" smooth="yes"/>
      <point x="354.0" y="651.5" type="line"/>
    </contour>
    <contour>
      <point x="1304.0" y="1161.0" type="line"/>
      <point x="1531.5" y="1161.0" type="line"/>
      <point x="1531.5" y="0.0" type="line"/>
      <point x="1304.0" y="0.0" type="line"/>
    </contour>
  </outline>
</glyph>
<glyph name="gadeva" format="1">
  <advance width="1340.5"/>
  <unicode hex="0917"/>
  <outline>
    <contour>
      <point x="521.5" y="1162.0" type="line"/>
      <point x="521.5" y="427.5" type="line" smooth="yes"/>
      <point x="521.5" y="359.5"/>
      <point x="504.5" y="324.0"/>
      <point x="441.5" y="324.0" type="curve" smooth="yes"/>
      <point x="330.0" y="324.0"/>
      <point x="116.5" y="496.0"/>
      <point x="115.0" y="593.0" type="curve" smooth="yes"/>
      <point x="114.0" y="642.5"/>
      <point x="141.0" y="676.0"/>
      <point x="210.0" y="676.0" type="curve" smooth="yes"/>
      <point x="331.5" y="676.0" type="line"/>
      <point x="294.5" y="640.0" type="line"/>
      <point x="294.5" y="1162.0" type="line"/>
    </contour>
    <contour>
      <point x="896.0" y="1161.0" type="line"/>
      <point x="1123.5" y="1161.0" type="line"/>
      <point x="1123.5" y="0.0" type="line"/>
      <point x="896.0" y="0.0" type="line"/>
    </contour>
    <contour>
      <point x="1354.5" y="1127.0" type="line"/>
      <point x="-22.0" y="1127.0" type="line"/>
      <point x="-22.0" y="1284.0" type="line"/>
      <point x="1354.5" y="1284.0" type="line"/>
    </contour>
  </outline>
</glyph>
<glyph name="cadeva" format="1">
  <advance width="1365.5"/>
  <unicode hex="091A"/>
  <outline>
    <contour>
      <point x="47.0" y="713.0" type="line"/>
      <point x="47.0" y="894.5" type="line"/>
      <point x="770.5" y="894.5" type="line"/>
      <point x="770.5" y="713.0" type="line"/>
    </contour>
    <contour>
      <point x="958.5" y="569.0" type="curve"/>
      <point x="958.5" y="300.5" type="line"/>
      <point x="899.0" y="253.0"/>
      <point x="811.5" y="206.5"/>
      <point x="679.0" y="206.5" type="curve" smooth="yes"/>
      <point x="438.0" y="206.5"/>
      <point x="280.0" y="352.5"/>
      <point x="280.0" y="552.0" type="curve" smooth="yes"/>
      <point x="280.0" y="713.0"/>
      <point x="394.5" y="872.5"/>
      <point x="659.5" y="872.5" type="curve"/>
      <point x="690.5" y="714.5" type="line"/>
      <point x="558.5" y="715.5"/>
      <point x="482.5" y="623.5"/>
      <point x="482.5" y="532.0" type="curve" smooth="yes"/>
      <point x="482.5" y="448.5"/>
      <point x="555.5" y="385.5"/>
      <point x="659.0" y="385.5" type="curve" smooth="yes"/>
      <point x="777.5" y="385.5"/>
      <point x="882.0" y="446.0"/>
    </contour>
    <contour>
      <point x="-18.5" y="1127.0" type="line"/>
      <point x="-18.5" y="1284.0" type="line"/>
      <point x="1379.5" y="1284.0" type="line"/>
      <point x="1379.5" y="1127.0" type="line"/>
    </contour>
    <contour>
      <point x="921.0" y="1161.0" type="line"/>
      <point x="1148.5" y="1161.0" type="line"/>
      <point x="1148.5" y="0.0" type="line"/>
      <point x="921.0" y="0.0" type="line"/>
    </contour>
  </outline>
</glyph>
<glyph name="chadeva" format="1">
  <advance width="1520.0"/>
  <unicode hex="091B"/>
  <outline>
    <contour>
      <point x="655.0" y="786.5" type="curve"/>
      <point x="713.0" y="609.5" type="line"/>
      <point x="711.5" y="609.5"/>
      <point x="709.0" y="609.5"/>
      <point x="707.5" y="609.5" type="curve" smooth="yes"/>
      <point x="497.5" y="600.5"/>
      <point x="431.0" y="505.0"/>
      <point x="431.0" y="412.5" type="curve" smooth="yes"/>
      <point x="431.0" y="307.5"/>
      <point x="524.0" y="222.0"/>
      <point x="695.0" y="222.0" type="curve" smooth="yes"/>
      <point x="971.0" y="222.0"/>
      <point x="1239.5" y="463.0"/>
      <point x="1239.5" y="668.5" type="curve" smooth="yes"/>
      <point x="1239.5" y="777.0"/>
      <point x="1181.5" y="835.0"/>
      <point x="1109.0" y="835.0" type="curve" smooth="yes"/>
      <point x="1045.5" y="835.0"/>
      <point x="998.5" y="775.0"/>
      <point x="998.5" y="697.5" type="curve" smooth="yes"/>
      <point x="998.5" y="603.0"/>
      <point x="1062.5" y="512.0"/>
      <point x="1249.5" y="379.0" type="curve"/>
      <point x="1146.0" y="275.0" type="line"/>
      <point x="917.0" y="430.0"/>
      <point x="809.5" y="567.5"/>
      <point x="809.5" y="728.0" type="curve" smooth="yes"/>
      <point x="809.5" y="867.0"/>
      <point x="919.5" y="998.5"/>
      <point x="1091.5" y="998.5" type="curve" smooth="yes"/>
      <point x="1287.0" y="998.5"/>
      <point x="1426.0" y="868.0"/>
      <point x="1426.0" y="648.5" type="curve" smooth="yes"/>
      <point x="1426.0" y="371.0"/>
      <point x="1117.5" y="46.5"/>
      <point x="705.5" y="46.5" type="curve" smooth="yes"/>
      <point x="374.5" y="46.5"/>
      <point x="208.0" y="236.5"/>
      <point x="208.0" y="444.5" type="curve" smooth="yes"/>
      <point x="208.0" y="623.0"/>
      <point x="350.5" y="781.5"/>
      <point x="650.0" y="786.5" type="curve" smooth="yes"/>
      <point x="652.0" y="786.5"/>
      <point x="653.0" y="786.5"/>
    </contour>
    <contour>
      <point x="550.5" y="748.5" type="curve"/>
      <point x="393.5" y="628.0" type="line"/>
      <point x="186.0" y="689.0"/>
      <point x="100.5" y="811.0"/>
      <point x="100.5" y="967.0" type="curve" smooth="yes"/>
      <point x="100.5" y="1088.5"/>
      <point x="203.0" y="1236.0"/>
      <point x="463.0" y="1263.5" type="curve"/>
      <point x="555.5" y="1147.5" type="line"/>
      <point x="390.0" y="1127.0"/>
      <point x="322.0" y="1028.5"/>
      <point x="322.0" y="944.0" type="curve" smooth="yes"/>
      <point x="322.0" y="860.0"/>
      <point x="371.5" y="779.0"/>
    </contour>
    <contour>
      <point x="1540.0" y="1127.0" type="line"/>
      <point x="-22.5" y="1127.0" type="line"/>
      <point x="-22.5" y="1284.0" type="line"/>
      <point x="1540.0" y="1284.0" type="line"/>
    </contour>
    <contour>
      <point x="985.5" y="1179.0" type="line"/>
      <point x="1213.0" y="1179.0" type="line"/>
      <point x="1213.0" y="915.5" type="line"/>
      <point x="985.5" y="915.5" type="line"/>
    </contour>
    <contour>
      <point x="865.0" y="8.0" type="move" name="mark0"/>
    </contour>
    <contour>
      <point x="-37.0" y="8.0" type="move" name="x65"/>
    </contour>
    <contour>
      <point x="1640.0" y="8.0" type="move" name="x66"/>
    </contour>
  </outline>
</glyph>
<glyph name="jadeva" format="1">
  <advance width="1530.0"/>
  <unicode hex="091C"/>
  <outline>
    <contour>
      <point x="-32.5" y="1127.0" type="line"/>
      <point x="-32.5" y="1284.0" type="line"/>
      <point x="1544.0" y="1284.0" type="line"/>
      <point x="1544.0" y="1127.0" type="line"/>
    </contour>
    <contour>
      <point x="639.5" y="698.5" type="line"/>
      <point x="656.5" y="756.0" type="line"/>
      <point x="790.5" y="687.0"/>
      <point x="879.5" y="563.0"/>
      <point x="879.5" y="412.0" type="curve" smooth="yes"/>
      <point x="879.5" y="247.5"/>
      <point x="757.0" y="116.0"/>
      <point x="563.5" y="116.0" type="curve" smooth="yes"/>
      <point x="375.0" y="116.0"/>
      <point x="186.0" y="241.5"/>
      <point x="18.5" y="487.0" type="curve"/>
      <point x="122.5" y="635.5" type="line"/>
      <point x="283.0" y="397.0"/>
      <point x="413.5" y="311.5"/>
      <point x="513.5" y="311.5" type="curve" smooth="yes"/>
      <point x="616.0" y="311.5"/>
      <point x="676.5" y="369.0"/>
      <point x="676.5" y="464.0" type="curve" smooth="yes"/>
      <point x="676.5" y="575.5"/>
      <point x="578.0" y="677.0"/>
      <point x="397.5" y="725.0" type="curve"/>
      <point x="397.5" y="885.0" type="line"/>
      <point x="1120.5" y="885.0" type="line"/>
      <point x="1120.5" y="698.5" type="line"/>
    </contour>
    <contour>
      <point x="1085.0" y="1161.0" type="line"/>
      <point x="1312.5" y="1161.0" type="line"/>
      <point x="1312.5" y="0.0" type="line"/>
      <point x="1085.0" y="0.0" type="line"/>
    </contour>
  </outline>
</glyph>
<glyph name="nyadeva" format="1">
  <advance width="1593.0"/>
  <unicode hex="091E"/>
  <outline>
    <contour>
      <point x="828.0" y="486.5" type="curve"/>
      <point x="828.0" y="666.0" type="line"/>
      <point x="862.0" y="653.5"/>
      <point x="945.5" y="648.0"/>
      <point x="990.5" y="648.0" type="curve" smooth="yes"/>
      <point x="1046.5" y="648.0"/>
      <point x="1124.5" y="660.0"/>
      <point x="1198.0" y="694.5" type="curve"/>
      <point x="1198.0" y="487.5" type="line"/>
      <point x="1158.0" y="473.5"/>
      <point x="1090.0" y="464.0"/>
      <point x="1037.5" y="464.0" type="curve" smooth="yes"/>
      <point x="973.5" y="464.0"/>
      <point x="884.5" y="474.0"/>
    </contour>
    <contour>
      <point x="906.0" y="546.5" type="curve" smooth="yes"/>
      <point x="906.0" y="310.5"/>
      <point x="747.0" y="172.5"/>
      <point x="543.0" y="172.5" type="curve" smooth="yes"/>
      <point x="341.5" y="172.5"/>
      <point x="197.5" y="249.0"/>
      <point x="-1.0" y="437.5" type="curve"/>
      <point x="75.0" y="599.0" type="line"/>
      <point x="257.5" y="423.0"/>
      <point x="373.5" y="357.5"/>
      <point x="496.5" y="357.5" type="curve" smooth="yes"/>
      <point x="636.0" y="357.5"/>
      <point x="711.5" y="450.0"/>
      <point x="711.0" y="564.5" type="curve" smooth="yes"/>
      <point x="710.5" y="663.5"/>
      <point x="622.0" y="743.5"/>
      <point x="505.5" y="743.5" type="curve" smooth="yes"/>
      <point x="414.0" y="743.5"/>
      <point x="346.5" y="713.0"/>
      <point x="285.0" y="665.0" type="curve"/>
      <point x="201.5" y="825.5" type="line"/>
      <point x="277.0" y="878.5"/>
      <point x="371.5" y="921.5"/>
      <point x="499.0" y="921.5" type="curve" smooth="yes"/>
      <point x="728.0" y="921.5"/>
      <point x="906.0" y="774.5"/>
    </contour>
    <contour>
      <point x="-25.0" y="1127.0" type="line"/>
      <point x="-25.0" y="1284.0" type="line"/>
      <point x="1607.0" y="1284.0" type="line"/>
      <point x="1607.0" y="1127.0" type="line"/>
    </contour>
    <contour>
      <point x="1148.5" y="1161.0" type="line"/>
      <point x="1376.0" y="1161.0" type="line"/>
      <point x="1376.0" y="0.0" type="line"/>
      <point x="1148.5" y="0.0" type="line"/>
    </contour>
  </outline>
</glyph>
<glyph name="tthadeva" format="1">
  <advance width="1258.0"/>
  <unicode hex="0920"/>
  <outline>
    <contour>
      <point x="930.5" y="497.0" type="curve" smooth="yes"/>
      <point x="930.5" y="595.0"/>
      <point x="870.0" y="687.5"/>
      <point x="779.5" y="725.0" type="curve"/>
      <point x="622.0" y="725.0" type="line"/>
      <point x="403.0" y="725.0"/>
      <point x="300.5" y="624.0"/>
      <point x="300.5" y="482.5" type="curve" smooth="yes"/>
      <point x="300.5" y="350.5"/>
      <point x="414.5" y="246.0"/>
      <point x="621.0" y="246.0" type="curve" smooth="yes"/>
      <point x="813.0" y="246.0"/>
      <point x="930.5" y="353.0"/>
    </contour>
    <contour>
      <point x="1287.5" y="1127.0" type="line"/>
      <point x="-20.0" y="1127.0" type="line"/>
      <point x="-20.0" y="1284.0" type="line"/>
      <point x="1287.5" y="1284.0" type="line"/>
    </contour>
    <contour>
      <point x="632.5" y="1157.0" type="line"/>
      <point x="860.0" y="1157.0" type="line"/>
      <point x="860.0" y="826.5" type="line"/>
      <point x="825.0" y="885.5" type="line"/>
      <point x="1016.0" y="814.5"/>
      <point x="1138.5" y="653.5"/>
      <point x="1138.5" y="467.0" type="curve" smooth="yes"/>
      <point x="1138.5" y="253.0"/>
      <point x="967.0" y="77.0"/>
      <point x="659.0" y="76.5" type="curve" smooth="yes"/>
      <point x="276.0" y="76.0"/>
      <point x="85.0" y="286.5"/>
      <point x="85.0" y="517.0" type="curve" smooth="yes"/>
      <point x="85.0" y="737.5"/>
      <point x="250.5" y="895.0"/>
      <point x="538.5" y="895.0" type="curve" smooth="yes"/>
      <point x="683.5" y="895.0" type="line"/>
      <point x="632.5" y="850.5" type="line"/>
    </contour>
    <contour>
      <point x="593.5" y="8.0" type="move" name="mark0"/>
    </contour>
    <contour>
      <point x="-24.5" y="8.0" type="move" name="x34"/>
    </contour>
    <contour>
      <point x="1339.5" y="8.0" type="move" name="x35"/>
    </contour>
  </outline>
</glyph>
<glyph name="ddadeva" format="1">
  <advance width="1181.0"/>
  <unicode hex="0921"/>
  <outline>
    <contour>
      <point x="729.5" y="1157.0" type="line"/>
      <point x="957.0" y="1157.0" type="line"/>
      <point x="957.0" y="794.0" type="line"/>
      <point x="521.0" y="794.0" type="line"/>
      <point x="412.0" y="794.0"/>
      <point x="376.0" y="749.5"/>
      <point x="376.0" y="685.0" type="curve" smooth="yes"/>
      <point x="376.0" y="631.0"/>
      <point x="418.0" y="588.5"/>
      <point x="499.0" y="554.5" type="curve"/>
      <point x="407.5" y="563.5" type="line"/>
      <point x="512.0" y="610.0"/>
      <point x="592.0" y="630.5"/>
      <point x="691.5" y="630.5" type="curve" smooth="yes"/>
      <point x="912.5" y="630.5"/>
      <point x="1042.5" y="510.0"/>
      <point x="1042.5" y="343.0" type="curve" smooth="yes"/>
      <point x="1042.5" y="171.5"/>
      <point x="911.0" y="43.0"/>
      <point x="629.5" y="43.0" type="curve" smooth="yes"/>
      <point x="459.5" y="43.0"/>
      <point x="309.0" y="88.0"/>
      <point x="115.0" y="198.0" type="curve"/>
      <point x="153.0" y="365.0" type="line"/>
      <point x="330.0" y="254.0"/>
      <point x="485.0" y="204.0"/>
      <point x="612.0" y="204.0" type="curve" smooth="yes"/>
      <point x="759.0" y="204.0"/>
      <point x="847.0" y="269.5"/>
      <point x="847.0" y="346.0" type="curve" smooth="yes"/>
      <point x="847.0" y="414.0"/>
      <point x="794.5" y="460.5"/>
      <point x="681.0" y="460.5" type="curve" smooth="yes"/>
      <point x="595.5" y="460.5"/>
      <point x="536.0" y="440.5"/>
      <point x="459.5" y="403.0" type="curve"/>
      <point x="453.0" y="403.0" type="line"/>
      <point x="251.5" y="497.5"/>
      <point x="178.0" y="601.5"/>
      <point x="178.0" y="723.0" type="curve" smooth="yes"/>
      <point x="178.0" y="843.5"/>
      <point x="264.0" y="948.5"/>
      <point x="476.5" y="948.5" type="curve" smooth="yes"/>
      <point x="783.5" y="948.5" type="line"/>
      <point x="729.5" y="895.0" type="line"/>
    </contour>
    <contour>
      <point x="1204.0" y="1127.0" type="line"/>
      <point x="-17.0" y="1127.0" type="line"/>
      <point x="-17.0" y="1284.0" type="line"/>
      <point x="1204.0" y="1284.0" type="line"/>
    </contour>
    <contour>
      <point x="1260.0" y="8.0" type="move" name="x45"/>
    </contour>
    <contour>
      <point x="-259.0" y="8.0" type="move" name="x44"/>
    </contour>
    <contour>
      <point x="546.0" y="8.0" type="move" name="mark0"/>
    </contour>
  </outline>
</glyph>
<glyph name="ddhadeva" format="1">
  <advance width="1158.5"/>
  <unicode hex="0922"/>
  <outline>
    <contour>
      <point x="1176.5" y="1127.0" type="line"/>
      <point x="-40.5" y="1127.0" type="line"/>
      <point x="-40.5" y="1284.0" type="line"/>
      <point x="1176.5" y="1284.0" type="line"/>
    </contour>
    <contour>
      <point x="673.5" y="1157.0" type="line"/>
      <point x="900.5" y="1157.0" type="line"/>
      <point x="900.5" y="731.0" type="line"/>
      <point x="612.0" y="731.0" type="line"/>
      <point x="359.0" y="731.0"/>
      <point x="275.0" y="617.5"/>
      <point x="275.0" y="467.5" type="curve" smooth="yes"/>
      <point x="275.0" y="323.0"/>
      <point x="431.5" y="191.5"/>
      <point x="659.0" y="191.5" type="curve" smooth="yes"/>
      <point x="838.0" y="191.5"/>
      <point x="911.5" y="251.5"/>
      <point x="911.5" y="326.0" type="curve" smooth="yes"/>
      <point x="911.5" y="379.0"/>
      <point x="866.5" y="423.0"/>
      <point x="787.5" y="423.0" type="curve" smooth="yes"/>
      <point x="704.0" y="423.0"/>
      <point x="644.5" y="363.0"/>
      <point x="644.5" y="280.0" type="curve" smooth="yes"/>
      <point x="644.5" y="231.0"/>
      <point x="659.5" y="188.5"/>
      <point x="685.5" y="141.5" type="curve"/>
      <point x="519.0" y="122.0" type="line"/>
      <point x="478.0" y="187.0"/>
      <point x="465.5" y="238.5"/>
      <point x="465.5" y="311.5" type="curve" smooth="yes"/>
      <point x="465.5" y="440.0"/>
      <point x="577.0" y="565.0"/>
      <point x="776.5" y="565.0" type="curve" smooth="yes"/>
      <point x="984.0" y="565.0"/>
      <point x="1093.0" y="456.0"/>
      <point x="1093.0" y="317.5" type="curve" smooth="yes"/>
      <point x="1093.0" y="163.0"/>
      <point x="944.5" y="54.5"/>
      <point x="675.5" y="54.5" type="curve" smooth="yes"/>
      <point x="287.5" y="54.5"/>
      <point x="66.5" y="280.0"/>
      <point x="66.5" y="512.5" type="curve" smooth="yes"/>
      <point x="66.5" y="720.5"/>
      <point x="207.0" y="895.5"/>
      <point x="529.5" y="895.5" type="curve" smooth="yes"/>
      <point x="714.5" y="895.5" type="line"/>
      <point x="673.5" y="861.5" type="line"/>
    </contour>
    <contour>
      <point x="544.5" y="8.0" type="move" name="mark0"/>
    </contour>
    <contour>
      <point x="1192.5" y="8.0" type="move" name="x44"/>
    </contour>
    <contour>
      <point x="-135.5" y="8.0" type="move" name="x43"/>
    </contour>
  </outline>
</glyph>
<glyph name="nnadeva" format="1">
  <advance width="1648.5"/>
  <unicode hex="0923"/>
  <outline>
    <contour>
      <point x="699.0" y="1157.0" type="line"/>
      <point x="926.5" y="1157.0" type="line"/>
      <point x="926.5" y="727.0" type="line"/>
      <point x="926.5" y="477.0"/>
      <point x="827.5" y="327.0"/>
      <point x="555.5" y="327.0" type="curve" smooth="yes"/>
      <point x="294.0" y="327.0"/>
      <point x="148.5" y="487.0"/>
      <point x="148.5" y="732.0" type="curve" smooth="yes"/>
      <point x="148.5" y="1157.0" type="line"/>
      <point x="376.0" y="1157.0" type="line"/>
      <point x="376.0" y="674.5" type="line"/>
      <point x="376.0" y="557.5"/>
      <point x="430.0" y="496.5"/>
      <point x="528.0" y="496.5" type="curve" smooth="yes"/>
      <point x="637.0" y="496.5"/>
      <point x="699.0" y="567.5"/>
      <point x="699.0" y="714.5" type="curve" smooth="yes"/>
    </contour>
    <contour>
      <point x="-17.5" y="1127.0" type="line"/>
      <point x="-17.5" y="1284.0" type="line"/>
      <point x="1662.5" y="1284.0" type="line"/>
      <point x="1662.5" y="1127.0" type="line"/>
    </contour>
    <contour>
      <point x="1204.0" y="1161.0" type="line"/>
      <point x="1431.5" y="1161.0" type="line"/>
      <point x="1431.5" y="0.0" type="line"/>
      <point x="1204.0" y="0.0" type="line"/>
    </contour>
  </outline>
</glyph>
<glyph name="tadeva" format="1">
  <advance width="1235.5"/>
  <unicode hex="0924"/>
  <outline>
    <contour>
      <point x="848.5" y="892.0" type="line"/>
      <point x="848.5" y="705.5" type="line"/>
      <point x="573.5" y="705.5" type="line"/>
      <point x="412.5" y="705.5"/>
      <point x="323.0" y="612.5"/>
      <point x="323.0" y="484.5" type="curve" smooth="yes"/>
      <point x="323.0" y="360.0"/>
      <point x="371.0" y="240.0"/>
      <point x="503.0" y="30.0" type="curve"/>
      <point x="325.5" y="-26.5" type="line"/>
      <point x="180.5" y="193.5"/>
      <point x="114.0" y="372.0"/>
      <point x="114.0" y="537.5" type="curve" smooth="yes"/>
      <point x="114.0" y="740.5"/>
      <point x="250.0" y="892.0"/>
      <point x="515.5" y="892.0" type="curve" smooth="yes"/>
    </contour>
    <contour>
      <point x="-26.5" y="1127.0" type="line"/>
      <point x="-26.5" y="1284.0" type="line"/>
      <point x="1249.5" y="1284.0" type="line"/>
      <point x="1249.5" y="1127.0" type="line"/>
    </contour>
    <contour>
      <point x="791.0" y="1161.0" type="line"/>
      <point x="1018.5" y="1161.0" type="line"/>
      <point x="1018.5" y="0.0" type="line"/>
      <point x="791.0" y="0.0" type="line"/>
    </contour>
  </outline>
</glyph>
<glyph name="thadeva" format="1">
  <advance width="1367.0"/>
  <unicode hex="0925"/>
  <outline>
    <contour>
      <point x="694.0" y="949.0" type="curve" smooth="yes"/>
      <point x="694.0" y="746.5"/>
      <point x="537.5" y="596.5"/>
      <point x="315.5" y="515.5" type="curve"/>
      <point x="318.5" y="592.0" type="line"/>
      <point x="396.5" y="485.0"/>
      <point x="502.5" y="424.0"/>
      <point x="621.0" y="424.0" type="curve" smooth="yes"/>
      <point x="770.0" y="424.0"/>
      <point x="900.0" y="493.5"/>
      <point x="975.0" y="642.0" type="curve"/>
      <point x="976.0" y="340.0" type="line"/>
      <point x="904.5" y="275.5"/>
      <point x="809.0" y="240.0"/>
      <point x="684.0" y="240.0" type="curve" smooth="yes"/>
      <point x="454.0" y="240.0"/>
      <point x="221.5" y="373.5"/>
      <point x="100.0" y="617.5" type="curve"/>
      <point x="100.0" y="621.5" type="line"/>
      <point x="344.0" y="706.0"/>
      <point x="500.0" y="832.0"/>
      <point x="500.0" y="978.5" type="curve" smooth="yes"/>
      <point x="500.0" y="1091.0"/>
      <point x="430.5" y="1161.5"/>
      <point x="349.5" y="1161.5" type="curve" smooth="yes"/>
      <point x="276.5" y="1161.5"/>
      <point x="243.5" y="1116.0"/>
      <point x="243.5" y="1056.5" type="curve" smooth="yes"/>
      <point x="243.5" y="963.5"/>
      <point x="328.0" y="899.5"/>
      <point x="498.5" y="857.0" type="curve"/>
      <point x="427.5" y="746.0" type="line"/>
      <point x="157.5" y="811.5"/>
      <point x="45.5" y="932.0"/>
      <point x="45.5" y="1097.5" type="curve" smooth="yes"/>
      <point x="45.5" y="1219.5"/>
      <point x="135.0" y="1323.5"/>
      <point x="310.5" y="1323.5" type="curve" smooth="yes"/>
      <point x="552.0" y="1323.5"/>
      <point x="694.0" y="1147.5"/>
    </contour>
    <contour>
      <point x="922.5" y="1161.0" type="line"/>
      <point x="1150.0" y="1161.0" type="line"/>
      <point x="1150.0" y="0.0" type="line"/>
      <point x="922.5" y="0.0" type="line"/>
    </contour>
    <contour>
      <point x="1381.0" y="1127.0" type="line"/>
      <point x="807.5" y="1127.5" type="line"/>
      <point x="807.5" y="1284.0" type="line"/>
      <point x="1381.0" y="1284.0" type="line"/>
    </contour>
  </outline>
</glyph>
<glyph name="dadeva" format="1">
  <advance width="1118.0"/>
  <unicode hex="0926"/>
  <outline>
    <contour>
      <point x="-28.0" y="1127.0" type="line"/>
      <point x="-28.0" y="1284.0" type="line"/>
      <point x="1130.0" y="1284.0" type="line"/>
      <point x="1130.0" y="1127.0" type="line"/>
    </contour>
    <contour>
      <point x="686.0" y="189.0" type="line"/>
      <point x="854.5" y="246.0" type="line"/>
      <point x="1040.5" y="-119.5" type="line"/>
      <point x="871.5" y="-176.0" type="line"/>
    </contour>
    <contour>
      <point x="612.0" y="107.0" type="curve" smooth="yes"/>
      <point x="302.0" y="107.0"/>
      <point x="87.5" y="295.5"/>
      <point x="87.5" y="533.5" type="curve" smooth="yes"/>
      <point x="87.5" y="734.5"/>
      <point x="237.0" y="895.5"/>
      <point x="548.5" y="895.5" type="curve" smooth="yes"/>
      <point x="721.5" y="895.5" type="line"/>
      <point x="666.0" y="844.5" type="line"/>
      <point x="666.0" y="1167.0" type="line"/>
      <point x="894.0" y="1167.0" type="line"/>
      <point x="894.0" y="731.0" type="line"/>
      <point x="619.5" y="731.0" type="line"/>
      <point x="389.0" y="731.0"/>
      <point x="301.0" y="622.5"/>
      <point x="301.0" y="492.0" type="curve" smooth="yes"/>
      <point x="301.0" y="372.5"/>
      <point x="426.5" y="272.0"/>
      <point x="576.0" y="272.0" type="curve" smooth="yes"/>
      <point x="650.5" y="272.0"/>
      <point x="700.0" y="274.5"/>
      <point x="807.0" y="308.0" type="curve"/>
      <point x="670.0" y="223.5" type="line"/>
      <point x="639.0" y="274.0"/>
      <point x="624.5" y="324.0"/>
      <point x="624.5" y="359.0" type="curve" smooth="yes"/>
      <point x="624.5" y="406.0"/>
      <point x="661.0" y="453.5"/>
      <point x="748.0" y="453.5" type="curve" smooth="yes"/>
      <point x="901.5" y="453.5"/>
      <point x="1009.0" y="382.5"/>
      <point x="1009.0" y="309.5" type="curve" smooth="yes"/>
      <point x="1009.0" y="218.5"/>
      <point x="871.5" y="107.0"/>
    </contour>
    <contour>
      <point x="828.5" y="8.0" type="move" name="mark0"/>
    </contour>
    <contour>
      <point x="1168.5" y="8.0" type="move" name="x43"/>
    </contour>
    <contour>
      <point x="-62.5" y="8.0" type="move" name="x42"/>
    </contour>
  </outline>
</glyph>
<glyph name="dhadeva" format="1">
  <advance width="1334.0"/>
  <unicode hex="0927"/>
  <outline>
    <contour>
      <point x="705.5" y="710.0" type="line"/>
      <point x="695.0" y="709.5" type="line"/>
      <point x="495.0" y="702.5"/>
      <point x="429.5" y="622.0"/>
      <point x="429.5" y="531.0" type="curve" smooth="yes"/>
      <point x="429.5" y="447.0"/>
      <point x="508.0" y="389.5"/>
      <point x="602.5" y="390.5" type="curve" smooth="yes"/>
      <point x="738.0" y="392.5"/>
      <point x="864.5" y="476.0"/>
      <point x="937.5" y="597.0" type="curve"/>
      <point x="937.5" y="295.0" type="line"/>
      <point x="849.5" y="238.0"/>
      <point x="744.0" y="206.0"/>
      <point x="628.0" y="206.0" type="curve" smooth="yes"/>
      <point x="385.0" y="206.0"/>
      <point x="224.5" y="361.0"/>
      <point x="224.5" y="558.5" type="curve" smooth="yes"/>
      <point x="224.5" y="718.5"/>
      <point x="339.5" y="888.5"/>
      <point x="639.0" y="888.5" type="curve" smooth="yes"/>
      <point x="648.5" y="888.5" type="line"/>
    </contour>
    <contour>
      <point x="340.5" y="723.0" type="line"/>
      <point x="134.0" y="774.0"/>
      <point x="17.5" y="894.0"/>
      <point x="17.5" y="1063.5" type="curve" smooth="yes"/>
      <point x="17.5" y="1208.5"/>
      <point x="135.5" y="1324.0"/>
      <point x="342.0" y="1324.0" type="curve" smooth="yes"/>
      <point x="443.0" y="1324.0"/>
      <point x="509.0" y="1307.5"/>
      <point x="572.5" y="1283.5" type="curve"/>
      <point x="551.5" y="1139.0" type="line"/>
      <point x="504.0" y="1156.5"/>
      <point x="457.0" y="1168.0"/>
      <point x="394.5" y="1168.0" type="curve" smooth="yes"/>
      <point x="300.5" y="1168.0"/>
      <point x="245.0" y="1109.0"/>
      <point x="245.0" y="1037.0" type="curve" smooth="yes"/>
      <point x="245.0" y="939.0"/>
      <point x="325.0" y="858.0"/>
      <point x="508.0" y="844.0" type="curve"/>
    </contour>
    <contour>
      <point x="889.5" y="1160.5" type="line"/>
      <point x="1117.0" y="1160.5" type="line"/>
      <point x="1117.0" y="0.0" type="line"/>
      <point x="889.5" y="0.0" type="line"/>
    </contour>
    <contour>
      <point x="1348.0" y="1127.0" type="line"/>
      <point x="799.5" y="1127.0" type="line"/>
      <point x="799.5" y="1284.0" type="line"/>
      <point x="1348.0" y="1284.0" type="line"/>
    </contour>
  </outline>
</glyph>
<glyph name="nadeva" format="1">
  <advance width="1232.5"/>
  <unicode hex="0928"/>
  <outline>
    <contour>
      <point x="813.5" y="812.5" type="line"/>
      <point x="813.5" y="626.0" type="line"/>
      <point x="344.5" y="626.0" type="line"/>
      <point x="394.5" y="677.0" type="line"/>
      <point x="394.5" y="437.0" type="line"/>
      <point x="394.5" y="374.0"/>
      <point x="365.5" y="338.0"/>
      <point x="307.5" y="338.0" type="curve" smooth="yes"/>
      <point x="229.0" y="338.0"/>
      <point x="105.5" y="545.0"/>
      <point x="105.5" y="697.0" type="curve" smooth="yes"/>
      <point x="105.5" y="772.0"/>
      <point x="141.0" y="812.5"/>
      <point x="234.5" y="812.5" type="curve" smooth="yes"/>
    </contour>
    <contour>
      <point x="-27.5" y="1127.0" type="line"/>
      <point x="-27.5" y="1284.0" type="line"/>
      <point x="1246.5" y="1284.0" type="line"/>
      <point x="1246.5" y="1127.0" type="line"/>
    </contour>
    <contour>
      <point x="788.0" y="1161.0" type="line"/>
      <point x="1015.5" y="1161.0" type="line"/>
      <point x="1015.5" y="0.0" type="line"/>
      <point x="788.0" y="0.0" type="line"/>
    </contour>
  </outline>
</glyph>
<glyph name="phadeva" format="1">
  <advance width="1622.5"/>
  <unicode hex="092B"/>
  <outline>
    <contour>
      <point x="374.0" y="1203.0" type="line"/>
      <point x="374.0" y="748.0" type="line"/>
      <point x="374.0" y="628.5"/>
      <point x="430.0" y="557.5"/>
      <point x="541.5" y="557.5" type="curve" smooth="yes"/>
      <point x="626.0" y="557.5"/>
      <point x="704.5" y="586.5"/>
      <point x="788.0" y="657.0" type="curve"/>
      <point x="788.0" y="416.5" type="line"/>
      <point x="725.0" y="389.0"/>
      <point x="654.5" y="374.5"/>
      <point x="572.0" y="374.5" type="curve" smooth="yes"/>
      <point x="309.0" y="374.5"/>
      <point x="146.5" y="537.0"/>
      <point x="146.5" y="800.5" type="curve" smooth="yes"/>
      <point x="146.5" y="1203.0" type="line"/>
    </contour>
    <contour>
      <point x="960.5" y="480.0" type="curve"/>
      <point x="938.0" y="739.0" type="line"/>
      <point x="1006.0" y="763.5"/>
      <point x="1091.0" y="792.0"/>
      <point x="1199.5" y="792.0" type="curve" smooth="yes"/>
      <point x="1416.5" y="792.0"/>
      <point x="1567.0" y="647.0"/>
      <point x="1567.0" y="449.0" type="curve" smooth="yes"/>
      <point x="1567.0" y="325.5"/>
      <point x="1523.5" y="187.5"/>
      <point x="1445.0" y="80.0" type="curve"/>
      <point x="1260.5" y="151.0" type="line"/>
      <point x="1336.0" y="269.5"/>
      <point x="1373.5" y="370.0"/>
      <point x="1373.5" y="473.0" type="curve" smooth="yes"/>
      <point x="1373.5" y="555.0"/>
      <point x="1314.5" y="605.0"/>
      <point x="1232.0" y="605.0" type="curve" smooth="yes"/>
      <point x="1141.0" y="605.0"/>
      <point x="1039.5" y="562.0"/>
    </contour>
    <contour>
      <point x="-37.0" y="1127.0" type="line"/>
      <point x="-37.0" y="1284.0" type="line"/>
      <point x="1649.5" y="1284.0" type="line"/>
      <point x="1649.5" y="1127.0" type="line"/>
    </contour>
    <contour>
      <point x="756.5" y="1161.0" type="line"/>
      <point x="984.0" y="1161.0" type="line"/>
      <point x="984.0" y="0.0" type="line"/>
      <point x="756.5" y="0.0" type="line"/>
    </contour>
    <contour>
      <point x="868.0" y="8.0" type="move" name="x2"/>
    </contour>
    <contour>
      <point x="868.0" y="8.0" type="move" name="mark0"/>
    </contour>
    <contour>
      <point x="30.0" y="8.0" type="move" name="x43"/>
    </contour>
  </outline>
</glyph>
<glyph name="bhadeva" format="1">
  <advance width="1399.0"/>
  <unicode hex="092D"/>
  <outline>
    <contour>
      <point x="400.5" y="1012.0" type="line"/>
      <point x="400.5" y="1125.5"/>
      <point x="346.0" y="1179.0"/>
      <point x="264.0" y="1179.0" type="curve" smooth="yes"/>
      <point x="195.0" y="1179.0"/>
      <point x="160.5" y="1131.5"/>
      <point x="160.0" y="1071.5" type="curve" smooth="yes"/>
      <point x="159.5" y="995.5"/>
      <point x="227.5" y="922.0"/>
      <point x="427.0" y="915.0" type="curve"/>
      <point x="415.0" y="775.0" type="line"/>
      <point x="115.0" y="783.0"/>
      <point x="-37.5" y="920.0"/>
      <point x="-37.5" y="1100.5" type="curve" smooth="yes"/>
      <point x="-37.5" y="1227.5"/>
      <point x="48.5" y="1344.0"/>
      <point x="244.0" y="1344.0" type="curve" smooth="yes"/>
      <point x="465.0" y="1344.0"/>
      <point x="613.0" y="1202.5"/>
      <point x="613.0" y="979.0" type="curve" smooth="yes"/>
      <point x="613.0" y="626.5" type="line"/>
      <point x="580.5" y="660.5" type="line"/>
      <point x="996.5" y="660.5" type="line"/>
      <point x="996.5" y="474.0" type="line"/>
      <point x="572.0" y="474.0" type="line"/>
      <point x="613.0" y="510.0" type="line"/>
      <point x="613.0" y="377.0" type="line"/>
      <point x="613.0" y="316.0"/>
      <point x="590.5" y="283.0"/>
      <point x="530.0" y="283.0" type="curve" smooth="yes"/>
      <point x="416.5" y="283.0"/>
      <point x="239.0" y="476.0"/>
      <point x="239.0" y="572.0" type="curve" smooth="yes"/>
      <point x="239.0" y="628.5"/>
      <point x="268.5" y="659.5"/>
      <point x="333.0" y="659.5" type="curve" smooth="yes"/>
      <point x="432.5" y="659.5" type="line"/>
      <point x="400.5" y="630.5" type="line"/>
    </contour>
    <contour>
      <point x="954.5" y="1161.0" type="line"/>
      <point x="1182.0" y="1161.0" type="line"/>
      <point x="1182.0" y="0.0" type="line"/>
      <point x="954.5" y="0.0" type="line"/>
    </contour>
    <contour>
      <point x="1413.0" y="1127.0" type="line"/>
      <point x="814.5" y="1127.0" type="line"/>
      <point x="814.5" y="1284.0" type="line"/>
      <point x="1413.0" y="1284.0" type="line"/>
    </contour>
  </outline>
</glyph>
<glyph name="radeva" format="1">
  <advance width="966.0"/>
  <unicode hex="0930"/>
  <outline>
    <contour>
      <point x="782.5" y="75.0" type="line"/>
      <point x="619.5" y="-34.0" type="line"/>
      <point x="135.5" y="617.5" type="line"/>
      <point x="92.0" y="675.0"/>
      <point x="67.5" y="723.5"/>
      <point x="67.5" y="767.5" type="curve" smooth="yes"/>
      <point x="67.5" y="817.5"/>
      <point x="105.0" y="860.0"/>
      <point x="162.5" y="860.0" type="curve" smooth="yes"/>
      <point x="211.0" y="860.0"/>
      <point x="253.0" y="814.5"/>
      <point x="290.5" y="764.5" type="curve" smooth="yes"/>
      <point x="398.0" y="618.0" type="line"/>
      <point x="396.0" y="597.5" type="line"/>
    </contour>
    <contour>
      <point x="313.5" y="650.5" type="line"/>
      <point x="480.5" y="693.0"/>
      <point x="546.0" y="785.5"/>
      <point x="546.0" y="938.5" type="curve" smooth="yes"/>
      <point x="546.0" y="1172.0" type="line"/>
      <point x="773.5" y="1172.0" type="line"/>
      <point x="773.5" y="903.5" type="line"/>
      <point x="773.5" y="721.0"/>
      <point x="677.0" y="540.0"/>
      <point x="447.0" y="469.5" type="curve"/>
    </contour>
    <contour>
      <point x="-23.5" y="1127.0" type="line"/>
      <point x="-23.5" y="1284.0" type="line"/>
      <point x="988.5" y="1284.0" type="line"/>
      <point x="988.5" y="1127.0" type="line"/>
    </contour>
    <contour>
      <point x="47.0" y="8.0" type="move" name="x27"/>
    </contour>
    <contour>
      <point x="561.0" y="8.0" type="move" name="mark0"/>
    </contour>
  </outline>
</glyph>
<glyph name="lladeva" format="1">
  <advance width="1557.0"/>
  <unicode hex="0933"/>
  <outline>
    <contour>
      <point x="1586.0" y="1127.0" type="line"/>
      <point x="-44.5" y="1127.0" type="line"/>
      <point x="-44.5" y="1284.0" type="line"/>
      <point x="1586.0" y="1284.0" type="line"/>
    </contour>
    <contour>
      <point x="698.5" y="546.0" type="curve" smooth="yes"/>
      <point x="779.0" y="766.0"/>
      <point x="897.5" y="903.0"/>
      <point x="1120.5" y="903.0" type="curve" smooth="yes"/>
      <point x="1374.5" y="903.0"/>
      <point x="1507.5" y="710.0"/>
      <point x="1507.5" y="494.0" type="curve" smooth="yes"/>
      <point x="1507.5" y="276.0"/>
      <point x="1356.0" y="113.5"/>
      <point x="1136.0" y="113.5" type="curve" smooth="yes"/>
      <point x="979.5" y="113.5"/>
      <point x="838.5" y="187.5"/>
      <point x="686.5" y="318.0" type="curve"/>
      <point x="769.0" y="452.5" type="line"/>
      <point x="893.5" y="342.5"/>
      <point x="992.0" y="291.5"/>
      <point x="1089.0" y="291.5" type="curve" smooth="yes"/>
      <point x="1216.0" y="291.5"/>
      <point x="1309.0" y="382.0"/>
      <point x="1309.0" y="523.5" type="curve" smooth="yes"/>
      <point x="1309.0" y="638.0"/>
      <point x="1236.5" y="714.5"/>
      <point x="1142.5" y="714.5" type="curve" smooth="yes"/>
      <point x="1048.0" y="714.5"/>
      <point x="957.5" y="633.0"/>
      <point x="906.5" y="484.0" type="curve" smooth="yes"/>
      <point x="826.5" y="266.0"/>
      <point x="696.5" y="106.0"/>
      <point x="487.5" y="106.0" type="curve" smooth="yes"/>
      <point x="248.5" y="106.0"/>
      <point x="86.0" y="267.5"/>
      <point x="86.0" y="518.5" type="curve" smooth="yes"/>
      <point x="86.0" y="738.0"/>
      <point x="238.5" y="897.5"/>
      <point x="464.5" y="897.5" type="curve" smooth="yes"/>
      <point x="632.5" y="897.5"/>
      <point x="753.5" y="826.0"/>
      <point x="889.0" y="705.5" type="curve"/>
      <point x="823.5" y="560.5" type="line"/>
      <point x="703.0" y="673.0"/>
      <point x="610.5" y="723.5"/>
      <point x="502.0" y="723.5" type="curve" smooth="yes"/>
      <point x="382.5" y="723.5"/>
      <point x="288.0" y="636.0"/>
      <point x="288.0" y="482.5" type="curve" smooth="yes"/>
      <point x="288.0" y="348.5"/>
      <point x="370.0" y="288.5"/>
      <point x="455.5" y="288.5" type="curve" smooth="yes"/>
      <point x="551.5" y="288.5"/>
      <point x="635.0" y="372.5"/>
    </contour>
    <contour>
      <point x="1232.5" y="823.0" type="line"/>
      <point x="1015.0" y="826.0" type="line"/>
      <point x="1015.0" y="1151.0" type="line"/>
      <point x="1232.5" y="1151.0" type="line"/>
    </contour>
    <contour>
      <point x="973.5" y="-11.0" type="move" name="mark0"/>
    </contour>
  </outline>
</glyph>
<glyph name="vadeva" format="1">
  <advance width="1210.0"/>
  <unicode hex="0935"/>
  <outline>
    <contour>
      <point x="1224.0" y="1127.0" type="line"/>
      <point x="-22.0" y="1127.0" type="line"/>
      <point x="-22.0" y="1284.0" type="line"/>
      <point x="1224.0" y="1284.0" type="line"/>
    </contour>
    <contour>
      <point x="800.5" y="561.0" type="curve"/>
      <point x="800.5" y="314.5" type="line"/>
      <point x="725.5" y="252.5"/>
      <point x="629.5" y="221.5"/>
      <point x="535.5" y="221.5" type="curve" smooth="yes"/>
      <point x="256.5" y="221.5"/>
      <point x="90.5" y="416.0"/>
      <point x="90.5" y="631.5" type="curve" smooth="yes"/>
      <point x="90.5" y="814.5"/>
      <point x="243.0" y="943.0"/>
      <point x="461.5" y="943.0" type="curve" smooth="yes"/>
      <point x="619.5" y="943.0"/>
      <point x="718.5" y="916.5"/>
      <point x="842.5" y="857.0" type="curve"/>
      <point x="842.5" y="683.5" type="line"/>
      <point x="715.0" y="750.5"/>
      <point x="639.5" y="772.5"/>
      <point x="528.0" y="772.5" type="curve" smooth="yes"/>
      <point x="376.5" y="772.5"/>
      <point x="301.0" y="694.0"/>
      <point x="301.0" y="590.0" type="curve" smooth="yes"/>
      <point x="301.0" y="490.0"/>
      <point x="378.0" y="400.5"/>
      <point x="499.0" y="400.5" type="curve" smooth="yes"/>
      <point x="613.0" y="400.5"/>
      <point x="705.5" y="445.5"/>
    </contour>
    <contour>
      <point x="766.0" y="1161.0" type="line"/>
      <point x="993.5" y="1161.0" type="line"/>
      <point x="993.5" y="0.0" type="line"/>
      <point x="766.0" y="0.0" type="line"/>
    </contour>
  </outline>
</glyph>
<glyph name="shadeva" format="1">
  <advance width="1576.5"/>
  <unicode hex="0936"/>
  <outline>
    <contour>
      <point x="527.5" y="438.0" type="line"/>
      <point x="864.5" y="100.5" type="line"/>
      <point x="728.5" y="-22.0" type="line"/>
      <point x="363.5" y="349.0" type="line"/>
    </contour>
    <contour>
      <point x="282.0" y="271.5" type="curve" smooth="yes"/>
      <point x="184.0" y="271.5"/>
      <point x="146.5" y="336.5"/>
      <point x="146.5" y="416.5" type="curve" smooth="yes"/>
      <point x="146.5" y="504.0"/>
      <point x="206.0" y="600.5"/>
      <point x="294.5" y="600.5" type="curve" smooth="yes"/>
      <point x="358.5" y="600.5"/>
      <point x="411.5" y="562.0"/>
      <point x="483.0" y="486.0" type="curve"/>
      <point x="388.5" y="490.5" type="line"/>
      <point x="565.5" y="554.5"/>
      <point x="718.5" y="723.0"/>
      <point x="718.5" y="925.0" type="curve" smooth="yes"/>
      <point x="718.5" y="1042.5"/>
      <point x="624.5" y="1147.5"/>
      <point x="498.0" y="1147.5" type="curve" smooth="yes"/>
      <point x="420.0" y="1147.5"/>
      <point x="370.5" y="1096.5"/>
      <point x="370.5" y="1031.5" type="curve" smooth="yes"/>
      <point x="370.5" y="940.0"/>
      <point x="480.0" y="843.5"/>
      <point x="771.5" y="830.0" type="curve"/>
      <point x="717.0" y="687.5" type="line"/>
      <point x="320.0" y="720.0"/>
      <point x="177.0" y="886.5"/>
      <point x="177.0" y="1061.5" type="curve" smooth="yes"/>
      <point x="177.0" y="1197.5"/>
      <point x="280.5" y="1315.5"/>
      <point x="476.5" y="1315.5" type="curve" smooth="yes"/>
      <point x="730.0" y="1315.5"/>
      <point x="906.0" y="1149.0"/>
      <point x="906.0" y="894.0" type="curve" smooth="yes"/>
      <point x="906.0" y="539.0"/>
      <point x="503.0" y="271.5"/>
    </contour>
    <contour>
      <point x="1132.0" y="1161.0" type="line"/>
      <point x="1359.5" y="1161.0" type="line"/>
      <point x="1359.5" y="0.0" type="line"/>
      <point x="1132.0" y="0.0" type="line"/>
    </contour>
    <contour>
      <point x="1590.5" y="1127.0" type="line"/>
      <point x="981.5" y="1127.0" type="line"/>
      <point x="981.5" y="1284.0" type="line"/>
      <point x="1590.5" y="1284.0" type="line"/>
    </contour>
  </outline>
</glyph>
<glyph name="sadeva" format="1">
  <advance width="1519.0"/>
  <unicode hex="0938"/>
  <outline>
    <contour>
      <point x="769.0" y="75.0" type="line"/>
      <point x="606.0" y="-34.0" type="line"/>
      <point x="122.0" y="617.5" type="line"/>
      <point x="78.5" y="675.0"/>
      <point x="54.0" y="723.5"/>
      <point x="54.0" y="767.5" type="curve" smooth="yes"/>
      <point x="54.0" y="817.5"/>
      <point x="91.5" y="860.0"/>
      <point x="149.0" y="860.0" type="curve" smooth="yes"/>
      <point x="197.5" y="860.0"/>
      <point x="239.5" y="814.5"/>
      <point x="277.0" y="764.5" type="curve" smooth="yes"/>
      <point x="380.0" y="624.0" type="line"/>
      <point x="376.0" y="607.0" type="line"/>
    </contour>
    <contour>
      <point x="253.5" y="653.5" type="line"/>
      <point x="410.5" y="696.0"/>
      <point x="477.5" y="785.5"/>
      <point x="477.5" y="943.5" type="curve" smooth="yes"/>
      <point x="477.5" y="1172.0" type="line"/>
      <point x="705.0" y="1172.0" type="line"/>
      <point x="705.0" y="908.5" type="line"/>
      <point x="705.0" y="726.0"/>
      <point x="612.0" y="560.0"/>
      <point x="377.0" y="479.5" type="curve"/>
    </contour>
    <contour>
      <point x="-28.0" y="1127.0" type="line"/>
      <point x="-28.0" y="1284.0" type="line"/>
      <point x="1533.0" y="1284.0" type="line"/>
      <point x="1533.0" y="1127.0" type="line"/>
    </contour>
    <contour>
      <point x="502.5" y="566.5" type="curve"/>
      <point x="584.5" y="724.0" type="line"/>
      <point x="679.5" y="684.5"/>
      <point x="774.0" y="671.0"/>
      <point x="847.5" y="671.0" type="curve" smooth="yes"/>
      <point x="937.0" y="671.0"/>
      <point x="1025.0" y="683.0"/>
      <point x="1099.5" y="705.5" type="curve"/>
      <point x="1099.5" y="510.5" type="line"/>
      <point x="1045.5" y="495.5"/>
      <point x="973.5" y="482.0"/>
      <point x="884.0" y="482.0" type="curve" smooth="yes"/>
      <point x="764.0" y="482.0"/>
      <point x="641.5" y="504.5"/>
    </contour>
    <contour>
      <point x="1075.0" y="1161.0" type="line"/>
      <point x="1302.5" y="1161.0" type="line"/>
      <point x="1302.5" y="0.0" type="line"/>
      <point x="1075.0" y="0.0" type="line"/>
    </contour>
  </outline>
</glyph>
<glyph name="aavowelsigndeva" format="1">
  <advance width="625.0"/>
  <unicode hex="093E"/>
  <outline>
    <contour>
      <point x="180.5" y="1161.0" type="line"/>
      <point x="408.0" y="1161.0" type="line"/>
      <point x="408.0" y="0.0" type="line"/>
      <point x="180.5" y="0.0" type="line"/>
    </contour>
    <contour>
      <point x="639.0" y="1127.0" type="line"/>
      <point x="-15.0" y="1127.0" type="line"/>
      <point x="-15.0" y="1284.0" type="line"/>
      <point x="639.0" y="1284.0" type="line"/>
    </contour>
  </outline>
</glyph>
<glyph name="iivowelsigndeva" format="1">
  <advance width="625.0"/>
  <unicode hex="0940"/>
  <outline>
    <contour>
      <point x="177.5" y="1239.0" type="line"/>
      <point x="80.0" y="1465.0"/>
      <point x="-70.0" y="1613.5"/>
      <point x="-216.5" y="1613.5" type="curve" smooth="yes"/>
      <point x="-310.5" y="1613.5"/>
      <point x="-357.0" y="1560.0"/>
      <point x="-357.0" y="1483.0" type="curve" smooth="yes"/>
      <point x="-357.0" y="1404.5"/>
      <point x="-315.0" y="1343.5"/>
      <point x="-240.0" y="1255.0" type="curve"/>
      <point x="-454.0" y="1255.0" type="line"/>
      <point x="-516.0" y="1324.5"/>
      <point x="-572.5" y="1429.5"/>
      <point x="-572.5" y="1544.5" type="curve" smooth="yes"/>
      <point x="-572.5" y="1679.0"/>
      <point x="-479.0" y="1807.5"/>
      <point x="-264.5" y="1807.5" type="curve" smooth="yes"/>
      <point x="19.5" y="1807.5"/>
      <point x="249.5" y="1609.0"/>
      <point x="397.5" y="1239.0" type="curve"/>
    </contour>
    <component base="aavowelsigndeva"/>
  </outline>
</glyph>
<glyph name="uuvowelsigndeva" format="1">
  <unicode hex="0942"/>
  <outline>
    <contour>
      <point x="-69.0" y="-534.5" type="line"/>
      <point x="-178.0" y="-568.5"/>
      <point x="-220.0" y="-576.5"/>
      <point x="-305.0" y="-576.5" type="curve" smooth="yes"/>
      <point x="-496.0" y="-576.5"/>
      <point x="-673.5" y="-449.5"/>
      <point x="-673.5" y="-269.5" type="curve" smooth="yes"/>
      <point x="-673.5" y="-103.5"/>
      <point x="-539.5" y="21.5"/>
      <point x="-339.0" y="21.5" type="curve" smooth="yes"/>
      <point x="-93.5" y="21.5"/>
      <point x="59.5" y="-82.5"/>
      <point x="304.5" y="-381.0" type="curve"/>
      <point x="197.0" y="-508.0" type="line"/>
      <point x="-27.0" y="-237.0"/>
      <point x="-154.0" y="-164.5"/>
      <point x="-296.0" y="-164.5" type="curve" smooth="yes"/>
      <point x="-410.0" y="-164.5"/>
      <point x="-468.0" y="-224.5"/>
      <point x="-468.0" y="-302.0" type="curve" smooth="yes"/>
      <point x="-468.0" y="-367.5"/>
      <point x="-413.0" y="-421.0"/>
      <point x="-311.5" y="-421.0" type="curve" smooth="yes"/>
      <point x="-249.5" y="-421.0"/>
      <point x="-200.5" y="-408.5"/>
      <point x="-122.5" y="-375.5" type="curve"/>
    </contour>
    <contour>
      <point x="49.0" y="8.0" type="move" name="x24"/>
    </contour>
    <contour>
      <point x="-424.0" y="8.0" type="move" name="_mark0"/>
    </contour>
  </outline>
</glyph>
<glyph name="rvocalicvowelsigndeva" format="1">
  <unicode hex="0943"/>
  <outline>
    <contour>
      <point x="-142.0" y="-454.5" type="line"/>
      <point x="-234.0" y="-485.5"/>
      <point x="-283.0" y="-494.0"/>
      <point x="-360.0" y="-494.0" type="curve" smooth="yes"/>
      <point x="-548.0" y="-494.0"/>
      <point x="-695.0" y="-391.5"/>
      <point x="-695.0" y="-225.0" type="curve" smooth="yes"/>
      <point x="-695.0" y="-75.5"/>
      <point x="-561.0" y="32.5"/>
      <point x="-361.0" y="32.5" type="curve" smooth="yes"/>
      <point x="-302.0" y="32.5"/>
      <point x="-252.0" y="24.5"/>
      <point x="-217.0" y="17.0" type="curve"/>
      <point x="-217.0" y="-104.5" type="line"/>
      <point x="-247.0" y="-104.5"/>
      <point x="-285.5" y="-104.5"/>
      <point x="-318.0" y="-104.5" type="curve" smooth="yes"/>
      <point x="-441.0" y="-104.5"/>
      <point x="-504.0" y="-175.0"/>
      <point x="-504.0" y="-242.5" type="curve" smooth="yes"/>
      <point x="-504.0" y="-303.5"/>
      <point x="-456.0" y="-350.0"/>
      <point x="-360.0" y="-350.0" type="curve" smooth="yes"/>
      <point x="-303.0" y="-350.0"/>
      <point x="-248.5" y="-338.5"/>
      <point x="-168.5" y="-305.5" type="curve"/>
    </contour>
    <contour>
      <point x="-386.0" y="-11.0" type="move" name="_mark0"/>
    </contour>
  </outline>
</glyph>
<glyph name="eshortvowelsigndeva" format="1">
  <unicode hex="0946"/>
  <outline>
    <contour>
      <point x="-445.0" y="1244.0" type="line"/>
      <point x="-445.0" y="1362.5" type="line"/>
      <point x="-445.0" y="1439.5"/>
      <point x="-482.0" y="1477.5"/>
      <point x="-556.0" y="1477.5" type="curve" smooth="yes"/>
      <point x="-627.5" y="1477.5"/>
      <point x="-695.0" y="1435.5"/>
      <point x="-813.0" y="1435.5" type="curve" smooth="yes"/>
      <point x="-942.0" y="1435.5"/>
      <point x="-1030.0" y="1491.5"/>
      <point x="-1115.0" y="1595.0" type="curve"/>
      <point x="-1031.5" y="1730.0" type="line"/>
      <point x="-943.5" y="1643.0"/>
      <point x="-888.5" y="1615.5"/>
      <point x="-819.5" y="1615.5" type="curve" smooth="yes"/>
      <point x="-723.0" y="1615.5"/>
      <point x="-630.0" y="1672.0"/>
      <point x="-494.0" y="1672.0" type="curve" smooth="yes"/>
      <point x="-343.0" y="1672.0"/>
      <point x="-241.0" y="1564.0"/>
      <point x="-241.0" y="1387.0" type="curve" smooth="yes"/>
      <point x="-241.0" y="1244.0" type="line"/>
    </contour>
    <contour>
      <point x="-386.0" y="1263.0" type="move" name="_mark0"/>
    </contour>
  </outline>
</glyph>
<glyph name="omdeva" format="1">
  <advance width="2001.0"/>
  <unicode hex="0950"/>
  <outline>
    <contour>
      <point x="361.0" y="638.5" type="line"/>
      <point x="319.0" y="811.0" type="line"/>
      <point x="331.0" y="811.5" type="line"/>
      <point x="627.5" y="822.0"/>
      <point x="696.0" y="895.5"/>
      <point x="696.0" y="996.5" type="curve" smooth="yes"/>
      <point x="696.0" y="1067.5"/>
      <point x="644.5" y="1121.5"/>
      <point x="534.5" y="1121.5" type="curve" smooth="yes"/>
      <point x="439.5" y="1121.5"/>
      <point x="343.5" y="1089.0"/>
      <point x="244.5" y="1034.0" type="curve"/>
      <point x="188.5" y="1206.0" type="line"/>
      <point x="290.5" y="1256.0"/>
      <point x="401.5" y="1291.5"/>
      <point x="541.0" y="1291.5" type="curve" smooth="yes"/>
      <point x="775.0" y="1291.5"/>
      <point x="898.5" y="1162.5"/>
      <point x="898.5" y="970.5" type="curve" smooth="yes"/>
      <point x="898.5" y="780.5"/>
      <point x="734.0" y="654.0"/>
      <point x="378.0" y="639.5" type="curve" smooth="yes"/>
    </contour>
    <contour>
      <point x="690.5" y="794.5" type="line"/>
      <point x="843.5" y="717.5"/>
      <point x="951.0" y="606.5"/>
      <point x="951.0" y="438.5" type="curve" smooth="yes"/>
      <point x="951.0" y="266.5"/>
      <point x="817.0" y="120.5"/>
      <point x="592.0" y="120.5" type="curve" smooth="yes"/>
      <point x="437.0" y="120.5"/>
      <point x="307.5" y="169.5"/>
      <point x="132.0" y="290.0" type="curve"/>
      <point x="180.0" y="458.5" type="line"/>
      <point x="323.5" y="347.0"/>
      <point x="424.5" y="307.5"/>
      <point x="530.5" y="307.5" type="curve" smooth="yes"/>
      <point x="664.5" y="307.5"/>
      <point x="743.0" y="379.0"/>
      <point x="743.0" y="483.0" type="curve" smooth="yes"/>
      <point x="743.0" y="565.0"/>
      <point x="680.5" y="648.5"/>
      <point x="566.5" y="694.0" type="curve"/>
    </contour>
    <contour>
      <point x="1328.0" y="915.0" type="curve" smooth="yes"/>
      <point x="1297.5" y="986.5"/>
      <point x="1319.0" y="1052.0"/>
      <point x="1418.0" y="955.0" type="curve" smooth="yes"/>
      <point x="1536.5" y="878.5"/>
      <point x="1567.5" y="699.0"/>
      <point x="1490.0" y="586.0" type="curve" smooth="yes"/>
      <point x="1472.5" y="477.5"/>
      <point x="1371.5" y="383.0"/>
      <point x="1229.5" y="386.0" type="curve"/>
      <point x="1136.0" y="386.0"/>
      <point x="1068.0" y="460.5"/>
      <point x="991.5" y="522.5" type="curve"/>
      <point x="994.5" y="519.5"/>
      <point x="1077.0" y="616.5"/>
      <point x="1093.0" y="616.5" type="curve" smooth="yes"/>
      <point x="1188.0" y="582.0"/>
      <point x="1275.0" y="591.5"/>
      <point x="1357.5" y="675.5" type="curve" smooth="yes"/>
      <point x="1455.5" y="791.5"/>
      <point x="1555.5" y="881.5"/>
      <point x="1627.5" y="930.5" type="curve" smooth="yes"/>
      <point x="1721.0" y="968.0"/>
      <point x="1770.0" y="913.5"/>
      <point x="1743.5" y="799.0" type="curve" smooth="yes"/>
      <point x="1713.0" y="689.5"/>
      <point x="1603.0" y="596.0"/>
      <point x="1494.0" y="544.5" type="curve" smooth="yes"/>
      <point x="1376.5" y="419.5"/>
      <point x="1253.0" y="386.0"/>
      <point x="1096.0" y="454.5" type="curve"/>
      <point x="1044.0" y="454.5"/>
      <point x="1035.0" y="490.0"/>
      <point x="1000.0" y="499.0" type="curve"/>
      <point x="1072.0" y="430.5"/>
      <point x="1112.0" y="536.5"/>
      <point x="1158.0" y="536.5" type="curve" smooth="yes"/>
      <point x="1271.5" y="526.0"/>
      <point x="1347.5" y="569.0"/>
      <point x="1371.0" y="664.0" type="curve" smooth="yes"/>
      <point x="1401.0" y="744.0"/>
      <point x="1366.0" y="843.0"/>
    </contour>
    <component base="candrabindudeva" xOffset="1486.5" yOffset="-95.5"/>
  </outline>
</glyph>
<glyph name="llvocalicdeva" format="1">
  <advance width="1483.0"/>
  <unicode hex="0961"/>
  <outline>
    <contour>
      <point x="903.0" y="642.0" type="curve"/>
      <point x="771.5" y="526.5" type="line"/>
      <point x="680.5" y="655.5"/>
      <point x="598.0" y="714.0"/>
      <point x="480.5" y="714.0" type="curve" smooth="yes"/>
      <point x="372.0" y="714.0"/>
      <point x="300.5" y="630.0"/>
      <point x="300.5" y="527.5" type="curve" smooth="yes"/>
      <point x="300.5" y="413.5"/>
      <point x="357.5" y="312.0"/>
      <point x="527.5" y="164.0" type="curve"/>
      <point x="371.5" y="75.5" type="line"/>
      <point x="178.5" y="241.0"/>
      <point x="85.5" y="413.5"/>
      <point x="85.5" y="576.5" type="curve" smooth="yes"/>
      <point x="85.5" y="760.5"/>
      <point x="212.0" y="906.5"/>
      <point x="434.5" y="906.5" type="curve" smooth="yes"/>
      <point x="628.5" y="906.5"/>
      <point x="770.0" y="799.5"/>
    </contour>
    <contour>
      <point x="1499.0" y="1127.0" type="line"/>
      <point x="-30.0" y="1127.0" type="line"/>
      <point x="-30.0" y="1284.0" type="line"/>
      <point x="1499.0" y="1284.0" type="line"/>
    </contour>
    <contour>
      <point x="979.5" y="1161.0" type="line"/>
      <point x="1207.0" y="1161.0" type="line"/>
      <point x="1207.0" y="790.0" type="line"/>
      <point x="979.5" y="790.0" type="line"/>
    </contour>
    <contour>
      <point x="1237.5" y="349.5" type="curve"/>
      <point x="1128.0" y="264.5" type="line"/>
      <point x="1194.0" y="345.0"/>
      <point x="1227.5" y="439.5"/>
      <point x="1227.5" y="527.5" type="curve" smooth="yes"/>
      <point x="1227.5" y="612.0"/>
      <point x="1170.5" y="673.5"/>
      <point x="1074.5" y="673.5" type="curve" smooth="yes"/>
      <point x="956.0" y="673.5"/>
      <point x="854.5" y="558.0"/>
      <point x="805.5" y="349.0" type="curve"/>
      <point x="613.0" y="418.5" type="line"/>
      <point x="670.5" y="663.0"/>
      <point x="802.5" y="862.5"/>
      <point x="1060.5" y="864.5" type="curve" smooth="yes"/>
      <point x="1276.0" y="866.0"/>
      <point x="1425.0" y="705.0"/>
      <point x="1425.0" y="508.5" type="curve" smooth="yes"/>
      <point x="1425.0" y="411.5"/>
      <point x="1389.5" y="309.5"/>
      <point x="1334.0" y="221.5" type="curve"/>
      <point x="1328.0" y="221.5"/>
      <point x="1318.5" y="221.5"/>
      <point x="1312.5" y="221.5" type="curve" smooth="yes"/>
      <point x="1183.0" y="221.5"/>
      <point x="1139.5" y="162.0"/>
      <point x="1139.5" y="107.5" type="curve" smooth="yes"/>
      <point x="1139.5" y="55.5"/>
      <point x="1180.5" y="11.5"/>
      <point x="1267.5" y="11.5" type="curve" smooth="yes"/>
      <point x="1319.5" y="11.5"/>
      <point x="1362.5" y="19.5"/>
      <point x="1448.5" y="44.5" type="curve"/>
      <point x="1476.5" y="-90.0" type="line"/>
      <point x="1393.5" y="-111.5"/>
      <point x="1329.5" y="-121.0"/>
      <point x="1262.5" y="-121.0" type="curve" smooth="yes"/>
      <point x="1059.5" y="-121.0"/>
      <point x="943.5" y="-15.0"/>
      <point x="943.5" y="118.5" type="curve" smooth="yes"/>
      <point x="943.5" y="240.0"/>
      <point x="1050.0" y="337.0"/>
    </contour>
    <contour>
      <point x="1551.5" y="-373.5" type="line"/>
      <point x="1493.5" y="-396.0"/>
      <point x="1408.5" y="-416.0"/>
      <point x="1336.5" y="-416.0" type="curve" smooth="yes"/>
      <point x="1143.5" y="-416.0"/>
      <point x="1063.0" y="-315.5"/>
      <point x="1063.0" y="-211.0" type="curve" smooth="yes"/>
      <point x="1063.0" y="-87.0"/>
      <point x="1179.0" y="-1.0"/>
      <point x="1363.5" y="0.0" type="curve"/>
      <point x="1391.0" y="-93.0" type="line"/>
      <point x="1291.5" y="-96.0"/>
      <point x="1239.5" y="-149.5"/>
      <point x="1239.5" y="-205.5" type="curve" smooth="yes"/>
      <point x="1239.5" y="-252.5"/>
      <point x="1273.0" y="-289.5"/>
      <point x="1356.5" y="-289.5" type="curve" smooth="yes"/>
      <point x="1408.5" y="-289.5"/>
      <point x="1457.0" y="-278.0"/>
      <point x="1525.0" y="-249.5" type="curve"/>
    </contour>
    <contour>
      <point x="1055.5" y="1263.0" type="move" name="mark0"/>
    </contour>
  </outline>
</glyph>
<glyph name="llvocalicvowelsigndeva" format="1">
  <advance width="-1.0"/>
  <unicode hex="0963"/>
  <outline>
    <contour>
      <point x="-356.0" y="-247.5" type="curve"/>
      <point x="-433.5" y="-312.5" type="line"/>
      <point x="-484.0" y="-243.0"/>
      <point x="-528.5" y="-212.0"/>
      <point x="-593.5" y="-212.0" type="curve" smooth="yes"/>
      <point x="-653.0" y="-212.0"/>
      <point x="-689.0" y="-256.5"/>
      <point x="-689.0" y="-309.0" type="curve" smooth="yes"/>
      <point x="-689.0" y="-370.0"/>
      <point x="-658.0" y="-422.0"/>
      <point x="-564.5" y="-501.0" type="curve"/>
      <point x="-655.0" y="-553.5" type="line"/>
      <point x="-762.5" y="-465.0"/>
      <point x="-814.0" y="-372.0"/>
      <point x="-814.0" y="-284.0" type="curve" smooth="yes"/>
      <point x="-814.0" y="-183.0"/>
      <point x="-747.5" y="-103.5"/>
      <point x="-619.5" y="-103.5" type="curve" smooth="yes"/>
      <point x="-511.5" y="-103.5"/>
      <point x="-431.0" y="-162.0"/>
    </contour>
    <contour>
      <point x="3.0" y="-793.5" type="line"/>
      <point x="-29.5" y="-807.5"/>
      <point x="-76.5" y="-817.5"/>
      <point x="-117.5" y="-817.5" type="curve" smooth="yes"/>
      <point x="-225.0" y="-817.5"/>
      <point x="-272.5" y="-762.0"/>
      <point x="-272.5" y="-704.5" type="curve" smooth="yes"/>
      <point x="-272.5" y="-638.0"/>
      <point x="-204.5" y="-589.0"/>
      <point x="-101.5" y="-588.5" type="curve"/>
      <point x="-85.5" y="-642.5" type="line"/>
      <point x="-141.5" y="-643.5"/>
      <point x="-167.5" y="-672.0"/>
      <point x="-167.5" y="-701.0" type="curve" smooth="yes"/>
      <point x="-167.5" y="-727.0"/>
      <point x="-150.0" y="-744.5"/>
      <point x="-106.0" y="-744.5" type="curve" smooth="yes"/>
      <point x="-77.0" y="-744.5"/>
      <point x="-49.5" y="-737.5"/>
      <point x="-12.0" y="-722.5" type="curve"/>
    </contour>
    <contour>
      <point x="-172.5" y="-401.5" type="curve"/>
      <point x="-237.5" y="-448.5" type="line"/>
      <point x="-201.0" y="-405.5"/>
      <point x="-183.0" y="-354.0"/>
      <point x="-183.0" y="-307.5" type="curve" smooth="yes"/>
      <point x="-183.0" y="-267.0"/>
      <point x="-210.5" y="-235.0"/>
      <point x="-261.5" y="-235.0" type="curve" smooth="yes"/>
      <point x="-327.0" y="-235.0"/>
      <point x="-383.0" y="-295.0"/>
      <point x="-410.0" y="-406.5" type="curve"/>
      <point x="-522.0" y="-367.0" type="line"/>
      <point x="-490.5" y="-236.0"/>
      <point x="-415.5" y="-127.0"/>
      <point x="-272.0" y="-126.5" type="curve" smooth="yes"/>
      <point x="-149.5" y="-125.5"/>
      <point x="-67.5" y="-213.0"/>
      <point x="-67.5" y="-318.5" type="curve" smooth="yes"/>
      <point x="-67.5" y="-370.5"/>
      <point x="-86.0" y="-428.0"/>
      <point x="-117.0" y="-475.0" type="curve"/>
      <point x="-121.5" y="-475.0"/>
      <point x="-126.5" y="-475.0"/>
      <point x="-130.0" y="-475.0" type="curve" smooth="yes"/>
      <point x="-198.5" y="-475.0"/>
      <point x="-223.0" y="-506.0"/>
      <point x="-223.0" y="-534.0" type="curve" smooth="yes"/>
      <point x="-223.0" y="-561.0"/>
      <point x="-201.0" y="-582.0"/>
      <point x="-155.0" y="-582.0" type="curve" smooth="yes"/>
      <point x="-126.5" y="-582.0"/>
      <point x="-102.0" y="-578.0"/>
      <point x="-55.0" y="-564.0" type="curve"/>
      <point x="-39.0" y="-641.0" type="line"/>
      <point x="-85.5" y="-653.0"/>
      <point x="-120.5" y="-658.0"/>
      <point x="-157.5" y="-658.0" type="curve" smooth="yes"/>
      <point x="-271.5" y="-658.0"/>
      <point x="-339.0" y="-600.5"/>
      <point x="-339.0" y="-527.5" type="curve" smooth="yes"/>
      <point x="-339.0" y="-462.5"/>
      <point x="-281.0" y="-408.5"/>
    </contour>
    <contour>
      <point x="-386.0" y="-11.0" type="move" name="_mark0"/>
    </contour>
  </outline>
</glyph>
<glyph name="zerodeva" format="1">
  <advance width="1206.0"/>
  <unicode hex="0966"/>
  <outline>
    <contour>
      <point x="571.0" y="1099.5" type="curve" smooth="yes"/>
      <point x="873.0" y="1099.5"/>
      <point x="1066.5" y="893.5"/>
      <point x="1066.5" y="638.5" type="curve" smooth="yes"/>
      <point x="1066.5" y="424.0"/>
      <point x="899.5" y="230.5"/>
      <point x="628.5" y="230.5" type="curve" smooth="yes"/>
      <point x="332.5" y="230.5"/>
      <point x="131.0" y="437.5"/>
      <point x="131.0" y="694.5" type="curve" smooth="yes"/>
      <point x="131.0" y="903.5"/>
      <point x="304.0" y="1099.5"/>
    </contour>
    <contour>
      <point x="591.5" y="404.0" type="curve" smooth="yes"/>
      <point x="765.0" y="404.0"/>
      <point x="868.0" y="533.0"/>
      <point x="868.0" y="686.0" type="curve" smooth="yes"/>
      <point x="868.0" y="816.5"/>
      <point x="758.0" y="931.0"/>
      <point x="617.0" y="931.0" type="curve" smooth="yes"/>
      <point x="445.0" y="931.0"/>
      <point x="338.5" y="803.5"/>
      <point x="338.5" y="650.5" type="curve" smooth="yes"/>
      <point x="338.5" y="510.0"/>
      <point x="456.5" y="404.0"/>
    </contour>
  </outline>
</glyph>
<glyph name="onedeva" format="1">
  <advance width="1012.0"/>
  <unicode hex="0967"/>
  <outline>
    <contour>
      <point x="276.5" y="366.5" type="line"/>
      <point x="526.5" y="648.0" type="line"/>
      <point x="637.0" y="774.0"/>
      <point x="682.5" y="845.0"/>
      <point x="682.5" y="947.5" type="curve" smooth="yes"/>
      <point x="682.5" y="1040.5"/>
      <point x="610.0" y="1123.0"/>
      <point x="491.0" y="1123.0" type="curve" smooth="yes"/>
      <point x="380.0" y="1123.0"/>
      <point x="318.0" y="1038.0"/>
      <point x="318.0" y="950.0" type="curve" smooth="yes"/>
      <point x="318.0" y="844.5"/>
      <point x="391.0" y="758.0"/>
      <point x="605.5" y="700.0" type="curve"/>
      <point x="501.5" y="574.0" type="line"/>
      <point x="245.0" y="653.0"/>
      <point x="108.0" y="793.0"/>
      <point x="108.0" y="975.0" type="curve" smooth="yes"/>
      <point x="108.0" y="1132.0"/>
      <point x="236.0" y="1291.0"/>
      <point x="479.5" y="1291.0" type="curve" smooth="yes"/>
      <point x="733.5" y="1291.0"/>
      <point x="883.5" y="1111.0"/>
      <point x="883.5" y="937.0" type="curve" smooth="yes"/>
      <point x="883.5" y="804.0"/>
      <point x="830.5" y="714.0"/>
      <point x="746.0" y="608.0" type="curve" smooth="yes"/>
      <point x="503.0" y="322.0" type="line"/>
      <point x="483.5" y="415.0" type="line"/>
      <point x="753.5" y="225.5" type="line"/>
      <point x="841.5" y="163.5"/>
      <point x="877.5" y="103.5"/>
      <point x="878.0" y="42.5" type="curve" smooth="yes"/>
      <point x="878.5" y="-14.5"/>
      <point x="854.5" y="-62.0"/>
      <point x="821.0" y="-115.5" type="curve"/>
      <point x="629.0" y="-58.5" type="line"/>
      <point x="647.5" y="-25.0"/>
      <point x="660.5" y="-5.0"/>
      <point x="660.0" y="32.5" type="curve" smooth="yes"/>
      <point x="659.5" y="72.5"/>
      <point x="635.0" y="101.0"/>
      <point x="589.0" y="132.5" type="curve" smooth="yes"/>
      <point x="276.5" y="344.5" type="line"/>
    </contour>
  </outline>
</glyph>
<glyph name="twodeva" format="1">
  <advance width="1014.0"/>
  <unicode hex="0968"/>
  <outline>
    <contour>
      <point x="323.0" y="469.0" type="line"/>
      <point x="490.5" y="540.0" type="line"/>
      <point x="831.5" y="51.0" type="line"/>
      <point x="667.0" y="-33.0" type="line"/>
    </contour>
    <contour>
      <point x="295.0" y="366.0" type="curve" smooth="yes"/>
      <point x="190.5" y="366.0"/>
      <point x="128.0" y="421.5"/>
      <point x="128.0" y="489.5" type="curve" smooth="yes"/>
      <point x="128.0" y="577.5"/>
      <point x="222.0" y="689.5"/>
      <point x="318.5" y="689.5" type="curve" smooth="yes"/>
      <point x="395.5" y="689.5"/>
      <point x="446.0" y="641.5"/>
      <point x="491.0" y="544.0" type="curve"/>
      <point x="284.0" y="536.0" type="line"/>
      <point x="557.0" y="591.5"/>
      <point x="694.5" y="752.5"/>
      <point x="694.5" y="905.5" type="curve" smooth="yes"/>
      <point x="694.5" y="1035.5"/>
      <point x="602.0" y="1116.0"/>
      <point x="455.5" y="1116.0" type="curve" smooth="yes"/>
      <point x="357.0" y="1116.0"/>
      <point x="246.5" y="1083.5"/>
      <point x="132.5" y="1025.5" type="curve"/>
      <point x="68.5" y="1212.0" type="line"/>
      <point x="177.5" y="1259.5"/>
      <point x="300.0" y="1292.0"/>
      <point x="443.0" y="1291.5" type="curve" smooth="yes"/>
      <point x="726.0" y="1290.5"/>
      <point x="896.5" y="1135.0"/>
      <point x="896.5" y="890.5" type="curve" smooth="yes"/>
      <point x="896.5" y="606.0"/>
      <point x="579.0" y="366.0"/>
    </contour>
  </outline>
</glyph>
<glyph name="threedeva" format="1">
  <advance width="910.0"/>
  <unicode hex="0969"/>
  <outline>
    <contour>
      <point x="383.5" y="208.5" type="line"/>
      <point x="287.0" y="-139.5" type="line"/>
      <point x="114.0" y="-99.0" type="line"/>
      <point x="206.0" y="239.0" type="line"/>
    </contour>
    <contour>
      <point x="224.0" y="620.5" type="curve"/>
      <point x="187.5" y="787.0" type="line"/>
      <point x="475.0" y="816.5"/>
      <point x="545.5" y="889.5"/>
      <point x="545.5" y="983.5" type="curve" smooth="yes"/>
      <point x="545.5" y="1064.5"/>
      <point x="488.0" y="1122.0"/>
      <point x="382.5" y="1122.0" type="curve" smooth="yes"/>
      <point x="288.0" y="1122.0"/>
      <point x="196.5" y="1093.0"/>
      <point x="94.5" y="1040.0" type="curve"/>
      <point x="41.0" y="1215.5" type="line"/>
      <point x="150.0" y="1265.5"/>
      <point x="256.0" y="1293.0"/>
      <point x="387.0" y="1293.0" type="curve" smooth="yes"/>
      <point x="618.0" y="1293.0"/>
      <point x="739.5" y="1149.5"/>
      <point x="739.5" y="973.5" type="curve" smooth="yes"/>
      <point x="739.5" y="789.5"/>
      <point x="596.5" y="650.5"/>
    </contour>
    <contour>
      <point x="800.0" y="446.0" type="curve" smooth="yes"/>
      <point x="800.0" y="260.5"/>
      <point x="652.0" y="131.0"/>
      <point x="353.5" y="131.0" type="curve" smooth="yes"/>
      <point x="132.5" y="131.0"/>
      <point x="64.0" y="198.5"/>
      <point x="64.0" y="279.0" type="curve" smooth="yes"/>
      <point x="64.0" y="344.0"/>
      <point x="151.5" y="419.0"/>
      <point x="250.0" y="419.0" type="curve" smooth="yes"/>
      <point x="341.5" y="419.0"/>
      <point x="398.0" y="363.5"/>
      <point x="393.0" y="264.0" type="curve"/>
      <point x="178.5" y="310.0" type="line"/>
      <point x="251.5" y="299.0"/>
      <point x="320.0" y="293.0"/>
      <point x="364.0" y="293.0" type="curve" smooth="yes"/>
      <point x="514.0" y="293.0"/>
      <point x="602.5" y="365.5"/>
      <point x="602.5" y="473.0" type="curve" smooth="yes"/>
      <point x="602.5" y="563.5"/>
      <point x="531.5" y="635.5"/>
      <point x="401.5" y="666.0" type="curve"/>
      <point x="542.0" y="766.0" type="line"/>
      <point x="678.0" y="721.5"/>
      <point x="800.0" y="607.5"/>
    </contour>
  </outline>
</glyph>
<glyph name="fourdeva" format="1">
  <advance width="1019.0"/>
  <unicode hex="096A"/>
  <outline>
    <contour>
      <point x="-21.0" y="1153.5" type="line"/>
      <point x="109.5" y="1294.0" type="line"/>
      <point x="498.0" y="950.5" type="line"/>
      <point x="812.0" y="673.5"/>
      <point x="916.0" y="534.0"/>
      <point x="916.0" y="361.5" type="curve" smooth="yes"/>
      <point x="916.0" y="199.0"/>
      <point x="794.0" y="39.0"/>
      <point x="536.0" y="39.0" type="curve" smooth="yes"/>
      <point x="281.5" y="39.0"/>
      <point x="105.5" y="219.5"/>
      <point x="105.5" y="398.5" type="curve" smooth="yes"/>
      <point x="105.5" y="555.0"/>
      <point x="170.0" y="679.0"/>
      <point x="579.5" y="1012.0" type="curve" smooth="yes"/>
      <point x="888.5" y="1290.5" type="line"/>
      <point x="1032.0" y="1147.0" type="line"/>
      <point x="719.5" y="864.0" type="line"/>
      <point x="391.0" y="575.5"/>
      <point x="314.5" y="486.0"/>
      <point x="314.5" y="372.0" type="curve" smooth="yes"/>
      <point x="314.5" y="286.0"/>
      <point x="388.0" y="207.0"/>
      <point x="501.0" y="207.0" type="curve" smooth="yes"/>
      <point x="640.5" y="207.0"/>
      <point x="718.0" y="301.5"/>
      <point x="718.0" y="408.0" type="curve" smooth="yes"/>
      <point x="718.0" y="505.5"/>
      <point x="658.0" y="578.0"/>
      <point x="381.5" y="808.5" type="curve" smooth="yes"/>
    </contour>
  </outline>
</glyph>
<glyph name="fivedeva" format="1">
  <advance width="1146.0"/>
  <unicode hex="096B"/>
  <outline>
    <contour>
      <point x="317.0" y="677.0" type="curve" smooth="yes"/>
      <point x="317.0" y="542.5"/>
      <point x="405.5" y="430.5"/>
      <point x="565.0" y="430.0" type="curve" smooth="yes"/>
      <point x="664.0" y="429.5"/>
      <point x="747.0" y="474.5"/>
      <point x="842.0" y="547.5" type="curve"/>
      <point x="715.0" y="432.0" type="line"/>
      <point x="671.5" y="493.0"/>
      <point x="655.0" y="523.5"/>
      <point x="655.0" y="568.5" type="curve" smooth="yes"/>
      <point x="655.0" y="630.5"/>
      <point x="713.0" y="676.0"/>
      <point x="820.0" y="676.0" type="curve" smooth="yes"/>
      <point x="944.5" y="676.0"/>
      <point x="1034.5" y="614.5"/>
      <point x="1034.5" y="550.0" type="curve" smooth="yes"/>
      <point x="1034.5" y="432.5"/>
      <point x="847.0" y="277.0"/>
      <point x="587.5" y="277.0" type="curve" smooth="yes"/>
      <point x="292.5" y="277.0"/>
      <point x="103.0" y="460.5"/>
      <point x="103.0" y="717.0" type="curve" smooth="yes"/>
      <point x="103.0" y="914.0"/>
      <point x="215.0" y="1126.0"/>
      <point x="423.5" y="1287.0" type="curve"/>
      <point x="601.0" y="1160.0" type="line"/>
      <point x="415.5" y="1017.0"/>
      <point x="317.0" y="829.0"/>
    </contour>
    <contour>
      <point x="694.0" y="470.0" type="line"/>
      <point x="869.0" y="527.5" type="line"/>
      <point x="1151.5" y="-9.5" type="line"/>
      <point x="981.0" y="-75.0" type="line"/>
    </contour>
  </outline>
</glyph>
<glyph name="sixdeva" format="1">
  <advance width="924.0"/>
  <unicode hex="096C"/>
  <outline>
    <contour>
      <point x="703.0" y="165.0" type="line"/>
      <point x="865.5" y="218.5" type="line"/>
      <point x="1040.0" y="-117.5" type="line"/>
      <point x="880.5" y="-183.5" type="line"/>
    </contour>
    <contour>
      <point x="383.0" y="405.0" type="curve" smooth="yes"/>
      <point x="383.0" y="306.0"/>
      <point x="471.0" y="241.0"/>
      <point x="620.0" y="241.0" type="curve" smooth="yes"/>
      <point x="674.0" y="241.0"/>
      <point x="746.0" y="255.0"/>
      <point x="819.0" y="277.0" type="curve"/>
      <point x="688.0" y="201.0" type="line"/>
      <point x="672.0" y="222.0"/>
      <point x="649.0" y="259.0"/>
      <point x="649.0" y="301.0" type="curve" smooth="yes"/>
      <point x="649.0" y="355.0"/>
      <point x="693.0" y="390.5"/>
      <point x="786.5" y="390.5" type="curve" smooth="yes"/>
      <point x="897.0" y="390.5"/>
      <point x="990.5" y="330.0"/>
      <point x="990.5" y="259.0" type="curve" smooth="yes"/>
      <point x="990.5" y="178.5"/>
      <point x="854.0" y="85.0"/>
      <point x="666.5" y="85.0" type="curve" smooth="yes"/>
      <point x="368.0" y="85.0"/>
      <point x="185.5" y="232.5"/>
      <point x="185.5" y="443.5" type="curve" smooth="yes"/>
      <point x="185.5" y="627.5"/>
      <point x="329.5" y="781.5"/>
      <point x="709.0" y="820.5" type="curve"/>
      <point x="763.0" y="654.5" type="line"/>
      <point x="465.5" y="622.0"/>
      <point x="383.0" y="526.5"/>
    </contour>
    <contour>
      <point x="409.5" y="621.0" type="line"/>
      <point x="204.0" y="689.0"/>
      <point x="99.0" y="814.0"/>
      <point x="99.0" y="962.0" type="curve" smooth="yes"/>
      <point x="99.0" y="1137.0"/>
      <point x="228.5" y="1288.0"/>
      <point x="643.0" y="1284.5" type="curve"/>
      <point x="685.5" y="1126.5" type="line"/>
      <point x="380.5" y="1125.5"/>
      <point x="303.5" y="1024.0"/>
      <point x="303.5" y="932.0" type="curve" smooth="yes"/>
      <point x="303.5" y="837.0"/>
      <point x="366.0" y="775.0"/>
      <point x="534.5" y="730.5" type="curve"/>
    </contour>
  </outline>
</glyph>
<glyph name="sevendeva" format="1">
  <advance width="1324.0"/>
  <unicode hex="096D"/>
  <outline>
    <contour>
      <point x="1105.0" y="403.5" type="curve"/>
      <point x="1104.0" y="402.5"/>
      <point x="1026.0" y="294.5"/>
      <point x="1026.0" y="294.5" type="curve"/>
      <point x="671.0" y="371.5"/>
      <point x="534.0" y="539.0"/>
      <point x="534.0" y="741.0" type="curve" smooth="yes"/>
      <point x="534.0" y="887.0"/>
      <point x="638.0" y="1008.0"/>
      <point x="818.0" y="1008.0" type="curve" smooth="yes"/>
      <point x="1052.5" y="1008.0"/>
      <point x="1216.0" y="822.5"/>
      <point x="1216.0" y="535.0" type="curve" smooth="yes"/>
      <point x="1216.0" y="275.0"/>
      <point x="1023.5" y="78.5"/>
      <point x="768.5" y="78.5" type="curve" smooth="yes"/>
      <point x="432.0" y="78.5"/>
      <point x="139.0" y="321.0"/>
      <point x="139.0" y="833.0" type="curve" smooth="yes"/>
      <point x="139.0" y="969.0"/>
      <point x="175.0" y="1157.0"/>
      <point x="217.0" y="1284.0" type="curve"/>
      <point x="410.0" y="1203.5" type="line"/>
      <point x="358.0" y="1050.5"/>
      <point x="331.0" y="882.5"/>
      <point x="331.0" y="742.5" type="curve" smooth="yes"/>
      <point x="331.0" y="378.0"/>
      <point x="535.0" y="229.5"/>
      <point x="735.0" y="229.5" type="curve" smooth="yes"/>
      <point x="907.5" y="229.5"/>
      <point x="1030.0" y="390.5"/>
      <point x="1030.0" y="591.0" type="curve" smooth="yes"/>
      <point x="1030.0" y="743.5"/>
      <point x="951.0" y="844.5"/>
      <point x="852.0" y="844.5" type="curve" smooth="yes"/>
      <point x="768.5" y="844.5"/>
      <point x="721.5" y="781.5"/>
      <point x="721.5" y="699.5" type="curve" smooth="yes"/>
      <point x="721.5" y="588.5"/>
      <point x="804.0" y="483.5"/>
    </contour>
  </outline>
</glyph>
<glyph name="eightdeva" format="1">
  <advance width="1019.0"/>
  <unicode hex="096E"/>
  <outline>
    <contour>
      <point x="662.0" y="1290.0" type="line"/>
      <point x="829.0" y="1157.0" type="line"/>
      <point x="416.5" y="686.5" type="line"/>
      <point x="317.0" y="573.0"/>
      <point x="287.0" y="501.5"/>
      <point x="287.0" y="412.5" type="curve" smooth="yes"/>
      <point x="287.0" y="315.5"/>
      <point x="379.5" y="235.0"/>
      <point x="525.0" y="235.0" type="curve" smooth="yes"/>
      <point x="650.0" y="235.0"/>
      <point x="780.5" y="292.5"/>
      <point x="944.5" y="416.0" type="curve"/>
      <point x="1053.0" y="241.0" type="line"/>
      <point x="892.0" y="115.0"/>
      <point x="718.0" y="50.0"/>
      <point x="554.0" y="50.0" type="curve" smooth="yes"/>
      <point x="310.0" y="50.0"/>
      <point x="86.0" y="224.0"/>
      <point x="86.0" y="451.0" type="curve" smooth="yes"/>
      <point x="86.0" y="580.0"/>
      <point x="127.0" y="684.0"/>
      <point x="248.5" y="822.0" type="curve" smooth="yes"/>
    </contour>
  </outline>
</glyph>
<glyph name="ninedeva" format="1">
  <advance width="964.0"/>
  <unicode hex="096F"/>
  <outline>
    <contour>
      <point x="392.5" y="665.0" type="curve" smooth="yes"/>
      <point x="825.5" y="254.5" type="line"/>
      <point x="890.5" y="192.5"/>
      <point x="929.5" y="122.0"/>
      <point x="929.5" y="61.0" type="curve" smooth="yes"/>
      <point x="929.5" y="-4.0"/>
      <point x="915.0" y="-46.5"/>
      <point x="878.0" y="-104.5" type="curve"/>
      <point x="671.5" y="-63.0" type="line"/>
      <point x="690.0" y="-26.5"/>
      <point x="708.5" y="18.5"/>
      <point x="708.5" y="57.5" type="curve" smooth="yes"/>
      <point x="708.5" y="97.5"/>
      <point x="697.5" y="128.0"/>
      <point x="656.5" y="166.0" type="curve" smooth="yes"/>
      <point x="270.5" y="525.0" type="line"/>
      <point x="120.5" y="662.0"/>
      <point x="64.5" y="787.0"/>
      <point x="64.5" y="950.0" type="curve" smooth="yes"/>
      <point x="64.5" y="1113.0"/>
      <point x="199.5" y="1283.0"/>
      <point x="435.0" y="1283.0" type="curve" smooth="yes"/>
      <point x="704.5" y="1283.0"/>
      <point x="856.0" y="1102.0"/>
      <point x="856.0" y="905.5" type="curve" smooth="yes"/>
      <point x="856.0" y="704.5"/>
      <point x="706.0" y="558.5"/>
      <point x="500.5" y="494.0" type="curve"/>
      <point x="390.0" y="622.5" type="line"/>
      <point x="562.5" y="680.5"/>
      <point x="658.0" y="790.0"/>
      <point x="658.0" y="920.0" type="curve" smooth="yes"/>
      <point x="658.0" y="1027.5"/>
      <point x="584.5" y="1113.0"/>
      <point x="470.0" y="1113.0" type="curve" smooth="yes"/>
      <point x="351.0" y="1113.0"/>
      <point x="274.5" y="1023.0"/>
      <point x="274.5" y="909.0" type="curve" smooth="yes"/>
      <point x="274.5" y="815.0"/>
      <point x="310.0" y="744.0"/>
    </contour>
  </outline>
</glyph>
<glyph name="abbreviationsigndeva" format="1">
  <advance width="976.0"/>
  <unicode hex="0970"/>
  <outline>
    <contour>
      <point x="498.5" y="567.5" type="curve" smooth="yes"/>
      <point x="362.0" y="567.5"/>
      <point x="247.5" y="639.5"/>
      <point x="214.0" y="746.0" type="curve" smooth="yes"/>
      <point x="176.5" y="858.0"/>
      <point x="221.5" y="951.5"/>
      <point x="298.0" y="995.0" type="curve" smooth="yes"/>
      <point x="375.0" y="1037.0"/>
      <point x="459.5" y="1022.5"/>
      <point x="495.5" y="976.5" type="curve" smooth="yes"/>
      <point x="529.0" y="925.0"/>
      <point x="515.0" y="886.5"/>
    </contour>
    <contour>
      <point x="498.0" y="1017.0" type="curve" smooth="yes"/>
      <point x="412.5" y="1017.0"/>
      <point x="343.5" y="955.5"/>
      <point x="343.5" y="862.0" type="curve" smooth="yes"/>
      <point x="343.5" y="782.0"/>
      <point x="395.0" y="730.5"/>
      <point x="459.5" y="723.0" type="curve" smooth="yes"/>
      <point x="529.0" y="711.0"/>
      <point x="589.5" y="742.5"/>
      <point x="601.5" y="801.0" type="curve" smooth="yes"/>
      <point x="630.5" y="858.5"/>
      <point x="602.0" y="921.5"/>
    </contour>
  </outline>
</glyph>
<glyph name="uni0971" format="1">
  <advance width="735.5"/>
  <unicode hex="0971"/>
  <outline>
    <contour>
      <point x="383.5" y="1338.5" type="curve" smooth="yes"/>
      <point x="442.5" y="1338.5"/>
      <point x="483.5" y="1305.0"/>
      <point x="499.5" y="1265.5" type="curve" smooth="yes"/>
      <point x="519.5" y="1222.5"/>
      <point x="512.5" y="1178.0"/>
      <point x="486.0" y="1158.0" type="curve" smooth="yes"/>
      <point x="459.5" y="1139.0"/>
      <point x="429.5" y="1145.0"/>
      <point x="410.5" y="1151.5" type="curve" smooth="yes"/>
      <point x="394.0" y="1162.0"/>
      <point x="388.0" y="1179.5"/>
    </contour>
  </outline>
</glyph>
<glyph name="uni20B9.deva" format="1">
  <advance width="1045.5"/>
  <unicode hex="20B9"/>
  <outline>
    <contour>
      <point x="118.0" y="773.0" type="line"/>
      <point x="118.0" y="920.0" type="line"/>
      <point x="957.5" y="920.0" type="line"/>
      <point x="957.5" y="773.0" type="line"/>
    </contour>
    <contour>
      <point x="118.0" y="1137.0" type="line"/>
      <point x="118.0" y="1284.0" type="line"/>
      <point x="957.5" y="1284.0" type="line"/>
      <point x="957.5" y="1137.0" type="line"/>
    </contour>
    <contour>
      <point x="168.5" y="479.0" type="line"/>
      <point x="171.5" y="556.0" type="line"/>
      <point x="451.5" y="571.0"/>
      <point x="580.5" y="700.0"/>
      <point x="580.5" y="871.0" type="curve" smooth="yes"/>
      <point x="580.5" y="1019.5"/>
      <point x="450.0" y="1137.5"/>
      <point x="295.0" y="1137.5" type="curve" smooth="yes"/>
      <point x="275.0" y="1137.5" type="line"/>
      <point x="276.5" y="1260.0" type="line"/>
      <point x="334.5" y="1260.0" type="line"/>
      <point x="597.0" y="1260.0"/>
      <point x="791.5" y="1082.5"/>
      <point x="791.5" y="858.0" type="curve" smooth="yes"/>
      <point x="791.5" y="633.5"/>
      <point x="631.5" y="482.0"/>
      <point x="386.5" y="431.0" type="curve"/>
      <point x="386.5" y="497.5" type="line"/>
      <point x="794.5" y="12.0" type="line"/>
      <point x="795.5" y="0.0" type="line"/>
      <point x="567.5" y="0.0" type="line"/>
    </contour>
  </outline>
</glyph>
<glyph name="minus.deva" format="1">
  <advance width="1047.5"/>
  <unicode hex="2212"/>
  <outline>
    <contour>
      <point x="82.5" y="571.5" type="line"/>
      <point x="82.5" y="729.0" type="line"/>
      <point x="964.5" y="729.0" type="line"/>
      <point x="964.5" y="571.5" type="line"/>
    </contour>
  </outline>
</glyph>
<glyph name="bhaprehalfdeva" format="1">
  <advance width="810.5"/>
  <outline>
    <contour>
      <point x="357.0" y="1012.0" type="line"/>
      <point x="357.0" y="1120.5"/>
      <point x="307.5" y="1179.0"/>
      <point x="230.5" y="1179.0" type="curve" smooth="yes"/>
      <point x="161.0" y="1179.0"/>
      <point x="130.0" y="1132.0"/>
      <point x="129.5" y="1070.5" type="curve" smooth="yes"/>
      <point x="129.0" y="990.0"/>
      <point x="203.0" y="913.0"/>
      <point x="406.5" y="903.0" type="curve"/>
      <point x="385.0" y="774.5" type="line"/>
      <point x="117.0" y="782.5"/>
      <point x="-71.0" y="905.0"/>
      <point x="-71.0" y="1110.5" type="curve" smooth="yes"/>
      <point x="-71.0" y="1232.5"/>
      <point x="15.0" y="1344.0"/>
      <point x="215.0" y="1344.0" type="curve" smooth="yes"/>
      <point x="446.5" y="1344.0"/>
      <point x="584.5" y="1202.5"/>
      <point x="584.5" y="979.0" type="curve" smooth="yes"/>
      <point x="584.5" y="626.5" type="line"/>
      <point x="552.0" y="660.5" type="line"/>
      <point x="1113.5" y="660.5" type="line"/>
      <point x="1113.5" y="481.5" type="line"/>
      <point x="543.5" y="481.5" type="line"/>
      <point x="584.5" y="517.5" type="line"/>
      <point x="584.5" y="377.0" type="line"/>
      <point x="584.5" y="316.0"/>
      <point x="562.0" y="283.0"/>
      <point x="501.5" y="283.0" type="curve" smooth="yes"/>
      <point x="388.0" y="283.0"/>
      <point x="210.5" y="476.0"/>
      <point x="210.5" y="572.0" type="curve" smooth="yes"/>
      <point x="210.5" y="631.0"/>
      <point x="241.0" y="659.5"/>
      <point x="294.5" y="659.5" type="curve" smooth="yes"/>
      <point x="389.0" y="659.5" type="line"/>
      <point x="357.0" y="630.5" type="line"/>
    </contour>
  </outline>
</glyph>
<glyph name="candrabindusmalldeva" format="1">
  <outline>
    <contour>
      <point x="-360.5" y="1817.5" type="curve" smooth="yes"/>
      <point x="-310.5" y="1834.5"/>
      <point x="-276.5" y="1816.0"/>
      <point x="-259.0" y="1787.5" type="curve" smooth="yes"/>
      <point x="-241.5" y="1759.0"/>
      <point x="-250.5" y="1709.0"/>
      <point x="-300.5" y="1692.0" type="curve" smooth="yes"/>
      <point x="-347.5" y="1675.0"/>
      <point x="-384.5" y="1692.5"/>
      <point x="-402.0" y="1722.5" type="curve" smooth="yes"/>
      <point x="-419.5" y="1751.5"/>
      <point x="-408.5" y="1800.5"/>
    </contour>
    <contour>
      <point x="51.5" y="1639.5" type="line"/>
      <point x="-31.5" y="1480.0"/>
      <point x="-141.5" y="1388.0"/>
      <point x="-321.0" y="1388.0" type="curve" smooth="yes"/>
      <point x="-491.5" y="1388.0"/>
      <point x="-608.0" y="1490.0"/>
      <point x="-706.5" y="1638.5" type="curve"/>
      <point x="-619.5" y="1764.0" type="line"/>
      <point x="-535.5" y="1634.5"/>
      <point x="-466.0" y="1551.0"/>
      <point x="-323.5" y="1551.0" type="curve" smooth="yes"/>
      <point x="-181.0" y="1551.0"/>
      <point x="-116.0" y="1636.0"/>
      <point x="-50.0" y="1761.5" type="curve"/>
    </contour>
    <contour>
      <point x="-386.0" y="1263.0" type="move" name="_mark0"/>
    </contour>
  </outline>
</glyph>
<glyph name="caprehalfdeva" format="1">
  <advance width="830.0"/>
  <outline>
    <contour>
      <point x="47.0" y="713.0" type="line"/>
      <point x="47.0" y="888.5" type="line"/>
      <point x="770.5" y="888.5" type="line"/>
      <point x="770.5" y="713.0" type="line"/>
    </contour>
    <contour>
      <point x="1031.5" y="629.5" type="curve"/>
      <point x="1181.5" y="481.5" type="line"/>
      <point x="1054.0" y="315.5"/>
      <point x="903.5" y="203.0"/>
      <point x="679.5" y="203.0" type="curve" smooth="yes"/>
      <point x="424.0" y="203.0"/>
      <point x="276.5" y="364.5"/>
      <point x="276.5" y="555.5" type="curve" smooth="yes"/>
      <point x="276.5" y="720.0"/>
      <point x="394.5" y="875.0"/>
      <point x="659.5" y="875.0" type="curve"/>
      <point x="690.5" y="714.5" type="line"/>
      <point x="558.5" y="715.5"/>
      <point x="484.0" y="621.5"/>
      <point x="484.0" y="529.5" type="curve" smooth="yes"/>
      <point x="484.0" y="446.0"/>
      <point x="563.0" y="384.0"/>
      <point x="655.0" y="384.0" type="curve" smooth="yes"/>
      <point x="789.0" y="384.0"/>
      <point x="921.0" y="461.0"/>
    </contour>
    <contour>
      <point x="-19.0" y="1127.0" type="line"/>
      <point x="-19.0" y="1284.0" type="line"/>
      <point x="1069.0" y="1284.0" type="line"/>
      <point x="1069.0" y="1127.0" type="line"/>
    </contour>
  </outline>
</glyph>
<glyph name="chaprehalfdeva" format="1">
  <advance width="1506.5"/>
  <outline>
    <contour>
      <point x="655.0" y="786.5" type="curve"/>
      <point x="713.0" y="609.5" type="line"/>
      <point x="711.5" y="609.5"/>
      <point x="709.0" y="609.5"/>
      <point x="707.5" y="609.5" type="curve" smooth="yes"/>
      <point x="497.5" y="600.5"/>
      <point x="431.0" y="505.0"/>
      <point x="431.0" y="412.5" type="curve" smooth="yes"/>
      <point x="431.0" y="307.5"/>
      <point x="524.0" y="222.0"/>
      <point x="695.0" y="222.0" type="curve" smooth="yes"/>
      <point x="971.0" y="222.0"/>
      <point x="1239.5" y="463.0"/>
      <point x="1239.5" y="668.5" type="curve" smooth="yes"/>
      <point x="1239.5" y="777.0"/>
      <point x="1181.5" y="835.0"/>
      <point x="1109.0" y="835.0" type="curve" smooth="yes"/>
      <point x="1045.5" y="835.0"/>
      <point x="998.5" y="775.0"/>
      <point x="998.5" y="697.5" type="curve" smooth="yes"/>
      <point x="998.5" y="603.0"/>
      <point x="1062.5" y="512.0"/>
      <point x="1249.5" y="379.0" type="curve"/>
      <point x="1146.0" y="275.0" type="line"/>
      <point x="912.0" y="430.0"/>
      <point x="809.5" y="562.5"/>
      <point x="809.5" y="739.5" type="curve" smooth="yes"/>
      <point x="809.5" y="862.0"/>
      <point x="900.5" y="998.5"/>
      <point x="1081.5" y="998.5" type="curve" smooth="yes"/>
      <point x="1286.0" y="998.5"/>
      <point x="1426.0" y="863.0"/>
      <point x="1426.0" y="646.0" type="curve" smooth="yes"/>
      <point x="1426.0" y="371.0"/>
      <point x="1117.5" y="46.5"/>
      <point x="705.5" y="46.5" type="curve" smooth="yes"/>
      <point x="374.5" y="46.5"/>
      <point x="208.0" y="236.5"/>
      <point x="208.0" y="444.5" type="curve" smooth="yes"/>
      <point x="208.0" y="623.0"/>
      <point x="350.5" y="781.5"/>
      <point x="650.0" y="786.5" type="curve" smooth="yes"/>
      <point x="652.0" y="786.5"/>
      <point x="653.0" y="786.5"/>
    </contour>
    <contour>
      <point x="550.5" y="748.5" type="curve"/>
      <point x="393.5" y="628.0" type="line"/>
      <point x="186.0" y="689.0"/>
      <point x="100.5" y="811.0"/>
      <point x="100.5" y="967.0" type="curve" smooth="yes"/>
      <point x="100.5" y="1088.5"/>
      <point x="203.0" y="1236.0"/>
      <point x="463.0" y="1263.5" type="curve"/>
      <point x="555.5" y="1147.5" type="line"/>
      <point x="390.0" y="1127.0"/>
      <point x="322.0" y="1028.5"/>
      <point x="322.0" y="944.0" type="curve" smooth="yes"/>
      <point x="322.0" y="860.0"/>
      <point x="371.5" y="779.0"/>
    </contour>
    <contour>
      <point x="1542.0" y="1127.0" type="line"/>
      <point x="-42.0" y="1127.0" type="line"/>
      <point x="-42.0" y="1284.0" type="line"/>
      <point x="1542.0" y="1284.0" type="line"/>
    </contour>
  </outline>
</glyph>
<glyph name="chayadeva" format="1">
  <advance width="2762.0"/>
  <outline>
    <contour>
      <point x="1169.5" y="814.5" type="line"/>
      <point x="1053.0" y="969.0" type="line"/>
      <point x="1729.5" y="969.0" type="line"/>
      <point x="1927.5" y="969.0"/>
      <point x="2035.0" y="845.5"/>
      <point x="2035.0" y="712.0" type="curve" smooth="yes"/>
      <point x="2035.0" y="576.5"/>
      <point x="1939.5" y="465.5"/>
      <point x="1707.5" y="415.5" type="curve"/>
      <point x="1709.5" y="484.5" type="line"/>
      <point x="1783.0" y="375.5"/>
      <point x="1885.0" y="305.0"/>
      <point x="2004.0" y="305.0" type="curve" smooth="yes"/>
      <point x="2153.0" y="305.0"/>
      <point x="2275.5" y="389.0"/>
      <point x="2346.0" y="525.0" type="curve"/>
      <point x="2346.0" y="227.0" type="line"/>
      <point x="2279.0" y="162.5"/>
      <point x="2195.0" y="121.0"/>
      <point x="2061.5" y="121.0" type="curve" smooth="yes"/>
      <point x="1817.5" y="121.0"/>
      <point x="1614.0" y="275.5"/>
      <point x="1508.0" y="510.5" type="curve"/>
      <point x="1508.0" y="516.0" type="line"/>
      <point x="1745.0" y="566.5"/>
      <point x="1821.0" y="639.0"/>
      <point x="1821.0" y="711.0" type="curve" smooth="yes"/>
      <point x="1821.0" y="772.5"/>
      <point x="1770.5" y="814.5"/>
      <point x="1663.5" y="814.5" type="curve" smooth="yes"/>
    </contour>
    <contour>
      <point x="2298.5" y="1161.0" type="line"/>
      <point x="2526.0" y="1161.0" type="line"/>
      <point x="2526.0" y="0.0" type="line"/>
      <point x="2298.5" y="0.0" type="line"/>
    </contour>
    <contour>
      <point x="1426.5" y="1127.0" type="line"/>
      <point x="1426.5" y="1284.0" type="line"/>
      <point x="2760.0" y="1284.0" type="line"/>
      <point x="2760.0" y="1127.0" type="line"/>
    </contour>
    <contour>
      <point x="630.0" y="786.0" type="curve"/>
      <point x="688.5" y="608.5" type="line"/>
      <point x="686.5" y="608.5"/>
      <point x="685.5" y="608.5"/>
      <point x="683.5" y="608.5" type="curve" smooth="yes"/>
      <point x="482.0" y="607.5"/>
      <point x="407.0" y="507.5"/>
      <point x="407.0" y="412.5" type="curve" smooth="yes"/>
      <point x="407.0" y="307.5"/>
      <point x="495.5" y="222.0"/>
      <point x="666.5" y="222.0" type="curve" smooth="yes"/>
      <point x="942.5" y="222.0"/>
      <point x="1211.0" y="458.5"/>
      <point x="1211.0" y="659.0" type="curve" smooth="yes"/>
      <point x="1211.0" y="765.0"/>
      <point x="1153.5" y="824.0"/>
      <point x="1081.0" y="824.0" type="curve" smooth="yes"/>
      <point x="1017.5" y="824.0"/>
      <point x="970.0" y="763.5"/>
      <point x="970.0" y="690.0" type="curve" smooth="yes"/>
      <point x="970.0" y="596.0"/>
      <point x="1034.0" y="512.0"/>
      <point x="1221.0" y="384.0" type="curve"/>
      <point x="1113.5" y="280.0" type="line"/>
      <point x="884.5" y="425.0"/>
      <point x="781.5" y="558.0"/>
      <point x="781.5" y="720.0" type="curve" smooth="yes"/>
      <point x="781.5" y="847.5"/>
      <point x="872.0" y="969.0"/>
      <point x="1048.0" y="969.0" type="curve" smooth="yes"/>
      <point x="1252.5" y="969.0"/>
      <point x="1397.0" y="853.5"/>
      <point x="1397.0" y="636.5" type="curve" smooth="yes"/>
      <point x="1397.0" y="361.5"/>
      <point x="1089.0" y="46.5"/>
      <point x="677.0" y="46.5" type="curve" smooth="yes"/>
      <point x="346.0" y="46.5"/>
      <point x="183.0" y="236.5"/>
      <point x="183.0" y="444.5" type="curve" smooth="yes"/>
      <point x="183.0" y="628.0"/>
      <point x="335.0" y="785.0"/>
      <point x="626.0" y="786.0" type="curve" smooth="yes"/>
      <point x="628.0" y="786.0"/>
      <point x="628.0" y="786.0"/>
    </contour>
    <contour>
      <point x="530.5" y="748.5" type="curve"/>
      <point x="373.5" y="628.0" type="line"/>
      <point x="166.0" y="689.0"/>
      <point x="80.5" y="811.0"/>
      <point x="80.5" y="967.0" type="curve" smooth="yes"/>
      <point x="80.5" y="1088.5"/>
      <point x="183.0" y="1236.0"/>
      <point x="443.0" y="1263.5" type="curve"/>
      <point x="535.5" y="1147.5" type="line"/>
      <point x="370.0" y="1127.0"/>
      <point x="302.0" y="1028.5"/>
      <point x="302.0" y="944.0" type="curve" smooth="yes"/>
      <point x="302.0" y="860.0"/>
      <point x="351.5" y="779.0"/>
    </contour>
    <contour>
      <point x="1508.5" y="1127.0" type="line"/>
      <point x="-65.5" y="1127.0" type="line"/>
      <point x="-65.5" y="1284.0" type="line"/>
      <point x="1508.5" y="1284.0" type="line"/>
    </contour>
  </outline>
</glyph>
<glyph name="dabhadeva" format="1">
  <advance width="1568.5"/>
  <outline>
    <contour>
      <point x="-41.5" y="1127.0" type="line"/>
      <point x="-41.5" y="1284.0" type="line"/>
      <point x="1585.5" y="1284.0" type="line"/>
      <point x="1585.5" y="1127.0" type="line"/>
    </contour>
    <contour>
      <point x="1136.5" y="189.0" type="line"/>
      <point x="1305.0" y="246.0" type="line"/>
      <point x="1554.0" y="-241.5" type="line"/>
      <point x="1391.0" y="-310.0" type="line"/>
    </contour>
    <contour>
      <point x="1054.5" y="111.0" type="curve" smooth="yes"/>
      <point x="754.0" y="111.0"/>
      <point x="539.0" y="299.5"/>
      <point x="539.0" y="531.5" type="curve" smooth="yes"/>
      <point x="539.0" y="732.5"/>
      <point x="693.0" y="887.5"/>
      <point x="995.5" y="887.5" type="curve" smooth="yes"/>
      <point x="1172.0" y="887.5" type="line"/>
      <point x="1127.0" y="836.5" type="line"/>
      <point x="1127.0" y="1167.0" type="line"/>
      <point x="1344.5" y="1167.0" type="line"/>
      <point x="1344.5" y="718.0" type="line"/>
      <point x="1083.0" y="718.0" type="line"/>
      <point x="843.5" y="718.0"/>
      <point x="757.0" y="615.5"/>
      <point x="757.0" y="489.0" type="curve" smooth="yes"/>
      <point x="757.0" y="366.0"/>
      <point x="883.0" y="266.5"/>
      <point x="1031.5" y="266.5" type="curve" smooth="yes"/>
      <point x="1080.5" y="266.5"/>
      <point x="1133.5" y="272.5"/>
      <point x="1217.5" y="304.0" type="curve"/>
      <point x="1120.5" y="223.5" type="line"/>
      <point x="1089.5" y="274.0"/>
      <point x="1075.0" y="325.5"/>
      <point x="1075.0" y="359.0" type="curve" smooth="yes"/>
      <point x="1075.0" y="406.0"/>
      <point x="1111.5" y="453.5"/>
      <point x="1198.5" y="453.5" type="curve" smooth="yes"/>
      <point x="1352.0" y="453.5"/>
      <point x="1459.5" y="382.5"/>
      <point x="1459.5" y="309.5" type="curve" smooth="yes"/>
      <point x="1459.5" y="218.5"/>
      <point x="1306.0" y="111.0"/>
    </contour>
    <contour>
      <point x="371.5" y="161.5" type="line"/>
      <point x="325.0" y="244.0"/>
      <point x="286.0" y="274.5"/>
      <point x="222.0" y="274.5" type="curve" smooth="yes"/>
      <point x="159.5" y="274.5"/>
      <point x="115.5" y="224.0"/>
      <point x="116.5" y="168.5" type="curve" smooth="yes"/>
      <point x="116.5" y="106.0"/>
      <point x="164.0" y="58.0"/>
      <point x="242.0" y="57.0" type="curve" smooth="yes"/>
      <point x="297.0" y="56.0"/>
      <point x="360.0" y="76.5"/>
      <point x="429.0" y="134.0" type="curve"/>
      <point x="481.5" y="12.0" type="line"/>
      <point x="401.0" y="-47.5"/>
      <point x="335.5" y="-74.5"/>
      <point x="238.0" y="-74.5" type="curve" smooth="yes"/>
      <point x="74.0" y="-74.5"/>
      <point x="-59.0" y="25.0"/>
      <point x="-59.0" y="184.5" type="curve" smooth="yes"/>
      <point x="-59.0" y="317.0"/>
      <point x="56.0" y="430.5"/>
      <point x="221.0" y="430.5" type="curve" smooth="yes"/>
      <point x="383.5" y="430.5"/>
      <point x="482.0" y="342.5"/>
      <point x="550.0" y="220.0" type="curve" smooth="yes"/>
      <point x="718.5" y="-81.5" type="line"/>
      <point x="674.0" y="-67.0" type="line"/>
      <point x="1175.0" y="192.0" type="line"/>
      <point x="1257.0" y="41.0" type="line"/>
      <point x="749.0" y="-223.5" type="line"/>
      <point x="768.0" y="-173.0" type="line"/>
      <point x="823.5" y="-277.0" type="line"/>
      <point x="835.5" y="-300.0"/>
      <point x="841.5" y="-320.5"/>
      <point x="840.5" y="-338.5" type="curve" smooth="yes"/>
      <point x="838.5" y="-374.5"/>
      <point x="802.0" y="-402.0"/>
      <point x="734.5" y="-402.0" type="curve" smooth="yes"/>
      <point x="590.0" y="-402.0"/>
      <point x="418.5" y="-311.5"/>
      <point x="418.5" y="-245.0" type="curve" smooth="yes"/>
      <point x="418.5" y="-218.5"/>
      <point x="432.0" y="-194.5"/>
      <point x="462.5" y="-178.5" type="curve" smooth="yes"/>
      <point x="567.5" y="-122.0" type="line"/>
      <point x="552.0" y="-163.5" type="line"/>
    </contour>
    <contour>
      <point x="1779.0" y="-11.0" type="move" name="mark0"/>
    </contour>
  </outline>
</glyph>
<glyph name="dadaaltdeva" format="1">
  <advance width="1266.0"/>
  <outline>
    <contour>
      <point x="584.5" y="516.0" type="curve"/>
      <point x="511.0" y="546.0"/>
      <point x="458.5" y="580.5"/>
      <point x="437.0" y="624.5" type="curve" smooth="yes"/>
      <point x="373.5" y="763.5"/>
      <point x="556.0" y="715.0"/>
      <point x="636.0" y="684.0" type="curve"/>
      <point x="636.0" y="653.0"/>
      <point x="670.5" y="740.5"/>
      <point x="748.0" y="740.0" type="curve"/>
      <point x="409.5" y="745.0" type="line"/>
      <point x="409.0" y="747.5"/>
      <point x="409.0" y="795.5"/>
      <point x="409.0" y="798.5" type="curve"/>
      <point x="409.0" y="838.0"/>
      <point x="1013.5" y="861.5"/>
      <point x="1082.0" y="861.5" type="curve"/>
      <point x="1124.0" y="861.5"/>
      <point x="1160.5" y="807.0"/>
      <point x="1181.5" y="794.0" type="curve"/>
      <point x="1206.0" y="776.0"/>
      <point x="1052.5" y="754.0"/>
      <point x="1052.5" y="735.5" type="curve"/>
      <point x="1052.5" y="708.0"/>
      <point x="1034.0" y="538.0"/>
      <point x="995.0" y="520.0" type="curve"/>
      <point x="802.5" y="515.5" type="line"/>
      <point x="771.0" y="492.5"/>
      <point x="733.0" y="456.0"/>
      <point x="752.0" y="371.0" type="curve" smooth="yes"/>
      <point x="752.0" y="335.0"/>
      <point x="789.5" y="299.5"/>
      <point x="818.5" y="284.0" type="curve"/>
      <point x="858.5" y="305.0"/>
      <point x="754.5" y="258.0"/>
      <point x="800.0" y="258.0" type="curve" smooth="yes"/>
      <point x="790.0" y="295.0"/>
      <point x="780.5" y="335.5"/>
      <point x="774.0" y="377.5" type="curve"/>
      <point x="763.0" y="378.0"/>
      <point x="746.5" y="332.5"/>
      <point x="730.5" y="332.5" type="curve"/>
      <point x="637.5" y="332.5"/>
      <point x="558.5" y="346.5"/>
      <point x="508.5" y="371.0" type="curve"/>
      <point x="386.5" y="400.0"/>
      <point x="239.5" y="438.5"/>
      <point x="239.5" y="389.0" type="curve" smooth="yes"/>
      <point x="239.5" y="320.5"/>
      <point x="365.5" y="336.5"/>
      <point x="457.0" y="360.5" type="curve"/>
      <point x="507.0" y="366.5" type="line"/>
      <point x="453.5" y="412.5"/>
      <point x="420.5" y="464.0"/>
      <point x="420.5" y="514.5" type="curve" smooth="yes"/>
      <point x="420.5" y="578.5"/>
      <point x="471.5" y="620.5"/>
      <point x="539.5" y="642.5" type="curve" smooth="yes"/>
      <point x="590.0" y="650.0"/>
      <point x="658.5" y="634.0"/>
      <point x="684.0" y="599.5" type="curve" smooth="yes"/>
      <point x="708.0" y="566.5"/>
      <point x="715.0" y="550.0"/>
      <point x="726.0" y="539.0" type="curve"/>
      <point x="744.5" y="505.5"/>
      <point x="822.5" y="473.5"/>
      <point x="844.5" y="442.0" type="curve"/>
      <point x="806.5" y="461.5" type="line"/>
      <point x="784.0" y="498.0"/>
      <point x="425.0" y="535.5"/>
      <point x="407.5" y="574.5" type="curve"/>
      <point x="386.5" y="571.0"/>
      <point x="365.5" y="686.5"/>
      <point x="344.0" y="686.5" type="curve" smooth="yes"/>
      <point x="267.0" y="686.5"/>
      <point x="805.5" y="708.0"/>
      <point x="805.5" y="814.0" type="curve" smooth="yes"/>
      <point x="805.5" y="844.5"/>
      <point x="810.5" y="752.0"/>
      <point x="828.5" y="777.5" type="curve"/>
      <point x="828.5" y="777.5"/>
      <point x="656.5" y="799.0"/>
    </contour>
    <contour>
      <point x="776.0" y="626.0" type="move" name="mark0"/>
    </contour>
  </outline>
</glyph>
<glyph name="dadadeva" format="1">
  <advance width="1118.0"/>
  <outline>
    <contour>
      <point x="808.5" y="-69.0" type="line"/>
      <point x="977.0" y="-12.0" type="line"/>
      <point x="1163.0" y="-377.5" type="line"/>
      <point x="994.0" y="-434.0" type="line"/>
    </contour>
    <contour>
      <point x="1194.5" y="1127.0" type="line"/>
      <point x="-44.5" y="1127.0" type="line"/>
      <point x="-44.5" y="1284.0" type="line"/>
      <point x="1194.5" y="1284.0" type="line"/>
    </contour>
    <contour>
      <point x="433.5" y="224.0" type="curve" smooth="yes"/>
      <point x="433.5" y="97.5"/>
      <point x="555.0" y="8.5"/>
      <point x="703.5" y="8.5" type="curve" smooth="yes"/>
      <point x="752.5" y="8.5"/>
      <point x="805.5" y="14.5"/>
      <point x="889.5" y="46.0" type="curve"/>
      <point x="792.5" y="-34.5" type="line"/>
      <point x="761.5" y="16.0"/>
      <point x="747.0" y="67.5"/>
      <point x="747.0" y="101.0" type="curve" smooth="yes"/>
      <point x="747.0" y="148.0"/>
      <point x="783.5" y="195.5"/>
      <point x="870.5" y="195.5" type="curve" smooth="yes"/>
      <point x="1024.0" y="195.5"/>
      <point x="1131.5" y="124.5"/>
      <point x="1131.5" y="51.5" type="curve" smooth="yes"/>
      <point x="1131.5" y="-39.5"/>
      <point x="972.0" y="-147.0"/>
      <point x="726.5" y="-147.0" type="curve" smooth="yes"/>
      <point x="422.0" y="-147.0"/>
      <point x="221.5" y="25.0"/>
      <point x="221.5" y="257.0" type="curve" smooth="yes"/>
      <point x="221.5" y="475.0"/>
      <point x="428.0" y="594.5"/>
      <point x="680.5" y="593.5" type="curve" smooth="yes"/>
      <point x="801.0" y="593.0"/>
      <point x="878.5" y="576.0"/>
      <point x="975.5" y="544.5" type="curve"/>
      <point x="943.5" y="398.0" type="line"/>
      <point x="859.5" y="419.0"/>
      <point x="812.5" y="428.0"/>
      <point x="712.5" y="428.0" type="curve" smooth="yes"/>
      <point x="535.5" y="428.0"/>
      <point x="433.5" y="347.0"/>
    </contour>
    <contour>
      <point x="504.5" y="538.5" type="curve"/>
      <point x="391.0" y="420.0" type="line"/>
      <point x="222.5" y="495.5"/>
      <point x="147.5" y="604.0"/>
      <point x="147.5" y="726.5" type="curve" smooth="yes"/>
      <point x="147.5" y="843.0"/>
      <point x="236.0" y="948.5"/>
      <point x="449.5" y="948.5" type="curve" smooth="yes"/>
      <point x="766.5" y="948.5" type="line"/>
      <point x="712.5" y="895.0" type="line"/>
      <point x="712.5" y="1157.0" type="line"/>
      <point x="929.5" y="1157.0" type="line"/>
      <point x="929.5" y="794.0" type="line"/>
      <point x="504.5" y="794.0" type="line"/>
      <point x="397.0" y="794.0"/>
      <point x="356.0" y="748.0"/>
      <point x="356.0" y="687.5" type="curve" smooth="yes"/>
      <point x="356.0" y="627.5"/>
      <point x="401.5" y="578.0"/>
    </contour>
    <contour>
      <point x="919.5" y="-11.0" type="move" name="mark0"/>
    </contour>
  </outline>
</glyph>
<glyph name="dadhadeva" format="1">
  <advance width="1436.5"/>
  <outline>
    <contour>
      <point x="1004.0" y="189.0" type="line"/>
      <point x="1172.5" y="246.0" type="line"/>
      <point x="1421.5" y="-241.5" type="line"/>
      <point x="1258.5" y="-310.0" type="line"/>
    </contour>
    <contour>
      <point x="765.0" y="178.5" type="line"/>
      <point x="635.0" y="119.5"/>
      <point x="596.5" y="35.5"/>
      <point x="596.0" y="-25.0" type="curve" smooth="yes"/>
      <point x="595.5" y="-97.5"/>
      <point x="646.0" y="-148.0"/>
      <point x="726.5" y="-147.5" type="curve" smooth="yes"/>
      <point x="874.5" y="-146.0"/>
      <point x="999.5" y="-7.0"/>
      <point x="1011.0" y="201.5" type="curve"/>
      <point x="1144.0" y="-45.5" type="line"/>
      <point x="1060.0" y="-205.5"/>
      <point x="912.5" y="-311.0"/>
      <point x="741.5" y="-311.0" type="curve" smooth="yes"/>
      <point x="535.0" y="-311.0"/>
      <point x="409.0" y="-191.5"/>
      <point x="409.0" y="-25.5" type="curve" smooth="yes"/>
      <point x="409.0" y="85.0"/>
      <point x="461.5" y="195.0"/>
      <point x="635.0" y="297.5" type="curve"/>
    </contour>
    <contour>
      <point x="-37.0" y="1127.0" type="line"/>
      <point x="-37.0" y="1284.0" type="line"/>
      <point x="1453.0" y="1284.0" type="line"/>
      <point x="1453.0" y="1127.0" type="line"/>
    </contour>
    <contour>
      <point x="922.0" y="111.0" type="curve" smooth="yes"/>
      <point x="621.5" y="111.0"/>
      <point x="406.5" y="299.5"/>
      <point x="406.5" y="531.5" type="curve" smooth="yes"/>
      <point x="406.5" y="732.5"/>
      <point x="560.5" y="887.5"/>
      <point x="863.0" y="887.5" type="curve" smooth="yes"/>
      <point x="1039.5" y="887.5" type="line"/>
      <point x="994.5" y="836.5" type="line"/>
      <point x="994.5" y="1167.0" type="line"/>
      <point x="1212.0" y="1167.0" type="line"/>
      <point x="1212.0" y="718.0" type="line"/>
      <point x="950.5" y="718.0" type="line"/>
      <point x="711.0" y="718.0"/>
      <point x="624.5" y="615.5"/>
      <point x="624.5" y="489.0" type="curve" smooth="yes"/>
      <point x="624.5" y="366.0"/>
      <point x="750.5" y="266.5"/>
      <point x="899.0" y="266.5" type="curve" smooth="yes"/>
      <point x="948.0" y="266.5"/>
      <point x="1001.0" y="272.5"/>
      <point x="1085.0" y="304.0" type="curve"/>
      <point x="988.0" y="223.5" type="line"/>
      <point x="957.0" y="274.0"/>
      <point x="942.5" y="325.5"/>
      <point x="942.5" y="359.0" type="curve" smooth="yes"/>
      <point x="942.5" y="406.0"/>
      <point x="979.0" y="453.5"/>
      <point x="1066.0" y="453.5" type="curve" smooth="yes"/>
      <point x="1219.5" y="453.5"/>
      <point x="1327.0" y="382.5"/>
      <point x="1327.0" y="309.5" type="curve" smooth="yes"/>
      <point x="1327.0" y="218.5"/>
      <point x="1173.5" y="111.0"/>
    </contour>
    <contour>
      <point x="492.0" y="80.5" type="line"/>
      <point x="432.0" y="49.0"/>
      <point x="371.0" y="35.0"/>
      <point x="291.0" y="35.0" type="curve" smooth="yes"/>
      <point x="100.5" y="35.0"/>
      <point x="-26.5" y="153.5"/>
      <point x="-26.5" y="307.0" type="curve" smooth="yes"/>
      <point x="-26.5" y="415.5"/>
      <point x="20.0" y="512.0"/>
      <point x="117.0" y="590.5" type="curve"/>
      <point x="249.0" y="490.5" type="line"/>
      <point x="194.5" y="427.5"/>
      <point x="173.0" y="378.0"/>
      <point x="173.0" y="318.5" type="curve" smooth="yes"/>
      <point x="173.0" y="236.5"/>
      <point x="235.0" y="181.5"/>
      <point x="336.0" y="182.5" type="curve" smooth="yes"/>
      <point x="426.5" y="183.5"/>
      <point x="496.0" y="208.0"/>
      <point x="567.0" y="244.5" type="curve"/>
    </contour>
    <contour>
      <point x="1676.5" y="-11.0" type="move" name="mark0"/>
    </contour>
  </outline>
</glyph>
